<svg xmlns="http://www.w3.org/2000/svg" xmlns:xlink="http://www.w3.org/1999/xlink" viewBox="0 0 355 189.11"><defs><style>.cls-1,.cls-5{fill:#262e3a;}.cls-2{isolation:isolate;}.cls-3{fill:url(#linear-gradient);}.cls-4{fill:#f7f7f8;}.cls-5{fill-rule:evenodd;}.cls-6{opacity:0.5;mix-blend-mode:screen;}.cls-7{fill:#34c64c;}.cls-8{fill:#60bfbf;}.cls-9{fill:#ee3942;}.cls-10{clip-path:url(#clip-path);}.cls-11{fill:none;}.cls-12{fill:url(#linear-gradient-2);}.cls-13{fill:#fff;}.cls-14{fill:url(#linear-gradient-3);}</style><linearGradient id="linear-gradient" x1="35.81" y1="-46.63" x2="314.52" y2="232.09" gradientUnits="userSpaceOnUse"><stop offset="0" stop-color="#3e8ccc"/><stop offset="1" stop-color="#387eb8"/></linearGradient><clipPath id="clip-path"><path class="cls-1" d="M112.88,63.37a7.34,7.34,0,0,0-4.65-1.69h-4.15l-2.25-5.63a4.32,4.32,0,0,0-1.44-3.53c-2.22-2.23-6.59-3.36-13-3.38h-.35c-8,0-11.34,1.71-12.76,3.11a3.27,3.27,0,0,0-1.16,2.66v7.15H67.88a8.92,8.92,0,0,0-5.8,1.78c-2.63,2-4,5.51-4,10.37,0,5.16,1.31,8.83,3.89,10.92a7.48,7.48,0,0,0,4.52,1.69h6.54v5.63A4.27,4.27,0,0,0,74.5,96c1.77,1.78,4.93,2.85,9.38,3.22,1.16.1,2.39.16,3.72.16,1.49,0,2.81-.06,4-.16,5.32-.45,7.82-1.79,9-3a3.32,3.32,0,0,0,1.17-2.66l0-7.15H107a8.84,8.84,0,0,0,5.79-1.78c2.63-2,4-5.5,4-10.36C116.78,69.13,115.47,65.45,112.88,63.37Z"/></clipPath><linearGradient id="linear-gradient-2" x1="-3159.74" y1="634.78" x2="-3159.73" y2="634.77" gradientTransform="matrix(1849.27, 0, 0, -1853.39, 5843273.68, 1176561.6)" gradientUnits="userSpaceOnUse"><stop offset="0" stop-color="#387eb8"/><stop offset="1" stop-color="#366994"/></linearGradient><linearGradient id="linear-gradient-3" x1="-3160.08" y1="635.12" x2="-3160.07" y2="635.1" gradientTransform="matrix(1849.27, 0, 0, -1853.39, 5843917.2, 1177188.78)" gradientUnits="userSpaceOnUse"><stop offset="0" stop-color="#ffe052"/><stop offset="1" stop-color="#ffc331"/></linearGradient></defs><title>PythonScriptingCertification Training_Large</title><g class="cls-2"><g id="Layer_1" data-name="Layer 1"><polygon class="cls-3" points="357.5 189.11 -5.82 191.8 -5.82 -5 357.5 -5 357.5 189.11"/><path class="cls-4" d="M174.45,112.56a8.77,8.77,0,0,1,2.72.37,5.18,5.18,0,0,1,1.87,1,4.09,4.09,0,0,1,1.09,1.55,5.35,5.35,0,0,1,.35,1.94,5.66,5.66,0,0,1-.36,2.05,4.09,4.09,0,0,1-1.11,1.61,5.18,5.18,0,0,1-1.87,1,8.64,8.64,0,0,1-2.69.38h-1.81v5h-3.48v-15Zm0,7.35a2.56,2.56,0,0,0,2-.64,2.58,2.58,0,0,0,.6-1.81,2.54,2.54,0,0,0-.16-.94,1.93,1.93,0,0,0-.46-.73,2.16,2.16,0,0,0-.8-.46,3.4,3.4,0,0,0-1.13-.17h-1.81v4.75Z"/><path class="cls-4" d="M189,121.85v5.7H185.5v-5.7l-5.44-9.29h3.07a1.14,1.14,0,0,1,.72.21,1.66,1.66,0,0,1,.43.54l2.12,4.36c.18.34.34.67.49,1s.27.6.38.88c.1-.29.22-.59.35-.89s.29-.61.47-1l2.1-4.36a2,2,0,0,1,.17-.27,1.14,1.14,0,0,1,.25-.24,1,1,0,0,1,.31-.17,1.05,1.05,0,0,1,.4-.07h3.09Z"/><path class="cls-4" d="M206.35,115.32h-4.22v12.23h-3.47V115.32h-4.22v-2.76h11.91Z"/><path class="cls-4" d="M221.2,112.56v15h-3.5v-6.34h-6.09v6.34h-3.5v-15h3.5v6.26h6.09v-6.26Z"/><path class="cls-4" d="M238.81,120.05a8.11,8.11,0,0,1-.56,3,7.18,7.18,0,0,1-1.58,2.44,7.28,7.28,0,0,1-2.45,1.62,9.06,9.06,0,0,1-6.38,0,7.12,7.12,0,0,1-4-4.06,8.31,8.31,0,0,1,0-6,7.1,7.1,0,0,1,1.58-2.42,7.22,7.22,0,0,1,2.46-1.62,8.43,8.43,0,0,1,3.19-.59,8.2,8.2,0,0,1,3.19.6,7.28,7.28,0,0,1,2.45,1.62,7.1,7.1,0,0,1,1.58,2.42A8.15,8.15,0,0,1,238.81,120.05Zm-3.56,0a6.23,6.23,0,0,0-.29-2,4.14,4.14,0,0,0-.82-1.51,3.64,3.64,0,0,0-1.33-1,4.52,4.52,0,0,0-1.78-.33,4.57,4.57,0,0,0-1.79.33,3.56,3.56,0,0,0-1.33,1,4.15,4.15,0,0,0-.83,1.51,7.08,7.08,0,0,0,0,4,4.24,4.24,0,0,0,.83,1.51,3.54,3.54,0,0,0,1.33.94,4.76,4.76,0,0,0,1.79.32,4.71,4.71,0,0,0,1.78-.32,3.62,3.62,0,0,0,1.33-.94,4.22,4.22,0,0,0,.82-1.51A6.25,6.25,0,0,0,235.25,120.05Z"/><path class="cls-4" d="M254,112.56v15h-1.81a1.53,1.53,0,0,1-.68-.13,1.66,1.66,0,0,1-.54-.45L243.85,118q0,.41.06.78c0,.25,0,.48,0,.7v8h-3.07v-15h1.83a2.12,2.12,0,0,1,.38,0,.94.94,0,0,1,.52.24,2.32,2.32,0,0,1,.25.27l7.13,9c0-.29-.06-.57-.07-.84s0-.53,0-.77v-7.93Z"/><path class="cls-4" d="M177.44,139.42a1.33,1.33,0,0,1-.32.37.76.76,0,0,1-.44.12,1.06,1.06,0,0,1-.51-.15l-.62-.33a4.69,4.69,0,0,0-.78-.34,3.2,3.2,0,0,0-1-.14,2.18,2.18,0,0,0-1.46.41,1.43,1.43,0,0,0-.48,1.13,1.05,1.05,0,0,0,.29.75,2.41,2.41,0,0,0,.76.51,7.29,7.29,0,0,0,1.07.4c.4.12.81.25,1.23.4a11.05,11.05,0,0,1,1.23.52,4.25,4.25,0,0,1,1.07.76,3.6,3.6,0,0,1,.75,1.13,4,4,0,0,1,.29,1.6,5.19,5.19,0,0,1-.36,1.94,4.58,4.58,0,0,1-1,1.58,4.91,4.91,0,0,1-1.69,1.06,6.26,6.26,0,0,1-2.28.39,6.92,6.92,0,0,1-1.42-.15,8.16,8.16,0,0,1-1.41-.4,8.34,8.34,0,0,1-1.27-.63,5,5,0,0,1-1-.8l1-1.62a1,1,0,0,1,.32-.3.83.83,0,0,1,.44-.12,1.19,1.19,0,0,1,.62.2l.71.43a5.51,5.51,0,0,0,.91.43,3.2,3.2,0,0,0,1.21.2,2.3,2.3,0,0,0,1.47-.42,1.57,1.57,0,0,0,.53-1.32,1.25,1.25,0,0,0-.29-.85,2.28,2.28,0,0,0-.75-.55,7.8,7.8,0,0,0-1.07-.38l-1.22-.36a9.32,9.32,0,0,1-1.23-.5,3.65,3.65,0,0,1-1.06-.77,3.52,3.52,0,0,1-.76-1.19,4.82,4.82,0,0,1-.29-1.77,4.24,4.24,0,0,1,1.34-3.07,5,5,0,0,1,1.61-1,6,6,0,0,1,2.2-.37,7.42,7.42,0,0,1,1.34.11,6.27,6.27,0,0,1,1.24.32,6,6,0,0,1,1.09.5,5.26,5.26,0,0,1,.92.66Z"/><path class="cls-4" d="M190.66,147.48a.74.74,0,0,1,.25.05.67.67,0,0,1,.24.16l1.37,1.45a5.81,5.81,0,0,1-2.26,1.79,8,8,0,0,1-3.23.6A7.8,7.8,0,0,1,184,151a6.63,6.63,0,0,1-2.29-1.61,7.05,7.05,0,0,1-1.45-2.43,8.83,8.83,0,0,1-.51-3,8.52,8.52,0,0,1,.55-3.08,7.18,7.18,0,0,1,1.53-2.42,7,7,0,0,1,2.37-1.59,8,8,0,0,1,3-.56,8,8,0,0,1,1.59.15,7.37,7.37,0,0,1,1.4.41,5.86,5.86,0,0,1,1.19.63,6.56,6.56,0,0,1,1,.8l-1.17,1.58a2.23,2.23,0,0,1-.27.26.69.69,0,0,1-.43.12.82.82,0,0,1-.35-.08l-.35-.2-.41-.26a3.6,3.6,0,0,0-.52-.26,5.1,5.1,0,0,0-.71-.2,5.39,5.39,0,0,0-1-.08,3.68,3.68,0,0,0-1.57.32,3.41,3.41,0,0,0-1.24.93,4.3,4.3,0,0,0-.8,1.5,6.64,6.64,0,0,0-.28,2,6.18,6.18,0,0,0,.31,2,4.5,4.5,0,0,0,.85,1.51,3.69,3.69,0,0,0,1.26.93,3.84,3.84,0,0,0,1.55.32,7.52,7.52,0,0,0,.86,0,4.1,4.1,0,0,0,.73-.15,3.38,3.38,0,0,0,.64-.29,3.9,3.9,0,0,0,.61-.46,1.45,1.45,0,0,1,.26-.17A.82.82,0,0,1,190.66,147.48Z"/><path class="cls-4" d="M206.31,151.36h-3.15a1.33,1.33,0,0,1-1.25-.66l-2.49-4.35a1.25,1.25,0,0,0-.39-.4,1.19,1.19,0,0,0-.62-.13h-.89v5.54h-3.47v-15h4.87a9.78,9.78,0,0,1,2.78.34,5.2,5.2,0,0,1,1.87.93,3.58,3.58,0,0,1,1.05,1.41,4.65,4.65,0,0,1,.33,1.77,4.84,4.84,0,0,1-.19,1.38,4.24,4.24,0,0,1-.58,1.19,4.4,4.4,0,0,1-.94,1,5.71,5.71,0,0,1-1.29.71,3.26,3.26,0,0,1,.64.43,3.68,3.68,0,0,1,.53.63Zm-7.39-7.94a3.55,3.55,0,0,0,1.21-.18,2.23,2.23,0,0,0,.82-.5,1.82,1.82,0,0,0,.46-.75,2.73,2.73,0,0,0,.15-.92,1.94,1.94,0,0,0-.65-1.54,3,3,0,0,0-2-.55h-1.4v4.44Z"/><path class="cls-4" d="M211.07,151.36h-3.49v-15h3.49Z"/><path class="cls-4" d="M219.26,136.37a8.66,8.66,0,0,1,2.72.38,5.21,5.21,0,0,1,1.88,1,4,4,0,0,1,1.08,1.56,5.3,5.3,0,0,1,.35,1.93,5.71,5.71,0,0,1-.36,2.06,4.14,4.14,0,0,1-1.1,1.6,5.09,5.09,0,0,1-1.88,1,8.57,8.57,0,0,1-2.69.37h-1.81v5H214v-15Zm0,7.36a2.2,2.2,0,0,0,2.55-2.46,2.85,2.85,0,0,0-.15-.94,1.84,1.84,0,0,0-.47-.72,2.13,2.13,0,0,0-.79-.47,3.52,3.52,0,0,0-1.14-.16h-1.81v4.75Z"/><path class="cls-4" d="M237.83,139.13h-4.22v12.23h-3.47V139.13h-4.22v-2.76h11.91Z"/><path class="cls-4" d="M243.09,151.36h-3.5v-15h3.5Z"/><path class="cls-4" d="M259.08,136.37v15h-1.81a1.56,1.56,0,0,1-.68-.13,1.61,1.61,0,0,1-.54-.44L249,141.85c0,.26,0,.52,0,.77s0,.49,0,.71v8H246v-15h1.83l.38,0a1,1,0,0,1,.28.08,1.11,1.11,0,0,1,.24.16c.07.07.16.16.26.28l7.13,9c0-.29-.06-.57-.08-.84s0-.53,0-.77v-7.93Z"/><path class="cls-4" d="M269.18,143.59h5.33v6.33a7.84,7.84,0,0,1-2.45,1.23,9.82,9.82,0,0,1-2.72.38A9.49,9.49,0,0,1,266,151a7.78,7.78,0,0,1-2.6-1.61,7,7,0,0,1-1.67-2.43,7.82,7.82,0,0,1-.58-3,8.31,8.31,0,0,1,.55-3.08,6.89,6.89,0,0,1,1.59-2.42,7.23,7.23,0,0,1,2.5-1.59,9.21,9.21,0,0,1,3.28-.56,9.86,9.86,0,0,1,1.76.15,10.48,10.48,0,0,1,1.52.42,7.94,7.94,0,0,1,1.27.64,7.68,7.68,0,0,1,1,.8l-1,1.54a1,1,0,0,1-.62.44,1.11,1.11,0,0,1-.8-.18c-.28-.17-.54-.31-.78-.43a4.44,4.44,0,0,0-1.55-.46,9,9,0,0,0-.95,0,4.27,4.27,0,0,0-1.75.34,3.75,3.75,0,0,0-1.34,1,4.48,4.48,0,0,0-.85,1.5,6.07,6.07,0,0,0-.29,2A6.29,6.29,0,0,0,265,146a4.31,4.31,0,0,0,.93,1.57,4,4,0,0,0,1.44,1,5.4,5.4,0,0,0,3,.21,5.75,5.75,0,0,0,1-.33v-2.27h-1.48a.69.69,0,0,1-.51-.18.56.56,0,0,1-.19-.44Z"/><path class="cls-4" d="M175.17,167.25l.16,0a.44.44,0,0,1,.15.1l.89.94a3.69,3.69,0,0,1-1.47,1.15,5.08,5.08,0,0,1-2.08.39,4.94,4.94,0,0,1-2-.38,4.15,4.15,0,0,1-1.48-1,4.6,4.6,0,0,1-.94-1.57,5.69,5.69,0,0,1-.32-2,5.37,5.37,0,0,1,.35-2,4.52,4.52,0,0,1,1-1.56,4.44,4.44,0,0,1,1.53-1,5.13,5.13,0,0,1,2-.36,4.8,4.8,0,0,1,1,.1,5,5,0,0,1,.9.26,3.76,3.76,0,0,1,.77.41,4.06,4.06,0,0,1,.63.52l-.76,1a.91.91,0,0,1-.17.17.47.47,0,0,1-.28.08.59.59,0,0,1-.23-.05l-.23-.13-.26-.17A1.8,1.8,0,0,0,174,162a2.39,2.39,0,0,0-.45-.14,3.7,3.7,0,0,0-.62-.05,2.45,2.45,0,0,0-1,.21,2.11,2.11,0,0,0-.79.6,2.65,2.65,0,0,0-.52,1,4.06,4.06,0,0,0-.19,1.31,3.81,3.81,0,0,0,.21,1.32,2.77,2.77,0,0,0,.55,1,2.28,2.28,0,0,0,.81.61,2.55,2.55,0,0,0,1,.2,4.86,4.86,0,0,0,.56,0,2.46,2.46,0,0,0,.47-.1,2.13,2.13,0,0,0,.41-.18,2.55,2.55,0,0,0,.39-.3l.17-.11A.48.48,0,0,1,175.17,167.25Z"/><path class="cls-4" d="M179.61,161.8v2.26h3v1.66h-3V168h4v1.73h-6.23v-9.67h6.23v1.72Z"/><path class="cls-4" d="M192.88,169.75h-2a.86.86,0,0,1-.81-.42l-1.61-2.81a.94.94,0,0,0-.25-.27.89.89,0,0,0-.4-.08h-.57v3.58H185v-9.67h3.15a6.61,6.61,0,0,1,1.79.21,3.6,3.6,0,0,1,1.21.6,2.3,2.3,0,0,1,.68.91,3,3,0,0,1,.21,1.14,2.82,2.82,0,0,1-.13.89,2.54,2.54,0,0,1-.37.78,2.75,2.75,0,0,1-.6.63,3.23,3.23,0,0,1-.84.46,2.29,2.29,0,0,1,.41.28,2.23,2.23,0,0,1,.35.4Zm-4.77-5.13a2.26,2.26,0,0,0,.78-.11,1.63,1.63,0,0,0,.53-.32,1.5,1.5,0,0,0,.3-.48,2,2,0,0,0,.09-.6,1.26,1.26,0,0,0-.42-1,1.9,1.9,0,0,0-1.28-.35h-.9v2.86Z"/><path class="cls-4" d="M200.46,161.86h-2.73v7.89h-2.24v-7.89h-2.73v-1.78h7.7Z"/><path class="cls-4" d="M203.85,169.75h-2.26v-9.67h2.26Z"/><path class="cls-4" d="M208,161.8v2.45h3.31V166H208v3.76h-2.26v-9.67H212v1.72Z"/><path class="cls-4" d="M215.5,169.75h-2.25v-9.67h2.25Z"/><path class="cls-4" d="M223.9,167.25a.45.45,0,0,1,.16,0,.44.44,0,0,1,.15.1l.89.94a3.73,3.73,0,0,1-1.46,1.15,5.13,5.13,0,0,1-2.09.39,4.94,4.94,0,0,1-2-.38,4.24,4.24,0,0,1-1.48-1,4.6,4.6,0,0,1-.94-1.57,5.94,5.94,0,0,1-.32-2,5.58,5.58,0,0,1,.35-2,4.83,4.83,0,0,1,1-1.56,4.54,4.54,0,0,1,1.53-1,5.14,5.14,0,0,1,2-.36,4.77,4.77,0,0,1,1,.1,5,5,0,0,1,.9.26,3.76,3.76,0,0,1,.77.41,3.64,3.64,0,0,1,.63.52l-.76,1a.91.91,0,0,1-.17.17.47.47,0,0,1-.28.08.59.59,0,0,1-.23-.05l-.22-.13-.26-.17a2.16,2.16,0,0,0-.34-.16,2.5,2.5,0,0,0-.46-.14,3.7,3.7,0,0,0-.62-.05,2.45,2.45,0,0,0-1,.21,2.19,2.19,0,0,0-.79.6,2.65,2.65,0,0,0-.52,1,4.37,4.37,0,0,0-.18,1.31,3.82,3.82,0,0,0,.2,1.32,2.77,2.77,0,0,0,.55,1,2.28,2.28,0,0,0,.81.61,2.59,2.59,0,0,0,1,.2,4.86,4.86,0,0,0,.56,0,2.3,2.3,0,0,0,.47-.1,1.89,1.89,0,0,0,.41-.18,2.55,2.55,0,0,0,.39-.3,1.08,1.08,0,0,1,.18-.11A.41.41,0,0,1,223.9,167.25Z"/><path class="cls-4" d="M234.76,169.75H233a.77.77,0,0,1-.47-.13.92.92,0,0,1-.27-.35l-.57-1.69H228l-.57,1.69a.88.88,0,0,1-.26.33.75.75,0,0,1-.47.15H225l3.75-9.67H231Zm-3.56-3.7-.9-2.65c-.07-.17-.14-.36-.21-.59s-.15-.48-.23-.74c-.06.27-.14.52-.21.75l-.21.6-.89,2.63Z"/><path class="cls-4" d="M241.54,161.86h-2.72v7.89h-2.25v-7.89h-2.72v-1.78h7.69Z"/><path class="cls-4" d="M244.93,169.75h-2.26v-9.67h2.26Z"/><path class="cls-4" d="M256.3,164.91a5.2,5.2,0,0,1-.36,2,4.54,4.54,0,0,1-1,1.57,4.65,4.65,0,0,1-1.58,1,5.77,5.77,0,0,1-4.12,0,4.6,4.6,0,0,1-1.59-1,4.54,4.54,0,0,1-1-1.57,5.46,5.46,0,0,1,0-3.9,4.63,4.63,0,0,1,1-1.57,4.72,4.72,0,0,1,1.59-1,5.77,5.77,0,0,1,4.12,0,4.8,4.8,0,0,1,1.58,1.05,4.59,4.59,0,0,1,1,1.56A5.28,5.28,0,0,1,256.3,164.91Zm-2.3,0a4.28,4.28,0,0,0-.18-1.29,2.69,2.69,0,0,0-.54-1,2.31,2.31,0,0,0-.85-.62,3,3,0,0,0-1.15-.21,3,3,0,0,0-1.16.21,2.31,2.31,0,0,0-.85.62,2.55,2.55,0,0,0-.54,1,4.27,4.27,0,0,0-.19,1.29,4.34,4.34,0,0,0,.19,1.3,2.55,2.55,0,0,0,.54,1,2.18,2.18,0,0,0,.85.61,3,3,0,0,0,1.16.21,3,3,0,0,0,1.15-.21,2.18,2.18,0,0,0,.85-.61,2.69,2.69,0,0,0,.54-1A4.35,4.35,0,0,0,254,164.91Z"/><path class="cls-4" d="M266.07,160.08v9.67H264.9a1.06,1.06,0,0,1-.43-.08,1,1,0,0,1-.35-.29l-4.56-5.77c0,.17,0,.34,0,.5s0,.31,0,.45v5.19h-2v-9.67h1.43a.48.48,0,0,1,.18,0,.65.65,0,0,1,.15.1l.17.18,4.6,5.81c0-.18,0-.36,0-.54s0-.34,0-.49v-5.12Z"/><path class="cls-4" d="M277.56,161.86h-2.72v7.89h-2.25v-7.89h-2.72v-1.78h7.69Z"/><path class="cls-4" d="M286.61,169.75h-2a.86.86,0,0,1-.81-.42l-1.61-2.81a.82.82,0,0,0-.25-.27.86.86,0,0,0-.4-.08h-.57v3.58h-2.25v-9.67h3.15a6.61,6.61,0,0,1,1.79.21,3.51,3.51,0,0,1,1.21.6,2.3,2.3,0,0,1,.68.91,3,3,0,0,1,.21,1.14,3.14,3.14,0,0,1-.12.89,3.11,3.11,0,0,1-.37.78,3,3,0,0,1-.61.63,3.17,3.17,0,0,1-.83.46,2.71,2.71,0,0,1,.41.28,2.18,2.18,0,0,1,.34.4Zm-4.77-5.13a2.22,2.22,0,0,0,.78-.11,1.53,1.53,0,0,0,.53-.32,1.22,1.22,0,0,0,.3-.48,2,2,0,0,0,.09-.6,1.28,1.28,0,0,0-.41-1,2,2,0,0,0-1.29-.35h-.9v2.86Z"/><path class="cls-4" d="M296.11,169.75h-1.74a.75.75,0,0,1-.47-.13,1.06,1.06,0,0,1-.28-.35l-.57-1.69h-3.68l-.57,1.69a.79.79,0,0,1-.26.33.73.73,0,0,1-.47.15h-1.75l3.74-9.67h2.3Zm-3.57-3.7-.9-2.65-.21-.59c-.07-.23-.15-.48-.22-.74-.07.27-.14.52-.22.75s-.14.43-.21.6l-.89,2.63Z"/><path class="cls-4" d="M299.13,169.75h-2.26v-9.67h2.26Z"/><path class="cls-4" d="M309.45,160.08v9.67h-1.17a1.06,1.06,0,0,1-.43-.08,1,1,0,0,1-.35-.29l-4.56-5.77c0,.17,0,.34,0,.5s0,.31,0,.45v5.19h-2v-9.67h1.43a.48.48,0,0,1,.18,0,.65.65,0,0,1,.15.1l.17.18,4.6,5.81c0-.18,0-.36,0-.54s0-.34,0-.49v-5.12Z"/><path class="cls-4" d="M313.58,169.75h-2.26v-9.67h2.26Z"/><path class="cls-4" d="M323.9,160.08v9.67h-1.17a1.06,1.06,0,0,1-.43-.08,1,1,0,0,1-.35-.29l-4.56-5.77c0,.17,0,.34,0,.5s0,.31,0,.45v5.19h-2v-9.67h1.43a.48.48,0,0,1,.18,0,.65.65,0,0,1,.15.1l.17.18,4.6,5.81a4.9,4.9,0,0,1,0-.54c0-.17,0-.34,0-.49v-5.12Z"/><path class="cls-4" d="M330.42,164.74h3.44v4.08a5,5,0,0,1-1.58.79,6.36,6.36,0,0,1-3.93-.13,5,5,0,0,1-1.68-1,4.79,4.79,0,0,1-1.08-1.57,5.08,5.08,0,0,1-.37-2,5.58,5.58,0,0,1,.35-2,4.61,4.61,0,0,1,1-1.56,4.78,4.78,0,0,1,1.61-1,6.47,6.47,0,0,1,3.26-.26,5.27,5.27,0,0,1,1,.27,4.93,4.93,0,0,1,.83.41,4.88,4.88,0,0,1,.66.52l-.65,1a.61.61,0,0,1-.4.29.75.75,0,0,1-.52-.12l-.5-.28a3.19,3.19,0,0,0-.48-.19,2.82,2.82,0,0,0-.52-.1,3.74,3.74,0,0,0-.61,0,3,3,0,0,0-1.14.22,2.55,2.55,0,0,0-.86.63,3,3,0,0,0-.54,1,4.26,4.26,0,0,0,0,2.64,2.83,2.83,0,0,0,.6,1,2.73,2.73,0,0,0,.93.63,3.47,3.47,0,0,0,1.93.13,3.69,3.69,0,0,0,.64-.21v-1.47h-1a.49.49,0,0,1-.33-.11.38.38,0,0,1-.12-.29Z"/><path class="cls-5" d="M131.63,43.53a2,2,0,0,0-1.48-.56H40.94a1.27,1.27,0,0,0-1.2.49,2,2,0,0,0-.56,1.47v58.14H77.5a.61.61,0,0,1,.63.49,1.78,1.78,0,0,1,.21.28q.34.78.84.78H92.26c.33,0,.61-.21.84-.64l.28-.56a.62.62,0,0,1,.64-.35h38.31V44.93A1.82,1.82,0,0,0,131.63,43.53Zm2-2.11a5.2,5.2,0,0,1,1.55,3.51v57.44H149a1.2,1.2,0,0,1,1.33,1.19,6,6,0,0,1-1.33,5.06q-2.12,2.32-7.1,2.18H29.48l-.35.07c-3,0-5.18-.72-6.54-2.18a6.27,6.27,0,0,1-1.48-5.06c0-.84.45-1.26,1.34-1.26H36.37V44.93a5.39,5.39,0,0,1,1.2-3.37,4.29,4.29,0,0,1,3.37-1.41h89.22A5.33,5.33,0,0,1,133.6,41.42ZM128.47,101H43V47.54h85.49Zm-41.9-56.8a.89.89,0,0,1,.42.78,1.21,1.21,0,0,1-.42.84,1,1,0,0,1-.85.35,1.15,1.15,0,0,1-.84-.35,1.18,1.18,0,0,1-.35-.84.84.84,0,0,1,.35-.78,1.16,1.16,0,0,1,.84-.35A1,1,0,0,1,86.57,44.16Z"/><g class="cls-6"><path class="cls-7" d="M59.82,51.33a.36.36,0,0,1-.33.37H45a.36.36,0,0,1-.33-.37h0A.35.35,0,0,1,45,51H59.49a.35.35,0,0,1,.33.36Z"/><path class="cls-8" d="M61.71,54.4a.36.36,0,0,1-.33.37H45a.36.36,0,0,1-.33-.37h0A.35.35,0,0,1,45,54H61.38a.35.35,0,0,1,.33.36Z"/><path class="cls-8" d="M87.45,54.4a.36.36,0,0,1-.33.37H70.78a.35.35,0,0,1-.33-.37h0a.34.34,0,0,1,.33-.36H87.12a.35.35,0,0,1,.33.36Z"/><path class="cls-8" d="M79.55,57.47a.36.36,0,0,1-.33.37H45a.36.36,0,0,1-.33-.37h0a.35.35,0,0,1,.33-.36H79.22a.35.35,0,0,1,.33.36Z"/><path class="cls-8" d="M92.4,51.33a.36.36,0,0,1-.33.37H74.53a.36.36,0,0,1-.33-.37h0a.35.35,0,0,1,.33-.36H92.07a.35.35,0,0,1,.33.36Z"/><path class="cls-9" d="M49.52,60.54a.36.36,0,0,1-.33.37H45a.36.36,0,0,1-.33-.37h0a.35.35,0,0,1,.33-.36h4.15a.35.35,0,0,1,.33.36Z"/><path class="cls-9" d="M71.67,51.33a.36.36,0,0,1-.33.37H61.87a.36.36,0,0,1-.33-.37h0a.35.35,0,0,1,.33-.36h9.47a.35.35,0,0,1,.33.36Z"/><path class="cls-9" d="M69.17,54.4a.36.36,0,0,1-.33.37H63.37a.35.35,0,0,1-.32-.37h0a.34.34,0,0,1,.32-.36h5.47a.35.35,0,0,1,.33.36Z"/><path class="cls-8" d="M53.37,63.61A.36.36,0,0,1,53,64H45a.36.36,0,0,1-.33-.37h0a.35.35,0,0,1,.33-.36h8a.35.35,0,0,1,.33.36Z"/><path class="cls-8" d="M76.65,63.61a.36.36,0,0,1-.33.37H55.81a.36.36,0,0,1-.33-.37h0a.35.35,0,0,1,.33-.36H76.32a.35.35,0,0,1,.33.36Z"/><path class="cls-7" d="M64.7,66.68a.36.36,0,0,1-.33.37H45a.36.36,0,0,1-.33-.37h0a.35.35,0,0,1,.33-.36H64.37a.35.35,0,0,1,.33.36Z"/><path class="cls-9" d="M56.58,69.75a.35.35,0,0,1-.33.37H45a.36.36,0,0,1-.33-.37h0a.35.35,0,0,1,.33-.36H56.25a.34.34,0,0,1,.33.36Z"/><path class="cls-7" d="M69.89,69.75a.36.36,0,0,1-.33.37H58.34a.36.36,0,0,1-.33-.37h0a.35.35,0,0,1,.33-.36H69.56a.35.35,0,0,1,.33.36Z"/><path class="cls-7" d="M90.39,63.61a.36.36,0,0,1-.33.37H78.84a.36.36,0,0,1-.33-.37h0a.35.35,0,0,1,.33-.36H90.06a.35.35,0,0,1,.33.36Z"/><path class="cls-8" d="M53.37,94.35a.36.36,0,0,1-.33.37H45a.36.36,0,0,1-.33-.37h0A.35.35,0,0,1,45,94h8a.35.35,0,0,1,.33.36Z"/><path class="cls-8" d="M76.65,94.35a.36.36,0,0,1-.33.37H55.81a.36.36,0,0,1-.33-.37h0a.35.35,0,0,1,.33-.36H76.32a.35.35,0,0,1,.33.36Z"/><path class="cls-7" d="M64.7,97.42a.35.35,0,0,1-.33.37H45a.35.35,0,0,1-.33-.37h0a.35.35,0,0,1,.33-.36H64.37a.35.35,0,0,1,.33.36Z"/><path class="cls-7" d="M90.39,94.35a.35.35,0,0,1-.33.37H78.84a.35.35,0,0,1-.33-.37h0a.35.35,0,0,1,.33-.36H90.06a.35.35,0,0,1,.33.36Z"/><path class="cls-8" d="M83.65,72.82a.36.36,0,0,1-.33.37H48.64a.36.36,0,0,1-.33-.37h0a.35.35,0,0,1,.33-.36H83.32a.35.35,0,0,1,.33.36Z"/><path class="cls-9" d="M90.71,72.82a.43.43,0,0,1-.47.37H84a.43.43,0,0,1-.47-.37h0a.43.43,0,0,1,.47-.36h6.22a.43.43,0,0,1,.47.36Z"/><path class="cls-9" d="M55,88.17a.35.35,0,0,1-.33.37H48.64a.36.36,0,0,1-.33-.37h0a.35.35,0,0,1,.33-.36H54.7a.34.34,0,0,1,.33.36Z"/><path class="cls-9" d="M74.81,97.42a.35.35,0,0,1-.33.37H68.42a.34.34,0,0,1-.33-.37h0a.34.34,0,0,1,.33-.36h6.06a.35.35,0,0,1,.33.36Z"/><path class="cls-9" d="M92.08,97.42a.35.35,0,0,1-.33.37H77.15a.35.35,0,0,1-.33-.37h0a.35.35,0,0,1,.33-.36h14.6a.35.35,0,0,1,.33.36Z"/><path class="cls-8" d="M79.55,75.89a.36.36,0,0,1-.33.37H48.64a.36.36,0,0,1-.33-.37h0a.35.35,0,0,1,.33-.36H79.22a.35.35,0,0,1,.33.36Z"/><path class="cls-7" d="M79.88,79a.35.35,0,0,1-.33.37H48.64a.36.36,0,0,1-.33-.37h0a.35.35,0,0,1,.33-.36H79.55a.34.34,0,0,1,.33.36Z"/><path class="cls-9" d="M59.49,82a.36.36,0,0,1-.33.37H48.64a.36.36,0,0,1-.33-.37h0a.35.35,0,0,1,.33-.36H59.16a.35.35,0,0,1,.33.36Z"/><path class="cls-8" d="M86.78,82a.36.36,0,0,1-.33.37H62a.36.36,0,0,1-.33-.37h0a.35.35,0,0,1,.33-.36h24.5a.35.35,0,0,1,.33.36Z"/><path class="cls-8" d="M93.31,85.1a.36.36,0,0,1-.33.37H48.64a.36.36,0,0,1-.33-.37h0a.35.35,0,0,1,.33-.36H93a.35.35,0,0,1,.33.36Z"/><path class="cls-8" d="M96.19,88.17a.36.36,0,0,1-.33.37H56.75a.35.35,0,0,1-.33-.37h0a.34.34,0,0,1,.33-.36H95.86a.35.35,0,0,1,.33.36Z"/><path class="cls-8" d="M94.93,91.24a.36.36,0,0,1-.33.37h-46a.36.36,0,0,1-.33-.37h0a.35.35,0,0,1,.33-.36h46a.35.35,0,0,1,.33.36Z"/><path class="cls-7" d="M111.67,51.33a.36.36,0,0,0,.33.37h14.45a.36.36,0,0,0,.33-.37h0a.35.35,0,0,0-.33-.36H112a.35.35,0,0,0-.33.36Z"/><path class="cls-8" d="M109.78,54.4a.36.36,0,0,0,.33.37h16.34a.36.36,0,0,0,.33-.37h0a.35.35,0,0,0-.33-.36H110.11a.35.35,0,0,0-.33.36Z"/><path class="cls-8" d="M84,54.4a.36.36,0,0,0,.33.37h16.34a.36.36,0,0,0,.33-.37h0a.35.35,0,0,0-.33-.36H84.37a.35.35,0,0,0-.33.36Z"/><path class="cls-8" d="M91.93,57.47a.36.36,0,0,0,.34.37h34.18a.36.36,0,0,0,.33-.37h0a.35.35,0,0,0-.33-.36H92.27a.35.35,0,0,0-.34.36Z"/><path class="cls-8" d="M79.09,51.33a.36.36,0,0,0,.33.37H97a.36.36,0,0,0,.33-.37h0A.35.35,0,0,0,97,51H79.42a.35.35,0,0,0-.33.36Z"/><path class="cls-9" d="M122,60.54a.36.36,0,0,0,.33.37h4.15a.36.36,0,0,0,.33-.37h0a.35.35,0,0,0-.33-.36H122.3a.35.35,0,0,0-.33.36Z"/><path class="cls-9" d="M99.82,51.33a.36.36,0,0,0,.33.37h9.47a.35.35,0,0,0,.32-.37h0a.34.34,0,0,0-.32-.36h-9.47a.35.35,0,0,0-.33.36Z"/><path class="cls-9" d="M102.32,54.4a.35.35,0,0,0,.33.37h5.46a.36.36,0,0,0,.33-.37h0a.35.35,0,0,0-.33-.36h-5.46a.34.34,0,0,0-.33.36Z"/><path class="cls-8" d="M118.12,63.61a.35.35,0,0,0,.32.37h8a.36.36,0,0,0,.33-.37h0a.35.35,0,0,0-.33-.36h-8a.34.34,0,0,0-.32.36Z"/><path class="cls-8" d="M94.84,63.61a.36.36,0,0,0,.33.37h20.51a.35.35,0,0,0,.32-.37h0a.34.34,0,0,0-.32-.36H95.17a.35.35,0,0,0-.33.36Z"/><path class="cls-7" d="M106.79,66.68a.35.35,0,0,0,.33.37h19.33a.36.36,0,0,0,.33-.37h0a.35.35,0,0,0-.33-.36H107.12a.34.34,0,0,0-.33.36Z"/><path class="cls-9" d="M114.91,69.75a.35.35,0,0,0,.32.37h11.22a.36.36,0,0,0,.33-.37h0a.35.35,0,0,0-.33-.36H115.23a.34.34,0,0,0-.32.36Z"/><path class="cls-7" d="M101.6,69.75a.36.36,0,0,0,.33.37h11.22a.36.36,0,0,0,.33-.37h0a.35.35,0,0,0-.33-.36H101.93a.35.35,0,0,0-.33.36Z"/><path class="cls-7" d="M81.1,63.61a.36.36,0,0,0,.33.37H92.65a.36.36,0,0,0,.33-.37h0a.35.35,0,0,0-.33-.36H81.43a.35.35,0,0,0-.33.36Z"/><path class="cls-8" d="M118.12,94.35a.35.35,0,0,0,.32.37h8a.36.36,0,0,0,.33-.37h0a.35.35,0,0,0-.33-.36h-8a.34.34,0,0,0-.32.36Z"/><path class="cls-8" d="M94.84,94.35a.36.36,0,0,0,.33.37h20.51a.35.35,0,0,0,.32-.37h0a.34.34,0,0,0-.32-.36H95.17a.35.35,0,0,0-.33.36Z"/><path class="cls-7" d="M106.79,97.42a.34.34,0,0,0,.33.37h19.33a.35.35,0,0,0,.33-.37h0a.35.35,0,0,0-.33-.36H107.12a.34.34,0,0,0-.33.36Z"/><path class="cls-7" d="M81.1,94.35a.35.35,0,0,0,.33.37H92.65a.35.35,0,0,0,.33-.37h0a.35.35,0,0,0-.33-.36H81.43a.35.35,0,0,0-.33.36Z"/><path class="cls-9" d="M80.78,72.82a.36.36,0,0,0,.33.37h4.33a.36.36,0,0,0,.33-.37h0a.35.35,0,0,0-.33-.36H81.11a.35.35,0,0,0-.33.36Z"/><path class="cls-9" d="M116.45,88.17a.36.36,0,0,0,.33.37h6.06a.35.35,0,0,0,.33-.37h0a.34.34,0,0,0-.33-.36h-6.06a.35.35,0,0,0-.33.36Z"/><path class="cls-9" d="M96.68,97.42a.35.35,0,0,0,.33.37h6.06a.35.35,0,0,0,.33-.37h0a.35.35,0,0,0-.33-.36H97a.35.35,0,0,0-.33.36Z"/><path class="cls-9" d="M79.41,97.42a.35.35,0,0,0,.33.37h14.6a.35.35,0,0,0,.33-.37h0a.35.35,0,0,0-.33-.36H79.74a.35.35,0,0,0-.33.36Z"/><path class="cls-8" d="M91.93,75.89a.36.36,0,0,0,.34.37h30.57a.36.36,0,0,0,.33-.37h0a.35.35,0,0,0-.33-.36H92.27a.35.35,0,0,0-.34.36Z"/><path class="cls-7" d="M91.61,79a.35.35,0,0,0,.32.37h30.91a.36.36,0,0,0,.33-.37h0a.35.35,0,0,0-.33-.36H91.93a.34.34,0,0,0-.32.36Z"/><path class="cls-9" d="M112,82a.36.36,0,0,0,.33.37h10.51a.36.36,0,0,0,.33-.37h0a.35.35,0,0,0-.33-.36H112.33A.35.35,0,0,0,112,82Z"/><path class="cls-8" d="M84.71,82a.35.35,0,0,0,.33.37h24.5a.36.36,0,0,0,.33-.37h0a.35.35,0,0,0-.33-.36H85a.34.34,0,0,0-.33.36Z"/><path class="cls-8" d="M78.18,85.1a.36.36,0,0,0,.33.37h44.33a.36.36,0,0,0,.33-.37h0a.35.35,0,0,0-.33-.36H78.51a.35.35,0,0,0-.33.36Z"/><path class="cls-8" d="M75.3,88.17a.36.36,0,0,0,.33.37h39.11a.36.36,0,0,0,.33-.37h0a.35.35,0,0,0-.33-.36H75.63a.35.35,0,0,0-.33.36Z"/><path class="cls-8" d="M76.56,91.24a.35.35,0,0,0,.33.37h46a.36.36,0,0,0,.33-.37h0a.35.35,0,0,0-.33-.36H76.89a.34.34,0,0,0-.33.36Z"/><path class="cls-8" d="M79,72.82a.39.39,0,0,0,.41.37h43.38a.39.39,0,0,0,.41-.37h0a.38.38,0,0,0-.41-.36H79.38a.38.38,0,0,0-.41.36Z"/></g><path class="cls-1" d="M112.88,63.37a7.34,7.34,0,0,0-4.65-1.69h-4.15l-2.25-5.63a4.32,4.32,0,0,0-1.44-3.53c-2.22-2.23-6.59-3.36-13-3.38h-.35c-8,0-11.34,1.71-12.76,3.11a3.27,3.27,0,0,0-1.16,2.66v7.15H67.88a8.92,8.92,0,0,0-5.8,1.78c-2.63,2-4,5.51-4,10.37,0,5.16,1.31,8.83,3.89,10.92a7.48,7.48,0,0,0,4.52,1.69h6.54v5.63A4.27,4.27,0,0,0,74.5,96c1.77,1.78,4.93,2.85,9.38,3.22,1.16.1,2.39.16,3.72.16,1.49,0,2.81-.06,4-.16,5.32-.45,7.82-1.79,9-3a3.32,3.32,0,0,0,1.17-2.66l0-7.15H107a8.84,8.84,0,0,0,5.79-1.78c2.63-2,4-5.5,4-10.36C116.78,69.13,115.47,65.45,112.88,63.37Z"/><g class="cls-10"><path class="cls-11" d="M91.73,90.76a1.69,1.69,0,0,0,1.67,1.69h0a1.69,1.69,0,0,0,0-3.38h0A1.69,1.69,0,0,0,91.73,90.76Z"/><path class="cls-11" d="M80.28,56.54a1.7,1.7,0,0,0-.5,1.2,1.66,1.66,0,0,0,.5,1.19,1.67,1.67,0,0,0,1.19.5h0a1.69,1.69,0,0,0,1.69-1.69,1.67,1.67,0,0,0-.49-1.2,1.69,1.69,0,0,0-1.2-.49h0A1.71,1.71,0,0,0,80.28,56.54Z"/><path class="cls-12" d="M75.27,84.82v-5A7.1,7.1,0,0,1,77,75.1a6.12,6.12,0,0,1,4.58-1.71H92.14a6.62,6.62,0,0,0,4.26-1.62,5.21,5.21,0,0,0,1.44-3.87V58.25a3.78,3.78,0,0,0-1-2.77c-1.1-1.27-3.64-2.79-9.52-2.79s-8.41,1.39-9.43,2.56a2.69,2.69,0,0,0-.78,2v4.81H87.75V64H72.4a5.7,5.7,0,0,0-3.77,1.47c-1.88,1.68-2.84,4.62-2.84,8.74,0,4.39.94,7.5,2.79,9.24a4.67,4.67,0,0,0,3.19,1.37Zm6.21-24.95h0a2.13,2.13,0,0,1-2.13-2.13,2.12,2.12,0,0,1,2.13-2.13v.22h0v-.22h0a2.13,2.13,0,0,1,0,4.26Z"/><path class="cls-13" d="M77.35,75.41a5.68,5.68,0,0,1,4.26-1.57H92.14a7,7,0,0,0,4.57-1.75,5.63,5.63,0,0,0,1.57-4.19V58.3a4.2,4.2,0,0,0-1.08-3.1c-1.68-2-5-3-9.87-3-6.13,0-8.7,1.49-9.78,2.73a3.23,3.23,0,0,0-.88,2.33l0,5.21H87.3v1.06H72.7a6,6,0,0,0-4.36,1.56c-2,1.77-3,4.83-3,9.08,0,4.53,1,7.75,2.93,9.57a5.16,5.16,0,0,0,3.41,1.49h4V79.82A6.66,6.66,0,0,1,77.35,75.41Zm-8.77,8c-1.85-1.74-2.79-4.85-2.79-9.24,0-4.12,1-7.06,2.84-8.74A5.7,5.7,0,0,1,72.4,64H87.75V62.07H77.13V57.26a2.69,2.69,0,0,1,.78-2c1-1.17,3.48-2.56,9.43-2.56s8.42,1.52,9.52,2.79a3.78,3.78,0,0,1,1,2.77V67.9a5.21,5.21,0,0,1-1.44,3.87,6.62,6.62,0,0,1-4.26,1.62H81.61A6.12,6.12,0,0,0,77,75.1a7.1,7.1,0,0,0-1.76,4.73v5h-3.5A4.67,4.67,0,0,1,68.58,83.45Z"/><path class="cls-13" d="M81.47,55.61h0v.22h0v-.22a2.12,2.12,0,0,0-2.13,2.13,2.13,2.13,0,0,0,2.13,2.13h0a2.13,2.13,0,1,0,0-4.26Zm0,.44h0a1.69,1.69,0,0,1,1.2.49,1.67,1.67,0,0,1,.49,1.2,1.69,1.69,0,0,1-1.69,1.69h0a1.67,1.67,0,0,1-1.19-.5,1.66,1.66,0,0,1-.5-1.19,1.69,1.69,0,0,1,1.69-1.69Z"/><path class="cls-14" d="M106.32,65.05a4.7,4.7,0,0,0-3.2-1.37h-3.5v5a7.09,7.09,0,0,1-1.76,4.72,6.06,6.06,0,0,1-4.58,1.71H82.74a6.62,6.62,0,0,0-4.25,1.62,5.22,5.22,0,0,0-1.43,3.88v9.65A3.78,3.78,0,0,0,78,93c1.1,1.27,3.64,2.79,9.52,2.79h0c6,0,8.42-1.4,9.44-2.58a2.76,2.76,0,0,0,.77-2v0l0-4.78H87.14v-2h15.09a5.62,5.62,0,0,0,4-1.45c1.88-1.68,2.83-4.63,2.83-8.75C109.1,69.9,108.16,66.79,106.32,65.05ZM93.42,88.63h0a2.14,2.14,0,0,1,1.51.62,2.14,2.14,0,0,1-1.51,3.64h0a2.13,2.13,0,0,1,0-4.26Z"/><path class="cls-13" d="M106.61,64.71a5.1,5.1,0,0,0-3.5-1.48H99.18v5.44a6.76,6.76,0,0,1-1.64,4.42,5.68,5.68,0,0,1-4.26,1.57H82.76a7,7,0,0,0-4.58,1.74,5.67,5.67,0,0,0-1.57,4.2v9.6a4.18,4.18,0,0,0,1.08,3.09c1.69,2,5,3,9.88,3,6.12,0,8.7-1.48,9.78-2.73a3.18,3.18,0,0,0,.87-2.33V86H87.59v-1h14.6a6,6,0,0,0,4.37-1.56c2-1.77,3-4.83,3-9.09C109.54,69.76,108.56,66.54,106.61,64.71Zm-4.38,19.77H87.14v2H97.76l0,4.78v0a2.76,2.76,0,0,1-.77,2c-1,1.18-3.48,2.58-9.44,2.58h0c-5.88,0-8.42-1.52-9.52-2.79a3.78,3.78,0,0,1-1-2.77V80.6a5.22,5.22,0,0,1,1.43-3.88,6.62,6.62,0,0,1,4.25-1.62H93.28a6.06,6.06,0,0,0,4.58-1.71,7.09,7.09,0,0,0,1.76-4.72v-5h3.5a4.7,4.7,0,0,1,3.2,1.37c1.84,1.74,2.78,4.85,2.78,9.23,0,4.12-.95,7.07-2.83,8.75A5.62,5.62,0,0,1,102.23,84.48Z"/><path class="cls-13" d="M93.42,92.89h0a2.13,2.13,0,1,0,0-4.26h0a2.13,2.13,0,0,0,0,4.26Zm0-3.82a1.69,1.69,0,0,1,0,3.38h0a1.69,1.69,0,0,1,0-3.38Z"/></g></g></g></svg>