<svg id="Layer_1" data-name="Layer 1" xmlns="http://www.w3.org/2000/svg" xmlns:xlink="http://www.w3.org/1999/xlink" viewBox="0 0 120 120"><defs><style>.cls-1{fill:url(#linear-gradient);}.cls-2{fill:#004168;}</style><linearGradient id="linear-gradient" x1="58.51" y1="126.92" x2="58.51" gradientUnits="userSpaceOnUse"><stop offset="0" stop-color="#5fc3b9"/><stop offset="1" stop-color="#66d1c6"/></linearGradient></defs><title>Mastering Perl Scripting_Small</title><rect class="cls-1" x="-2.97" width="122.97" height="126.92"/><path class="cls-2" d="M98.25,64.91c.59,0,.87-.38.87-1a22.6,22.6,0,0,0-1.05-7.61c-.26-.74-.27-1.63-.61-2.41s-.22-1.93-.75-2.77c-.06-.08,0-.22,0-.34a17.38,17.38,0,0,0-1-4.88,12,12,0,0,0-3-4.9c-1.06-1.11-2.4-1.92-3.52-3A9.71,9.71,0,0,0,87.62,37a6.41,6.41,0,0,1-1.05-.69c-.4-.43-.36-.31-.92-.65s-.22-.41-.56-.89a4.67,4.67,0,0,0-.42-.53c-1.5-1.41-2.7-3.12-4.15-4.57-.74-.73-1.2-1.72-2.11-2.32s-1-1.43-2.61-1.71c-.1,0-.69-.09-1-.16a5.16,5.16,0,0,0-2.56-.2c-1.27,0-2.74-.25-3.94.41-.63.35-1.09.55-1.92,1a7.64,7.64,0,0,0-1.12.61c-.78.6-1.28.74-2.47,1.6a3.72,3.72,0,0,0-.44.38L58.82,33a2.27,2.27,0,0,0-.4.59,1.09,1.09,0,0,1-1.05.76A4.51,4.51,0,0,0,55,35c-.64.34-1.47.41-2,1-1,1.11-2.52,1.5-3.28,2.93-.35.66-1,1.11-1.44,1.79a7.6,7.6,0,0,0-.51.92,4.28,4.28,0,0,1-3.64,2.85c-.32,0-.57.24-.91.3-1,.17-1.71-.55-2.53-.95-.64-.31-1.1-1-1.89-1-.49-.05-.75-1.43-.43-1.83a1.3,1.3,0,0,0,.08-1.4,1.09,1.09,0,0,1,0-1.13,1,1,0,0,0,.12-.58,2.43,2.43,0,0,1,.21-1.23c.27-.45-.21-.91-.31-1.38a4.37,4.37,0,0,1-.16-.89,2.08,2.08,0,0,0-.23-1C37.34,32,37,30.49,36.24,29.17a4.32,4.32,0,0,0-.57-.79c-.69-.73-.26-1.49-.13-2.24a2,2,0,0,0,0-1.08.71.71,0,0,0-1.15-.37c-.07,0-.11.17-.18.2-.43.19-.63.78-1.05.87s-.54-.63-.91-.85a2.48,2.48,0,0,0-1.62-.44,6.11,6.11,0,0,0-2.85.92,1.14,1.14,0,0,1-.54.24,18,18,0,0,1-3.58.31,4.73,4.73,0,0,0-2.3.54,1.58,1.58,0,0,1-1.13.05,1.29,1.29,0,0,0-1.45.35,4.29,4.29,0,0,0-1.14,3.75.55.55,0,0,0,.17.28,1.44,1.44,0,0,0,.86.46A5.26,5.26,0,0,1,22,32.77a15.83,15.83,0,0,0,3.31,2.07.66.66,0,0,1,.44.8,11.39,11.39,0,0,0,0,3.14,12.4,12.4,0,0,0,.53,2.79,13.9,13.9,0,0,0,.89,1.92c.12.23.28.47.61.43a.21.21,0,0,1,.26.16c0,.83.8,1.27.93,2.05a2.72,2.72,0,0,0,.91,1.32,13.78,13.78,0,0,1,1.42,2.43c.9,1.51,1.64,3.19,3.09,4.25a7.2,7.2,0,0,1,1.29,1.11.55.55,0,0,0,.47.18,1.21,1.21,0,0,1,1.17.41c.28.34.77.18,1.15.31a3.37,3.37,0,0,0,1.62.36c.63-.12,1,.47,1.47.63a7.47,7.47,0,0,0,3,.22c1.35-.13,2.65.38,4,.28a.87.87,0,0,1,.72.41,25.8,25.8,0,0,0,2.07,1.85s0,0,0,0c1.35.26,1.16,1.34,1.13,2.33A21.11,21.11,0,0,0,53,66.63a20.54,20.54,0,0,1,.11,5.42,6.54,6.54,0,0,1-.62,3c-.33.57-.1,1.52-.1,2.3,0,1.76,0,3.53,0,5.29a2.64,2.64,0,0,1-.25,1.23c-.43.87-.31,1.92-.78,2.79a.67.67,0,0,0,0,.6c.58.83.11,1.62-.18,2.34-.16.4,0,.81-.28,1.21a2.71,2.71,0,0,1-1.92.94,3.56,3.56,0,0,0-1.95,1.28c-.41.48-.24,1,.32,1.28a4.57,4.57,0,0,0,2.69.42,11.16,11.16,0,0,0,2.44-.44c.74-.25.45-1,.45-1.59a4.42,4.42,0,0,1-.06-.81c.07-.41.31-.67.72-.54a.83.83,0,0,0,1.14-.83,15.37,15.37,0,0,0,0-1.92,18.72,18.72,0,0,1,.33-4.1,10.09,10.09,0,0,1,.78-3.64A6.1,6.1,0,0,0,57,78.23a4.14,4.14,0,0,1,.59-1.32,1,1,0,0,0-.09-1,3.66,3.66,0,0,1-.22-3.87c.53-1,.61-2.17,1.11-3.19.2-.42.28-.25.4-.06a6.25,6.25,0,0,1,1,2.6A10.05,10.05,0,0,0,61.15,76c1.07,1.72,2,3.53,1.76,5.72a8.79,8.79,0,0,0,.47,2.31A23.65,23.65,0,0,1,64,89.86c0,.53-.16.87-.71.93-.34,0-.56.33-.78.58a7.77,7.77,0,0,0-.71.81c-.22.31-.8.57-.56.95a1.6,1.6,0,0,0,1.3.82,9.69,9.69,0,0,0,2.21-.34c.47-.11.93-.23,1.41-.31a1.31,1.31,0,0,0,1.23-1.49,11.2,11.2,0,0,0,0-1.16A3.35,3.35,0,0,1,68,88.07c.26-.31.15-.48-.08-.68A4,4,0,0,1,66.7,84a11.9,11.9,0,0,0-.58-3.26,8.41,8.41,0,0,1-.62-3.39,18.91,18.91,0,0,0,0-2.61,6.44,6.44,0,0,0-.68-2.93c-.25-.52-.08-1.12-.34-1.68a19.84,19.84,0,0,1-.79-2.55,2.7,2.7,0,0,1,0-1.23c.36-1.89.37-3.82.75-5.71.09-.41.17-.48.59-.44a5,5,0,0,0,3.08-.29.88.88,0,0,1,.51-.06,7.7,7.7,0,0,0,4.15-.67,3.62,3.62,0,0,1,1.33-.33A2.8,2.8,0,0,0,76,58a31.2,31.2,0,0,1,3.11-2.38c.52-.4.58-.12.56.36a17.8,17.8,0,0,0,1,5c.4,1.69,1.16,3.22,1.65,4.86a21.18,21.18,0,0,1,1,2.81c.13.88.53,1.67.64,2.56a14.45,14.45,0,0,0,.73,1.85,5.27,5.27,0,0,1-.1,3.5,33.47,33.47,0,0,0-1.27,4,16.73,16.73,0,0,1-1,2.2,50.26,50.26,0,0,1-2,4.86,11.58,11.58,0,0,1-.66,1,9.3,9.3,0,0,0-1,1.68c-.22.51-.82.47-1.19.55a3.07,3.07,0,0,0-2.11,1.84.53.53,0,0,0,.24.83,2.94,2.94,0,0,0,1.26.32c1.53.07,3-.19,4.57-.25a.61.61,0,0,0,.61-.53c0-.55.42-1,.39-1.56a.92.92,0,0,1,.8-.85,1.12,1.12,0,0,0,1-1.32,6.23,6.23,0,0,1,.69-3.14A5,5,0,0,0,85.11,85a15.26,15.26,0,0,1,.83-2.69c.58-1.47,1.15-3,1.85-4.37a7.42,7.42,0,0,1,1.3-2.11,4.29,4.29,0,0,0,.75-1.8,1.62,1.62,0,0,1,.33-.7.65.65,0,0,0,0-1,2.57,2.57,0,0,1-.59-1.23c-.1-.49-.49-.83-.62-1.36-.23-.88-.42-1.79-.71-2.64-.22-.64,0-1.35-.44-1.92a.39.39,0,0,1,0-.38c.12-.15.22,0,.31.11.74.74,1.51,1.46,2.2,2.25a3.94,3.94,0,0,1,1.21,2.51,10.52,10.52,0,0,0,1,2.88c.44,1.3,1.12,2.54,1.43,3.87s.91,2.85.13,4.31a.35.35,0,0,0-.05.2c.16,1.38-.46,2.72-.26,4.1A5.36,5.36,0,0,1,93.19,88c-.23.53-.22,1.11-.42,1.64-.11.28-.22.51-.47.6a5.57,5.57,0,0,0-3,2.54c-.16.3-.5.3-.67.65-.35.7-.13,1.45.61,1.46a17.21,17.21,0,0,0,5-.38,2.6,2.6,0,0,0,1.58-2.53.82.82,0,0,1,.56-.91,1.21,1.21,0,0,0,.78-1.27c0-1.21,0-2.42,0-3.64,0-.84,0-1.69,0-2.54A12.85,12.85,0,0,1,98,78.82a.37.37,0,0,0,0-.21,13.24,13.24,0,0,1,.33-3.07,10.94,10.94,0,0,1,.42-2.11c.34-1.17-.53-2-1.09-2.86a3.66,3.66,0,0,1-.74-1.79,7.37,7.37,0,0,0-.44-2.26,1.36,1.36,0,0,1,0-.54c0-2.08,0-4.17,0-6.25,0-.26-.21-.77.31-.7a.69.69,0,0,1,.54.88,18.12,18.12,0,0,0-.21,4C97,64.18,97.88,64.91,98.25,64.91ZM79.9,41.18V42h-6v-.78ZM76,45.25h-.78v-.78H76Zm1.21,2.51v.78H74.78v-.78Zm-4-14.47.47-.63L76.82,35,73.63,37.2l-.42-.67,2.3-1.62Zm.94,11.18v.78H66v-.78Zm-.26,3.29v.78h-.78v-.78Zm-3.34,0v.78h-.79v-.78ZM66.89,42v-.78h.78V42Zm1.67,0v-.78h.78V42Zm1.67,0v-.78H71V42Zm1.67,0v-.78h.79V42Zm.22-11.12.7.36-3.88,7.7-.7-.35Zm-4.71,1.77.47.62-2.3,1.62,2.3,1.68-.47.62-3.13-2.3Zm-5.7,8.57H66V42H61.71Zm0,3.29H64.9v.78H61.71Zm3.09,7.37H61.71v-.79H64.8Zm-3.09-3.3v-.78h6.9v.78Zm10.14,3.3H65.79v-.79h6.06Zm.37-3.3h-.79v-.78h.79ZM80,51.84H73v-.79h7Zm0-3.3H78.28v-.78H80Zm0-3.29H77.08v-.78H80Z"/><rect class="cls-2" x="25.79" y="93.5" width="76.64" height="2.05" rx="0.86"/></svg>