<svg xmlns="http://www.w3.org/2000/svg" xmlns:xlink="http://www.w3.org/1999/xlink" viewBox="0 0 120 120"><defs><style>.cls-1,.cls-4{fill:#262e3a;}.cls-2{isolation:isolate;}.cls-3{fill:url(#linear-gradient);}.cls-4{fill-rule:evenodd;}.cls-5{opacity:0.5;mix-blend-mode:screen;}.cls-6{fill:#34c64c;}.cls-7{fill:#60bfbf;}.cls-8{fill:#ee3942;}.cls-9{clip-path:url(#clip-path);}.cls-10{fill:none;}.cls-11{fill:url(#linear-gradient-2);}.cls-12{fill:#fff;}.cls-13{fill:url(#linear-gradient-3);}</style><linearGradient id="linear-gradient" x1="59.29" y1="120" x2="59.29" y2="-1" gradientUnits="userSpaceOnUse"><stop offset="0" stop-color="#387eb8"/><stop offset="1" stop-color="#3e8ccc"/></linearGradient><clipPath id="clip-path"><path class="cls-1" d="M79.7,51.18A5.33,5.33,0,0,0,76.32,50h-3l-1.64-4.09a3.08,3.08,0,0,0-1-2.56c-1.61-1.62-4.78-2.44-9.42-2.45H61c-5.79,0-8.23,1.23-9.26,2.25a2.41,2.41,0,0,0-.84,1.94v5.19H47a6.45,6.45,0,0,0-4.21,1.29c-1.91,1.46-2.88,4-2.88,7.52,0,3.75,1,6.42,2.83,7.93a5.45,5.45,0,0,0,3.29,1.23H50.8v4.08a3.1,3.1,0,0,0,1,2.57c1.28,1.29,3.58,2.06,6.8,2.33.85.07,1.74.12,2.71.12s2,0,2.9-.12c3.86-.32,5.67-1.3,6.52-2.14a2.37,2.37,0,0,0,.84-1.93V67.93h3.83a6.52,6.52,0,0,0,4.21-1.29c1.91-1.47,2.88-4,2.88-7.53C82.53,55.36,81.57,52.7,79.7,51.18Z"/></clipPath><linearGradient id="linear-gradient-2" x1="-3288.68" y1="189.3" x2="-3288.67" y2="189.29" gradientTransform="matrix(1849.27, 0, 0, -1853.39, 6081702.29, 350893.67)" gradientUnits="userSpaceOnUse"><stop offset="0" stop-color="#387eb8"/><stop offset="1" stop-color="#366994"/></linearGradient><linearGradient id="linear-gradient-3" x1="-3289.03" y1="189.63" x2="-3289.02" y2="189.62" gradientTransform="matrix(1849.27, 0, 0, -1853.39, 6082345.77, 351520.99)" gradientUnits="userSpaceOnUse"><stop offset="0" stop-color="#ffe052"/><stop offset="1" stop-color="#ffc331"/></linearGradient></defs><title>PythonScriptingCertification Training_Small</title><g class="cls-2"><g id="Layer_1" data-name="Layer 1"><rect class="cls-3" x="-1.42" y="-1" width="121.42" height="121"/><path class="cls-4" d="M93.31,36.78a1.46,1.46,0,0,0-1.07-.41H27.48q-.68,0-.87.36a1.42,1.42,0,0,0-.41,1.07V80H54a.44.44,0,0,1,.46.36.77.77,0,0,1,.15.2c.17.38.38.57.62.57h9.49c.24,0,.44-.16.61-.46l.21-.41A.43.43,0,0,1,66,80H93.82V37.8A1.37,1.37,0,0,0,93.31,36.78Zm1.43-1.53a3.76,3.76,0,0,1,1.12,2.55V79.49h10a.89.89,0,0,1,1,.87,4.33,4.33,0,0,1-1,3.67c-1,1.13-2.73,1.65-5.15,1.59H19.16l-.26,0q-3.27,0-4.74-1.59a4.57,4.57,0,0,1-1.08-3.67c0-.61.33-.92,1-.92H24.16V37.8A3.93,3.93,0,0,1,25,35.35a3.13,3.13,0,0,1,2.45-1H92.24A3.87,3.87,0,0,1,94.74,35.25ZM91,78.47H29V39.69H91ZM60.6,37.24a.66.66,0,0,1,.3.56.9.9,0,0,1-.3.62.75.75,0,0,1-.62.25.85.85,0,0,1-.86-.87.6.6,0,0,1,.25-.56A.84.84,0,0,1,60,37,.75.75,0,0,1,60.6,37.24Z"/><g class="cls-5"><path class="cls-6" d="M41.18,42.45a.25.25,0,0,1-.24.26H30.45a.25.25,0,0,1-.24-.26h0a.26.26,0,0,1,.24-.27H40.94a.26.26,0,0,1,.24.27Z"/><path class="cls-7" d="M42.55,44.67a.25.25,0,0,1-.24.27H30.45a.26.26,0,0,1-.24-.27h0a.25.25,0,0,1,.24-.26H42.31a.25.25,0,0,1,.24.26Z"/><path class="cls-7" d="M61.24,44.67a.26.26,0,0,1-.24.27H49.13a.25.25,0,0,1-.23-.27h0a.25.25,0,0,1,.23-.26H61a.25.25,0,0,1,.24.26Z"/><path class="cls-7" d="M55.51,46.9a.26.26,0,0,1-.24.27H30.45a.26.26,0,0,1-.24-.27h0a.25.25,0,0,1,.24-.26H55.27a.25.25,0,0,1,.24.26Z"/><path class="cls-7" d="M64.83,42.45a.25.25,0,0,1-.24.26H51.86a.25.25,0,0,1-.24-.26h0a.26.26,0,0,1,.24-.27H64.59a.26.26,0,0,1,.24.27Z"/><path class="cls-8" d="M33.7,49.13a.25.25,0,0,1-.24.27h-3a.26.26,0,0,1-.24-.27h0a.25.25,0,0,1,.24-.26h3a.25.25,0,0,1,.24.26Z"/><path class="cls-8" d="M49.78,42.45a.25.25,0,0,1-.24.26H42.67a.25.25,0,0,1-.24-.26h0a.26.26,0,0,1,.24-.27h6.87a.26.26,0,0,1,.24.27Z"/><path class="cls-8" d="M48,44.68a.25.25,0,0,1-.24.26h-4a.25.25,0,0,1-.24-.26h0a.26.26,0,0,1,.24-.27h4a.26.26,0,0,1,.24.27Z"/><path class="cls-7" d="M36.5,51.36a.26.26,0,0,1-.24.27H30.45a.26.26,0,0,1-.24-.27h0a.25.25,0,0,1,.24-.26h5.81a.25.25,0,0,1,.24.26Z"/><path class="cls-7" d="M53.4,51.36a.26.26,0,0,1-.24.27H38.27a.26.26,0,0,1-.24-.27h0a.25.25,0,0,1,.24-.26H53.16a.25.25,0,0,1,.24.26Z"/><path class="cls-6" d="M44.72,53.59a.24.24,0,0,1-.23.26h-14a.25.25,0,0,1-.24-.26h0a.26.26,0,0,1,.24-.27h14a.25.25,0,0,1,.23.27Z"/><path class="cls-8" d="M38.83,55.82a.25.25,0,0,1-.24.26H30.45a.25.25,0,0,1-.24-.26h0a.26.26,0,0,1,.24-.27h8.14a.26.26,0,0,1,.24.27Z"/><path class="cls-6" d="M48.49,55.82a.25.25,0,0,1-.24.26H40.11a.25.25,0,0,1-.24-.26h0a.26.26,0,0,1,.24-.27h8.14a.26.26,0,0,1,.24.27Z"/><path class="cls-6" d="M63.37,51.36a.26.26,0,0,1-.24.27H55a.26.26,0,0,1-.24-.27h0A.25.25,0,0,1,55,51.1h8.14a.25.25,0,0,1,.24.26Z"/><path class="cls-7" d="M36.5,73.68a.25.25,0,0,1-.24.26H30.45a.25.25,0,0,1-.24-.26h0a.26.26,0,0,1,.24-.27h5.81a.26.26,0,0,1,.24.27Z"/><path class="cls-7" d="M53.4,73.68a.25.25,0,0,1-.24.26H38.27a.25.25,0,0,1-.24-.26h0a.26.26,0,0,1,.24-.27H53.16a.26.26,0,0,1,.24.27Z"/><path class="cls-6" d="M44.72,75.9a.25.25,0,0,1-.23.27h-14a.26.26,0,0,1-.24-.27h0a.25.25,0,0,1,.24-.26h14a.25.25,0,0,1,.23.26Z"/><path class="cls-6" d="M63.37,73.68a.25.25,0,0,1-.24.26H55a.25.25,0,0,1-.24-.26h0a.26.26,0,0,1,.24-.27h8.14a.26.26,0,0,1,.24.27Z"/><path class="cls-7" d="M58.48,58.05a.25.25,0,0,1-.24.26H33.07a.25.25,0,0,1-.24-.26h0a.26.26,0,0,1,.24-.27H58.24a.26.26,0,0,1,.24.27Z"/><path class="cls-8" d="M63.6,58.05a.31.31,0,0,1-.34.26H58.75c-.19,0-.35-.12-.35-.26h0a.32.32,0,0,1,.35-.27h4.51a.31.31,0,0,1,.34.27Z"/><path class="cls-8" d="M37.71,69.19a.25.25,0,0,1-.24.26h-4.4a.25.25,0,0,1-.24-.26h0a.26.26,0,0,1,.24-.27h4.4a.26.26,0,0,1,.24.27Z"/><path class="cls-8" d="M52.06,75.9a.26.26,0,0,1-.24.27h-4.4a.26.26,0,0,1-.24-.27h0a.25.25,0,0,1,.24-.26h4.4a.25.25,0,0,1,.24.26Z"/><path class="cls-8" d="M64.6,75.9a.26.26,0,0,1-.24.27H53.76a.26.26,0,0,1-.24-.27h0a.25.25,0,0,1,.24-.26h10.6a.25.25,0,0,1,.24.26Z"/><path class="cls-7" d="M55.51,60.27a.26.26,0,0,1-.24.27H33.07a.26.26,0,0,1-.24-.27h0a.25.25,0,0,1,.24-.26h22.2a.25.25,0,0,1,.24.26Z"/><path class="cls-6" d="M55.74,62.5a.25.25,0,0,1-.23.27H33.07a.26.26,0,0,1-.24-.27h0a.25.25,0,0,1,.24-.26H55.51a.25.25,0,0,1,.23.26Z"/><path class="cls-8" d="M40.94,64.73a.26.26,0,0,1-.24.27H33.07a.26.26,0,0,1-.24-.27h0a.25.25,0,0,1,.24-.26H40.7a.25.25,0,0,1,.24.26Z"/><path class="cls-7" d="M60.75,64.73a.25.25,0,0,1-.24.27H42.73a.25.25,0,0,1-.24-.27h0a.24.24,0,0,1,.24-.26H60.51a.24.24,0,0,1,.24.26Z"/><path class="cls-7" d="M65.49,67a.26.26,0,0,1-.24.27H33.07a.26.26,0,0,1-.24-.27h0a.26.26,0,0,1,.24-.27H65.25a.26.26,0,0,1,.24.27Z"/><path class="cls-7" d="M67.58,69.19a.25.25,0,0,1-.24.26H39a.25.25,0,0,1-.24-.26h0a.26.26,0,0,1,.24-.27H67.34a.26.26,0,0,1,.24.27Z"/><path class="cls-7" d="M66.67,71.42a.25.25,0,0,1-.24.26H33.07a.25.25,0,0,1-.24-.26h0a.26.26,0,0,1,.24-.27H66.43a.26.26,0,0,1,.24.27Z"/><path class="cls-6" d="M78.82,42.45a.25.25,0,0,0,.24.26H89.55a.25.25,0,0,0,.24-.26h0a.26.26,0,0,0-.24-.27H79.06a.26.26,0,0,0-.24.27Z"/><path class="cls-7" d="M77.45,44.67a.25.25,0,0,0,.24.27H89.55a.26.26,0,0,0,.24-.27h0a.25.25,0,0,0-.24-.26H77.69a.25.25,0,0,0-.24.26Z"/><path class="cls-7" d="M58.76,44.67a.26.26,0,0,0,.24.27H70.86a.25.25,0,0,0,.24-.27h0a.25.25,0,0,0-.24-.26H59a.25.25,0,0,0-.24.26Z"/><path class="cls-7" d="M64.49,46.9a.26.26,0,0,0,.24.27H89.55a.26.26,0,0,0,.24-.27h0a.25.25,0,0,0-.24-.26H64.73a.25.25,0,0,0-.24.26Z"/><path class="cls-7" d="M55.17,42.45a.25.25,0,0,0,.24.26H68.14a.25.25,0,0,0,.24-.26h0a.26.26,0,0,0-.24-.27H55.41a.26.26,0,0,0-.24.27Z"/><path class="cls-8" d="M86.29,49.13a.26.26,0,0,0,.24.27h3a.26.26,0,0,0,.24-.27h0a.25.25,0,0,0-.24-.26h-3a.25.25,0,0,0-.24.26Z"/><path class="cls-8" d="M70.22,42.45a.25.25,0,0,0,.24.26h6.87a.25.25,0,0,0,.24-.26h0a.26.26,0,0,0-.24-.27H70.46a.25.25,0,0,0-.24.27Z"/><path class="cls-8" d="M72,44.68a.25.25,0,0,0,.24.26h4a.25.25,0,0,0,.24-.26h0a.26.26,0,0,0-.24-.27h-4a.26.26,0,0,0-.24.27Z"/><path class="cls-7" d="M83.5,51.36a.25.25,0,0,0,.24.27h5.81a.26.26,0,0,0,.24-.27h0a.25.25,0,0,0-.24-.26H83.74a.24.24,0,0,0-.24.26Z"/><path class="cls-7" d="M66.6,51.36a.26.26,0,0,0,.24.27H81.73a.26.26,0,0,0,.24-.27h0a.25.25,0,0,0-.24-.26H66.84a.25.25,0,0,0-.24.26Z"/><path class="cls-6" d="M75.27,53.59a.25.25,0,0,0,.24.26h14a.25.25,0,0,0,.24-.26h0a.26.26,0,0,0-.24-.27h-14a.26.26,0,0,0-.24.27Z"/><path class="cls-8" d="M81.17,55.82a.25.25,0,0,0,.24.26h8.14a.25.25,0,0,0,.24-.26h0a.26.26,0,0,0-.24-.27H81.41a.25.25,0,0,0-.24.27Z"/><path class="cls-6" d="M71.51,55.82a.25.25,0,0,0,.24.26h8.14a.25.25,0,0,0,.24-.26h0a.26.26,0,0,0-.24-.27H71.75a.26.26,0,0,0-.24.27Z"/><path class="cls-6" d="M56.63,51.36a.26.26,0,0,0,.24.27H65a.26.26,0,0,0,.24-.27h0A.25.25,0,0,0,65,51.1H56.87a.25.25,0,0,0-.24.26Z"/><path class="cls-7" d="M83.5,73.68a.25.25,0,0,0,.24.26h5.81a.25.25,0,0,0,.24-.26h0a.26.26,0,0,0-.24-.27H83.74a.25.25,0,0,0-.24.27Z"/><path class="cls-7" d="M66.6,73.68a.25.25,0,0,0,.24.26H81.73a.25.25,0,0,0,.24-.26h0a.26.26,0,0,0-.24-.27H66.84a.26.26,0,0,0-.24.27Z"/><path class="cls-6" d="M75.27,75.9a.26.26,0,0,0,.24.27h14a.26.26,0,0,0,.24-.27h0a.25.25,0,0,0-.24-.26h-14a.25.25,0,0,0-.24.26Z"/><path class="cls-6" d="M56.63,73.68a.25.25,0,0,0,.24.26H65a.25.25,0,0,0,.24-.26h0a.26.26,0,0,0-.24-.27H56.87a.26.26,0,0,0-.24.27Z"/><path class="cls-8" d="M56.4,58.05a.25.25,0,0,0,.23.26h3.15a.25.25,0,0,0,.24-.26h0a.26.26,0,0,0-.24-.27H56.63a.25.25,0,0,0-.23.27Z"/><path class="cls-8" d="M82.29,69.19a.25.25,0,0,0,.24.26h4.4a.25.25,0,0,0,.24-.26h0a.26.26,0,0,0-.24-.27h-4.4a.26.26,0,0,0-.24.27Z"/><path class="cls-8" d="M67.94,75.9a.26.26,0,0,0,.24.27h4.4a.26.26,0,0,0,.24-.27h0a.25.25,0,0,0-.24-.26h-4.4a.25.25,0,0,0-.24.26Z"/><path class="cls-8" d="M55.4,75.9a.26.26,0,0,0,.24.27h10.6a.26.26,0,0,0,.24-.27h0a.25.25,0,0,0-.24-.26H55.64a.25.25,0,0,0-.24.26Z"/><path class="cls-7" d="M64.49,60.27a.26.26,0,0,0,.24.27h22.2a.26.26,0,0,0,.24-.27h0a.25.25,0,0,0-.24-.26H64.73a.25.25,0,0,0-.24.26Z"/><path class="cls-6" d="M64.26,62.5a.25.25,0,0,0,.23.27H86.93a.26.26,0,0,0,.24-.27h0a.25.25,0,0,0-.24-.26H64.49a.25.25,0,0,0-.23.26Z"/><path class="cls-8" d="M79.06,64.73a.26.26,0,0,0,.24.27h7.63a.26.26,0,0,0,.24-.27h0a.25.25,0,0,0-.24-.26H79.3a.25.25,0,0,0-.24.26Z"/><path class="cls-7" d="M59.25,64.73a.25.25,0,0,0,.24.27H77.27a.25.25,0,0,0,.24-.27h0a.24.24,0,0,0-.24-.26H59.49a.24.24,0,0,0-.24.26Z"/><path class="cls-7" d="M54.51,67a.26.26,0,0,0,.24.27H86.93a.26.26,0,0,0,.24-.27h0a.26.26,0,0,0-.24-.27H54.75a.26.26,0,0,0-.24.27Z"/><path class="cls-7" d="M52.42,69.19a.25.25,0,0,0,.24.26H81.05a.25.25,0,0,0,.24-.26h0a.26.26,0,0,0-.24-.27H52.66a.26.26,0,0,0-.24.27Z"/><path class="cls-7" d="M53.33,71.42a.25.25,0,0,0,.24.26H86.93a.25.25,0,0,0,.24-.26h0a.26.26,0,0,0-.24-.27H53.57a.26.26,0,0,0-.24.27Z"/><path class="cls-7" d="M55.08,58.05a.28.28,0,0,0,.3.26H86.87a.29.29,0,0,0,.3-.26h0a.29.29,0,0,0-.3-.27H55.38a.28.28,0,0,0-.3.27Z"/></g><path class="cls-1" d="M79.7,51.18A5.33,5.33,0,0,0,76.32,50h-3l-1.64-4.09a3.08,3.08,0,0,0-1-2.56c-1.61-1.62-4.78-2.44-9.42-2.45H61c-5.79,0-8.23,1.23-9.26,2.25a2.41,2.41,0,0,0-.84,1.94v5.19H47a6.45,6.45,0,0,0-4.21,1.29c-1.91,1.46-2.88,4-2.88,7.52,0,3.75,1,6.42,2.83,7.93a5.45,5.45,0,0,0,3.29,1.23H50.8v4.08a3.1,3.1,0,0,0,1,2.57c1.28,1.29,3.58,2.06,6.8,2.33.85.07,1.74.12,2.71.12s2,0,2.9-.12c3.86-.32,5.67-1.3,6.52-2.14a2.37,2.37,0,0,0,.84-1.93V67.93h3.83a6.52,6.52,0,0,0,4.21-1.29c1.91-1.47,2.88-4,2.88-7.53C82.53,55.36,81.57,52.7,79.7,51.18Z"/><g class="cls-9"><path class="cls-10" d="M64.35,71.07a1.22,1.22,0,0,0,1.21,1.22h0a1.23,1.23,0,1,0,0-2.45h0A1.22,1.22,0,0,0,64.35,71.07Z"/><path class="cls-10" d="M56,46.23a1.23,1.23,0,0,0-.36.87A1.2,1.2,0,0,0,56,48a1.19,1.19,0,0,0,.87.36h0a1.23,1.23,0,0,0,.87-2.09,1.24,1.24,0,0,0-.87-.36h0A1.23,1.23,0,0,0,56,46.23Z"/><path class="cls-11" d="M52.4,66.75V63.13a5.18,5.18,0,0,1,1.27-3.43A4.46,4.46,0,0,1,57,58.46h7.64a4.78,4.78,0,0,0,3.1-1.18,3.77,3.77,0,0,0,1-2.81v-7a2.72,2.72,0,0,0-.72-2c-.79-.93-2.64-2-6.91-2s-6.11,1-6.85,1.86a1.94,1.94,0,0,0-.56,1.46v3.49h7.7v1.41H50.31a4.21,4.21,0,0,0-2.74,1.07c-1.36,1.22-2,3.35-2,6.34,0,3.19.68,5.45,2,6.71a3.43,3.43,0,0,0,2.32,1Zm4.5-18.11h0a1.54,1.54,0,0,1-1.09-.45,1.5,1.5,0,0,1-.46-1.09,1.54,1.54,0,0,1,1.55-1.55v.16h0v-.16h0A1.54,1.54,0,0,1,58,46a1.5,1.5,0,0,1,.46,1.09A1.55,1.55,0,0,1,56.9,48.64Z"/><path class="cls-12" d="M53.91,59.92A4.14,4.14,0,0,1,57,58.78h7.64A5.06,5.06,0,0,0,68,57.52a4.1,4.1,0,0,0,1.14-3.05v-7a3,3,0,0,0-.78-2.24c-1.23-1.43-3.64-2.15-7.17-2.15-4.45,0-6.32,1.08-7.1,2a2.27,2.27,0,0,0-.63,1.69v3.78h7.71v.77H50.53a4.36,4.36,0,0,0-3.17,1.13c-1.44,1.29-2.17,3.51-2.17,6.59,0,3.29.72,5.63,2.14,7a3.71,3.71,0,0,0,2.47,1.08h2.92V63.13A4.94,4.94,0,0,1,53.91,59.92Zm-6.37,5.84c-1.34-1.26-2-3.52-2-6.71,0-3,.69-5.12,2-6.34a4.21,4.21,0,0,1,2.74-1.07H61.45V50.24h-7.7V46.75a1.94,1.94,0,0,1,.56-1.46c.74-.85,2.53-1.86,6.85-1.86s6.12,1.1,6.91,2a2.72,2.72,0,0,1,.72,2v7a3.77,3.77,0,0,1-1,2.81,4.78,4.78,0,0,1-3.1,1.18H57a4.46,4.46,0,0,0-3.33,1.24,5.18,5.18,0,0,0-1.27,3.43v3.62H49.86A3.43,3.43,0,0,1,47.54,65.76Z"/><path class="cls-12" d="M56.9,45.55h0v.16h0v-.16a1.54,1.54,0,0,0-1.55,1.55,1.5,1.5,0,0,0,.46,1.09,1.54,1.54,0,0,0,1.09.45h0a1.55,1.55,0,0,0,1.55-1.55A1.5,1.5,0,0,0,58,46,1.54,1.54,0,0,0,56.9,45.55Zm0,.32h0a1.24,1.24,0,0,1,.87.36,1.23,1.23,0,0,1-.87,2.09h0A1.19,1.19,0,0,1,56,48a1.2,1.2,0,0,1-.36-.86,1.23,1.23,0,0,1,1.23-1.23Z"/><path class="cls-13" d="M74.93,52.4a3.39,3.39,0,0,0-2.32-1H70.07V55a5.11,5.11,0,0,1-1.27,3.43,4.46,4.46,0,0,1-3.33,1.24H57.82a4.81,4.81,0,0,0-3.09,1.18,3.79,3.79,0,0,0-1,2.81v7a2.72,2.72,0,0,0,.72,2c.8.93,2.64,2,6.91,2h0c4.33,0,6.12-1,6.86-1.87a2,2,0,0,0,.56-1.45V67.92H61V66.51H72a4.13,4.13,0,0,0,2.94-1.05c1.36-1.23,2-3.36,2-6.35C77,55.92,76.27,53.67,74.93,52.4ZM65.57,69.52h0a1.56,1.56,0,0,1,1.1.45,1.55,1.55,0,0,1-1.1,2.64h0a1.55,1.55,0,1,1,0-3.09Z"/><path class="cls-12" d="M75.15,52.16a3.58,3.58,0,0,0-2.55-1.07H69.75V55a4.88,4.88,0,0,1-1.19,3.21,4.1,4.1,0,0,1-3.09,1.14H57.83a5,5,0,0,0-3.32,1.27,4.06,4.06,0,0,0-1.14,3v7a3,3,0,0,0,.79,2.25c1.22,1.42,3.63,2.14,7.16,2.14,4.45,0,6.32-1.07,7.1-2a2.35,2.35,0,0,0,.64-1.69V67.6H61.34v-.77h10.6a4.36,4.36,0,0,0,3.17-1.13c1.44-1.28,2.17-3.5,2.17-6.59C77.28,55.82,76.56,53.49,75.15,52.16ZM72,66.51H61v1.41h7.71v3.49a2,2,0,0,1-.56,1.45c-.74.86-2.53,1.87-6.86,1.87h0c-4.27,0-6.11-1.1-6.91-2a2.72,2.72,0,0,1-.72-2v-7a3.79,3.79,0,0,1,1-2.81,4.81,4.81,0,0,1,3.09-1.18h7.65a4.46,4.46,0,0,0,3.33-1.24A5.11,5.11,0,0,0,70.07,55V51.41h2.54a3.39,3.39,0,0,1,2.32,1c1.34,1.27,2,3.52,2,6.71,0,3-.69,5.12-2,6.35A4.13,4.13,0,0,1,72,66.51Z"/><path class="cls-12" d="M65.57,72.61h0a1.55,1.55,0,1,0,0-3.09h0a1.55,1.55,0,1,0,0,3.09Zm0-2.77a1.23,1.23,0,1,1,0,2.45h0a1.23,1.23,0,0,1,0-2.45Z"/></g></g></g></svg>