<svg xmlns="http://www.w3.org/2000/svg" xmlns:xlink="http://www.w3.org/1999/xlink" viewBox="0 0 520 277"><defs><style>.cls-1{isolation:isolate;}.cls-2{fill:#80a895;}.cls-3{fill:#fff;}.cls-4{opacity:0.4;}.cls-15,.cls-18,.cls-20,.cls-22,.cls-4{mix-blend-mode:multiply;}.cls-5{fill:#e8e8e8;}.cls-6{fill:#d1d1d1;}.cls-7{fill:#b9b9b9;}.cls-8{fill:#a2a2a2;}.cls-9{fill:#8b8b8b;}.cls-10{fill:#747474;}.cls-11{fill:#5d5d5d;}.cls-12{fill:#464646;}.cls-13{fill:#2e2e2e;}.cls-14{fill:#171717;}.cls-15{opacity:0.6;}.cls-16{fill:url(#linear-gradient);}.cls-17{fill:url(#linear-gradient-2);}.cls-18,.cls-19,.cls-20{opacity:0.5;}.cls-18{fill:url(#linear-gradient-3);}.cls-20{fill:url(#linear-gradient-5);}.cls-21{fill:#288c5e;}.cls-22{opacity:0.3;}.cls-23{fill:#f7f7f7;}.cls-24{fill:#efefef;}.cls-25{fill:#e6e6e6;}.cls-26{fill:#dedede;}.cls-27{fill:#d6d6d6;}.cls-28{fill:#cecece;}.cls-29{fill:#c5c5c5;}.cls-30{fill:#bdbdbd;}.cls-31{fill:#b5b5b5;}.cls-32{fill:#adadad;}.cls-33{fill:#a5a5a5;}.cls-34{fill:#9c9c9c;}.cls-35{fill:#949494;}.cls-36{fill:#8c8c8c;}.cls-37{fill:#848484;}.cls-38{fill:#7b7b7b;}.cls-39{fill:#737373;}.cls-40{fill:#6b6b6b;}.cls-41{fill:#636363;}.cls-42{fill:#5a5a5a;}.cls-43{fill:#525252;}.cls-44{fill:#4a4a4a;}.cls-45{fill:#424242;}.cls-46{fill:#3a3a3a;}.cls-47{fill:#313131;}.cls-48{fill:#292929;}.cls-49{fill:#212121;}.cls-50{fill:#191919;}.cls-51{fill:#101010;}.cls-52{fill:#080808;}.cls-53{fill:url(#linear-gradient-7);}.cls-54{fill:url(#linear-gradient-8);}</style><linearGradient id="linear-gradient" x1="30.95" y1="133.8" x2="260.14" y2="133.8" gradientUnits="userSpaceOnUse"><stop offset="0" stop-color="#387eb8"/><stop offset="1" stop-color="#366994"/></linearGradient><linearGradient id="linear-gradient-2" x1="30.07" y1="-40.86" x2="30.16" y2="-40.95" gradientTransform="matrix(1, -0.01, 0.01, 1, 209.86, 177.22)" gradientUnits="userSpaceOnUse"><stop offset="0.26" stop-color="#fff"/><stop offset="0.57" stop-color="#878787"/><stop offset="0.88" stop-color="#777"/></linearGradient><linearGradient id="linear-gradient-3" x1="149.07" y1="152.92" x2="158.66" y2="157.19" gradientUnits="userSpaceOnUse"><stop offset="0.01"/><stop offset="0.93" stop-color="#fff"/></linearGradient><linearGradient id="linear-gradient-5" x1="-2425.38" y1="46.28" x2="-2415.79" y2="50.55" gradientTransform="translate(-2283.3 161.1) rotate(180)" xlink:href="#linear-gradient-3"/><linearGradient id="linear-gradient-7" x1="-1976.44" y1="678.73" x2="-1976.42" y2="678.71" gradientTransform="matrix(1849.27, 0, 0, -1853.39, 3655024.95, 1258052.85)" xlink:href="#linear-gradient"/><linearGradient id="linear-gradient-8" x1="-1976.77" y1="679.05" x2="-1976.75" y2="679.04" gradientTransform="matrix(1849.27, 0, 0, -1853.39, 3655668.82, 1258680.02)" gradientUnits="userSpaceOnUse"><stop offset="0" stop-color="#ffe052"/><stop offset="1" stop-color="#ffc331"/></linearGradient></defs><title>L</title><g class="cls-1"><g id="Layer_1" data-name="Layer 1"><rect class="cls-2" x="-0.5" width="521" height="277"/><path class="cls-3" d="M281.65,160.41a14.75,14.75,0,0,1,4.63.64,8.82,8.82,0,0,1,3.18,1.75,6.85,6.85,0,0,1,1.85,2.65,9.07,9.07,0,0,1,.59,3.29,9.64,9.64,0,0,1-.61,3.5,7.06,7.06,0,0,1-1.87,2.73,8.76,8.76,0,0,1-3.19,1.77,14.55,14.55,0,0,1-4.58.64h-3.08v8.52h-5.92V160.41Zm0,12.51a3.76,3.76,0,0,0,4.34-4.18,4.75,4.75,0,0,0-.26-1.6,3.28,3.28,0,0,0-.8-1.23,3.75,3.75,0,0,0-1.35-.8,6.1,6.1,0,0,0-1.93-.28h-3.08v8.09Z"/><path class="cls-3" d="M306.36,176.21v9.69h-5.92v-9.69l-9.24-15.8h5.22a1.91,1.91,0,0,1,1.22.36,2.93,2.93,0,0,1,.74.91l3.6,7.42c.31.59.58,1.13.83,1.64s.46,1,.64,1.5c.18-.5.38-1,.61-1.52s.49-1,.79-1.62l3.57-7.42q.13-.23.3-.45a2.65,2.65,0,0,1,.41-.41,2.22,2.22,0,0,1,.55-.3,1.78,1.78,0,0,1,.67-.11h5.25Z"/><path class="cls-3" d="M335.92,165.1h-7.18v20.8h-5.91V165.1h-7.18v-4.69h20.27Z"/><path class="cls-3" d="M361.17,160.41V185.9h-5.95V175.12H344.86V185.9h-5.95V160.41h5.95v10.65h10.36V160.41Z"/><path class="cls-3" d="M391.13,173.15a13.59,13.59,0,0,1-1,5.14,12.32,12.32,0,0,1-2.68,4.14,12.49,12.49,0,0,1-4.18,2.76,15.33,15.33,0,0,1-10.84,0,12.53,12.53,0,0,1-4.19-2.76,12.19,12.19,0,0,1-2.69-4.14,14.27,14.27,0,0,1,0-10.29,12.25,12.25,0,0,1,2.69-4.13,12.66,12.66,0,0,1,4.19-2.75,14.38,14.38,0,0,1,5.43-1,14.05,14.05,0,0,1,5.41,1,12.49,12.49,0,0,1,4.18,2.76,12.28,12.28,0,0,1,2.68,4.13A13.61,13.61,0,0,1,391.13,173.15Zm-6.06,0a11,11,0,0,0-.49-3.41,7,7,0,0,0-1.41-2.56,6,6,0,0,0-2.24-1.61,7.83,7.83,0,0,0-3-.56,8,8,0,0,0-3.06.56,6,6,0,0,0-2.25,1.61,7,7,0,0,0-1.41,2.56,12.15,12.15,0,0,0,0,6.83,7,7,0,0,0,1.41,2.56,5.87,5.87,0,0,0,2.25,1.6,8,8,0,0,0,3.06.55,7.83,7.83,0,0,0,3-.55,5.91,5.91,0,0,0,2.24-1.6,7,7,0,0,0,1.41-2.56A11,11,0,0,0,385.07,173.15Z"/><path class="cls-3" d="M416.87,160.41V185.9h-3.08a2.29,2.29,0,0,1-2.06-1l-12-15.2c.05.45.08.89.1,1.32s0,.82,0,1.2V185.9h-5.22V160.41h3.12a5.72,5.72,0,0,1,.64,0,1.69,1.69,0,0,1,.48.13,2,2,0,0,1,.4.27,5.7,5.7,0,0,1,.44.48l12.12,15.31c-.06-.49-.1-1-.12-1.43s0-.89,0-1.3V160.41Z"/><path class="cls-3" d="M295.79,211.15a13.31,13.31,0,0,1-1,5.1,11.9,11.9,0,0,1-2.68,4A12.31,12.31,0,0,1,288,223a14.73,14.73,0,0,1-5.42,1h-9.91V198.41h9.91a14.73,14.73,0,0,1,5.42,1,12.47,12.47,0,0,1,4.17,2.66,11.85,11.85,0,0,1,2.68,4A13.29,13.29,0,0,1,295.79,211.15Zm-6.06,0a11.08,11.08,0,0,0-.49-3.42,7.15,7.15,0,0,0-1.41-2.58,6.18,6.18,0,0,0-2.24-1.62,7.65,7.65,0,0,0-3-.57h-4v16.39h4a7.65,7.65,0,0,0,3-.56,6.2,6.2,0,0,0,2.24-1.63,7.15,7.15,0,0,0,1.41-2.58A11.1,11.1,0,0,0,289.73,211.15Z"/><path class="cls-3" d="M309,214.66a13.16,13.16,0,0,1-.54,3.89,8,8,0,0,1-1.61,3,7.15,7.15,0,0,1-2.7,1.94,9.74,9.74,0,0,1-3.83.69,18.3,18.3,0,0,1-2-.1,17.49,17.49,0,0,1-2-.35l.31-3.45a1.12,1.12,0,0,1,.37-.73,1.28,1.28,0,0,1,.89-.28,3.78,3.78,0,0,1,.74.09,4.56,4.56,0,0,0,1.05.1,4.19,4.19,0,0,0,1.49-.24,2.29,2.29,0,0,0,1.06-.78,3.81,3.81,0,0,0,.63-1.45,9.76,9.76,0,0,0,.21-2.2V198.41H309Z"/><path class="cls-3" d="M336.09,223.9h-4.58a2,2,0,0,1-1.25-.35,2.31,2.31,0,0,1-.71-.92L328,218.18h-9.69l-1.51,4.45a2.18,2.18,0,0,1-.69.88,1.93,1.93,0,0,1-1.23.39H310.3l9.87-25.49h6.05Zm-9.4-9.74-2.36-7c-.17-.44-.36-1-.56-1.56s-.4-1.25-.59-2c-.18.71-.37,1.37-.56,2s-.39,1.14-.56,1.58l-2.35,6.95Z"/><path class="cls-3" d="M360.36,198.41V223.9h-3.08a2.32,2.32,0,0,1-2.06-1l-12-15.2c.05.45.08.89.1,1.32s0,.82,0,1.2V223.9H338.1V198.41h3.12a6,6,0,0,1,.65,0,1.71,1.71,0,0,1,.47.13,2,2,0,0,1,.4.27,5.7,5.7,0,0,1,.44.48l12.13,15.31c-.06-.49-.1-1-.13-1.43s0-.89,0-1.3V198.41Z"/><path class="cls-3" d="M377.55,210.69h9.06v10.76a13.29,13.29,0,0,1-4.17,2.09,16.49,16.49,0,0,1-4.63.64,16.1,16.1,0,0,1-5.73-1,13.2,13.2,0,0,1-4.42-2.73,12.25,12.25,0,0,1-2.84-4.13,13.48,13.48,0,0,1-1-5.19,14.12,14.12,0,0,1,.94-5.24,11.73,11.73,0,0,1,2.71-4.13,12.29,12.29,0,0,1,4.25-2.69,15.39,15.39,0,0,1,5.57-1,15.78,15.78,0,0,1,3,.26,13.78,13.78,0,0,1,2.59.72,11.58,11.58,0,0,1,3.91,2.45l-1.72,2.6a1.67,1.67,0,0,1-1,.76,1.82,1.82,0,0,1-1.37-.32q-.71-.42-1.32-.72a7.12,7.12,0,0,0-1.27-.5,8.3,8.3,0,0,0-1.37-.28,13,13,0,0,0-1.61-.09,7.35,7.35,0,0,0-3,.59,6.45,6.45,0,0,0-2.27,1.65,7.61,7.61,0,0,0-1.44,2.56,10.32,10.32,0,0,0-.51,3.34,10.8,10.8,0,0,0,.56,3.6,7.43,7.43,0,0,0,1.59,2.66,6.7,6.7,0,0,0,2.45,1.66,8.61,8.61,0,0,0,3.15.56,8.24,8.24,0,0,0,1.94-.21,10.14,10.14,0,0,0,1.69-.56V215h-2.52a1.22,1.22,0,0,1-.88-.3,1,1,0,0,1-.31-.75Z"/><path class="cls-3" d="M415.61,211.15a13.78,13.78,0,0,1-.95,5.14,12.21,12.21,0,0,1-6.86,6.9,15.36,15.36,0,0,1-10.85,0,12.53,12.53,0,0,1-4.19-2.76,12.19,12.19,0,0,1-2.69-4.14,14.27,14.27,0,0,1,0-10.29,12.25,12.25,0,0,1,2.69-4.13,12.66,12.66,0,0,1,4.19-2.75,14.42,14.42,0,0,1,5.43-1,14.14,14.14,0,0,1,5.42,1,12.23,12.23,0,0,1,6.86,6.89A13.8,13.8,0,0,1,415.61,211.15Zm-6.06,0a11,11,0,0,0-.49-3.41,7.11,7.11,0,0,0-1.4-2.56,6.16,6.16,0,0,0-2.25-1.61,8.53,8.53,0,0,0-6.08,0,6,6,0,0,0-2.26,1.61,7.28,7.28,0,0,0-1.41,2.56,12.15,12.15,0,0,0,0,6.83,7.28,7.28,0,0,0,1.41,2.56,5.83,5.83,0,0,0,2.26,1.6,8.68,8.68,0,0,0,6.08,0,6,6,0,0,0,2.25-1.6,7.11,7.11,0,0,0,1.4-2.56A11,11,0,0,0,409.55,211.15Z"/><path class="cls-3" d="M280.28,238.2H276.8v10.1h-2.87V238.2h-3.49v-2.28h9.84Z"/><path class="cls-3" d="M291.87,248.3h-2.6a1.11,1.11,0,0,1-1-.54l-2.06-3.59a.88.88,0,0,0-.32-.34,1,1,0,0,0-.51-.11h-.73v4.58h-2.87V235.92h4a8.05,8.05,0,0,1,2.29.28,4.2,4.2,0,0,1,1.54.77,2.92,2.92,0,0,1,.88,1.16,3.91,3.91,0,0,1,.27,1.46,4.24,4.24,0,0,1-.16,1.14,3.5,3.5,0,0,1-.48,1,3.73,3.73,0,0,1-.78.81,4,4,0,0,1-1.06.59,3,3,0,0,1,.52.36,2.24,2.24,0,0,1,.44.52Zm-6.1-6.56a3,3,0,0,0,1-.15,1.62,1.62,0,0,0,.67-.41,1.5,1.5,0,0,0,.38-.61,2.39,2.39,0,0,0,.12-.77,1.58,1.58,0,0,0-.53-1.27,2.43,2.43,0,0,0-1.64-.46h-1.16v3.67Z"/><path class="cls-3" d="M304,248.3H301.8a1,1,0,0,1-.61-.17,1,1,0,0,1-.34-.45l-.74-2.15h-4.7l-.74,2.15a1,1,0,0,1-.33.43.92.92,0,0,1-.6.19H291.5l4.79-12.38h2.94Zm-4.56-4.73-1.15-3.39-.27-.76c-.1-.29-.19-.61-.29-.95a9.33,9.33,0,0,1-.27,1c-.1.3-.19.55-.27.77l-1.14,3.37Z"/><path class="cls-3" d="M307.89,248.3H305V235.92h2.89Z"/><path class="cls-3" d="M321.1,235.92V248.3h-1.49a1.31,1.31,0,0,1-.56-.1,1.47,1.47,0,0,1-.45-.37l-5.84-7.39c0,.22,0,.44.05.64s0,.41,0,.59v6.63h-2.53V235.92h1.51l.32,0a.86.86,0,0,1,.23.06,1.07,1.07,0,0,1,.19.13l.21.23,5.89,7.44q0-.36-.06-.69c0-.23,0-.44,0-.64v-6.55Z"/><path class="cls-3" d="M326.39,248.3H323.5V235.92h2.89Z"/><path class="cls-3" d="M339.6,235.92V248.3h-1.5a1.34,1.34,0,0,1-.56-.1,1.44,1.44,0,0,1-.44-.37l-5.84-7.39c0,.22,0,.44.05.64s0,.41,0,.59v6.63h-2.54V235.92h1.52l.31,0a.77.77,0,0,1,.23.06.86.86,0,0,1,.2.13l.21.23,5.89,7.44q0-.36-.06-.69c0-.23,0-.44,0-.64v-6.55Z"/><path class="cls-3" d="M347.94,241.89h4.41v5.22a6.46,6.46,0,0,1-2,1,8,8,0,0,1-2.25.31,7.69,7.69,0,0,1-2.78-.48,6.35,6.35,0,0,1-2.15-1.33,6,6,0,0,1-1.38-2,6.57,6.57,0,0,1-.48-2.52,6.8,6.8,0,0,1,.46-2.55,5.65,5.65,0,0,1,1.31-2,6,6,0,0,1,2.07-1.31,7.5,7.5,0,0,1,2.7-.47,8.43,8.43,0,0,1,1.46.13,7.34,7.34,0,0,1,1.25.35,5.73,5.73,0,0,1,1.05.53,5.19,5.19,0,0,1,.85.66l-.83,1.27a.77.77,0,0,1-.51.36.84.84,0,0,1-.66-.15c-.23-.14-.45-.25-.65-.35a4.6,4.6,0,0,0-.61-.25,4.53,4.53,0,0,0-.66-.13,6.41,6.41,0,0,0-.79,0,3.54,3.54,0,0,0-1.45.28,3.15,3.15,0,0,0-1.1.8,3.62,3.62,0,0,0-.7,1.25,4.83,4.83,0,0,0-.25,1.62,5.23,5.23,0,0,0,.27,1.75,3.61,3.61,0,0,0,.77,1.29,3.25,3.25,0,0,0,1.19.8,4,4,0,0,0,1.54.28,3.93,3.93,0,0,0,.94-.1,6,6,0,0,0,.82-.27V244h-1.23a.57.57,0,0,1-.42-.15.44.44,0,0,1-.16-.36Z"/><path class="cls-3" d="M369.53,248.3h-2.61a1.78,1.78,0,0,1-.34,0,1.07,1.07,0,0,1-.54-.21l-.26-.24-.53-.56a6.69,6.69,0,0,1-1.76.86,6.5,6.5,0,0,1-2,.31,4.25,4.25,0,0,1-1.45-.25,4.16,4.16,0,0,1-1.26-.73,3.67,3.67,0,0,1-.89-1.14,3.26,3.26,0,0,1-.34-1.51,3.1,3.1,0,0,1,.17-1.06,3.44,3.44,0,0,1,.49-.93,4.31,4.31,0,0,1,.76-.78,4.66,4.66,0,0,1,1-.62,4.4,4.4,0,0,1-.59-1.22,3.93,3.93,0,0,1-.18-1.15,3.36,3.36,0,0,1,.24-1.26,3.06,3.06,0,0,1,.71-1,3.29,3.29,0,0,1,1.14-.71,4.16,4.16,0,0,1,1.55-.27,4,4,0,0,1,1.45.25,3.4,3.4,0,0,1,1.07.63,3,3,0,0,1,.67.92,3.14,3.14,0,0,1,.31,1.06l-1.7.34a.54.54,0,0,1-.66-.36,1.84,1.84,0,0,0-.46-.67,1,1,0,0,0-.68-.23,1.21,1.21,0,0,0-.52.11,1.12,1.12,0,0,0-.59.71,1.36,1.36,0,0,0-.08.49,1.87,1.87,0,0,0,0,.42,1.76,1.76,0,0,0,.13.41,2.16,2.16,0,0,0,.25.43,3.9,3.9,0,0,0,.4.48l3.05,3.23a6.36,6.36,0,0,0,.38-1.06,6.28,6.28,0,0,0,.19-1.15.55.55,0,0,1,.16-.37.49.49,0,0,1,.36-.14h1.67a7.88,7.88,0,0,1-.33,2.32,7.46,7.46,0,0,1-.94,2Zm-8.48-5.49a2.31,2.31,0,0,0-.66.84,2.34,2.34,0,0,0-.2.95,2,2,0,0,0,.13.74,1.65,1.65,0,0,0,.35.57,1.53,1.53,0,0,0,.55.37,1.8,1.8,0,0,0,.71.13,3.62,3.62,0,0,0,1.06-.15,3.83,3.83,0,0,0,.92-.42Z"/><path class="cls-3" d="M383,245.1a.51.51,0,0,1,.2,0,.57.57,0,0,1,.2.13l1.13,1.2a4.65,4.65,0,0,1-1.87,1.47,6.41,6.41,0,0,1-2.66.5,6.34,6.34,0,0,1-2.53-.48,5.39,5.39,0,0,1-1.9-1.33,5.81,5.81,0,0,1-1.19-2,7.4,7.4,0,0,1-.42-2.52,7,7,0,0,1,.45-2.55,5.84,5.84,0,0,1,1.27-2,5.63,5.63,0,0,1,1.95-1.31,6.6,6.6,0,0,1,2.51-.47,6.76,6.76,0,0,1,1.31.13,6,6,0,0,1,1.16.34,5.38,5.38,0,0,1,1,.52,5.31,5.31,0,0,1,.8.66l-1,1.3a.92.92,0,0,1-.22.22.53.53,0,0,1-.36.1.62.62,0,0,1-.29-.07l-.28-.17-.34-.21a4.34,4.34,0,0,0-.43-.21,3.8,3.8,0,0,0-.59-.17,4.54,4.54,0,0,0-.79-.06,3.08,3.08,0,0,0-1.3.26,2.66,2.66,0,0,0-1,.77,3.42,3.42,0,0,0-.66,1.24,5.41,5.41,0,0,0-.24,1.68,5.17,5.17,0,0,0,.26,1.69,3.57,3.57,0,0,0,.71,1.24,2.8,2.8,0,0,0,1,.77,3,3,0,0,0,1.27.27c.26,0,.5,0,.72,0a3.75,3.75,0,0,0,.6-.13,2.53,2.53,0,0,0,.53-.24,3,3,0,0,0,.5-.37.74.74,0,0,1,.22-.14A.54.54,0,0,1,383,245.1Z"/><path class="cls-3" d="M388.63,238.13V241h3.9v2.13h-3.9v2.94h5.09v2.21h-8V235.92h8v2.21Z"/><path class="cls-3" d="M405.62,248.3H403a1.1,1.1,0,0,1-1-.54l-2.06-3.59a1,1,0,0,0-.32-.34,1,1,0,0,0-.51-.11h-.73v4.58h-2.88V235.92h4a8,8,0,0,1,2.29.28,4.17,4.17,0,0,1,1.55.77,2.81,2.81,0,0,1,.87,1.16,4.11,4.11,0,0,1,.11,2.6,3.22,3.22,0,0,1-.47,1,3.73,3.73,0,0,1-.78.81,4.09,4.09,0,0,1-1.07.59,3.1,3.1,0,0,1,.53.36,2.52,2.52,0,0,1,.44.52Zm-6.11-6.56a2.93,2.93,0,0,0,1-.15,1.65,1.65,0,0,0,.68-.41,1.61,1.61,0,0,0,.38-.61,2.39,2.39,0,0,0,.12-.77,1.61,1.61,0,0,0-.53-1.27,2.46,2.46,0,0,0-1.65-.46h-1.15v3.67Z"/><path class="cls-3" d="M415.32,238.2h-3.49v10.1H409V238.2h-3.49v-2.28h9.85Z"/><path class="cls-3" d="M419.66,248.3h-2.89V235.92h2.89Z"/><path class="cls-3" d="M425,238.13v3.14h4.23v2.22H425v4.81h-2.89V235.92h8v2.21Z"/><path class="cls-3" d="M434.58,248.3h-2.89V235.92h2.89Z"/><path class="cls-3" d="M445.32,245.1a.45.45,0,0,1,.2,0,.49.49,0,0,1,.2.13l1.14,1.2a4.68,4.68,0,0,1-1.88,1.47,7.12,7.12,0,0,1-5.19,0,5.35,5.35,0,0,1-1.89-1.33,5.83,5.83,0,0,1-1.2-2,7.4,7.4,0,0,1-.42-2.52,7,7,0,0,1,.46-2.55,6,6,0,0,1,1.26-2,5.77,5.77,0,0,1,2-1.31,6.55,6.55,0,0,1,2.5-.47,6.87,6.87,0,0,1,1.32.13,5.91,5.91,0,0,1,1.15.34,5.47,5.47,0,0,1,1,.52,5.21,5.21,0,0,1,.79.66l-1,1.3a1.2,1.2,0,0,1-.23.22.52.52,0,0,1-.35.1.59.59,0,0,1-.29-.07,3.09,3.09,0,0,1-.29-.17l-.34-.21a3.15,3.15,0,0,0-1-.38,4.42,4.42,0,0,0-.78-.06,3.13,3.13,0,0,0-1.31.26,2.81,2.81,0,0,0-1,.77,3.76,3.76,0,0,0-.66,1.24,5.42,5.42,0,0,0-.23,1.68,5.18,5.18,0,0,0,.25,1.69,3.73,3.73,0,0,0,.71,1.24,3,3,0,0,0,1,.77,3.06,3.06,0,0,0,1.28.27c.26,0,.5,0,.71,0a3.33,3.33,0,0,0,.6-.13,2.32,2.32,0,0,0,.53-.24,2.68,2.68,0,0,0,.5-.37.74.74,0,0,1,.22-.14A.57.57,0,0,1,445.32,245.1Z"/><path class="cls-3" d="M459.23,248.3H457a.93.93,0,0,1-.6-.17,1,1,0,0,1-.35-.45l-.73-2.15h-4.71l-.73,2.15a1.07,1.07,0,0,1-.34.43.92.92,0,0,1-.6.19H446.7l4.79-12.38h2.94Zm-4.57-4.73-1.15-3.39-.27-.76c-.09-.29-.19-.61-.29-.95a9.33,9.33,0,0,1-.27,1c-.09.3-.19.55-.27.77l-1.14,3.37Z"/><path class="cls-3" d="M467.9,238.2h-3.49v10.1h-2.87V238.2h-3.49v-2.28h9.85Z"/><path class="cls-3" d="M472.24,248.3h-2.89V235.92h2.89Z"/><path class="cls-3" d="M486.79,242.11a6.65,6.65,0,0,1-.46,2.5A6,6,0,0,1,483,248a7.47,7.47,0,0,1-5.27,0,6.24,6.24,0,0,1-2-1.34,5.9,5.9,0,0,1-1.3-2,6.88,6.88,0,0,1,0-5,5.9,5.9,0,0,1,1.3-2,6.21,6.21,0,0,1,2-1.33,7.33,7.33,0,0,1,5.27,0,6,6,0,0,1,3.33,3.35A6.6,6.6,0,0,1,486.79,242.11Zm-2.94,0a5.3,5.3,0,0,0-.24-1.65,3.42,3.42,0,0,0-.68-1.25,3,3,0,0,0-1.09-.78,3.78,3.78,0,0,0-1.47-.27,3.88,3.88,0,0,0-1.49.27,2.87,2.87,0,0,0-1.09.78,3.43,3.43,0,0,0-.69,1.25,5.83,5.83,0,0,0,0,3.31,3.61,3.61,0,0,0,.69,1.25,2.85,2.85,0,0,0,1.09.77,3.88,3.88,0,0,0,1.49.27,3.78,3.78,0,0,0,1.47-.27,2.92,2.92,0,0,0,1.09-.77,3.59,3.59,0,0,0,.68-1.25A5.32,5.32,0,0,0,483.85,242.11Z"/><path class="cls-3" d="M499.3,235.92V248.3h-1.5a1.11,1.11,0,0,1-1-.47L491,240.44c0,.22,0,.44,0,.64s0,.41,0,.59v6.63h-2.54V235.92H490l.31,0a.77.77,0,0,1,.23.06,1.13,1.13,0,0,1,.2.13l.21.23,5.89,7.44q0-.36-.06-.69c0-.23,0-.44,0-.64v-6.55Z"/><g class="cls-4"><circle class="cls-3" cx="85.65" cy="143.98" r="69.1" transform="translate(-63.95 219.37) rotate(-86)"/><circle class="cls-5" cx="86.31" cy="143.03" r="69.1" transform="translate(-63.24 217.46) rotate(-85.35)"/><circle class="cls-6" cx="86.97" cy="142.08" r="69.1" transform="translate(-63.16 214.28) rotate(-84.21)"/><circle class="cls-7" cx="87.63" cy="141.14" r="69.1" transform="translate(-64.69 207.44) rotate(-81.69)"/><circle class="cls-8" cx="88.29" cy="140.19" r="69.1" transform="translate(-73.27 103.49) rotate(-45)"/><path class="cls-9" d="M158.05,139.24A69.1,69.1,0,1,1,89,70.15,69.1,69.1,0,0,1,158.05,139.24Z"/><path class="cls-10" d="M158.71,138.3a69.1,69.1,0,1,1-69.1-69.1A69.1,69.1,0,0,1,158.71,138.3Z"/><path class="cls-11" d="M159.37,137.35a69.1,69.1,0,1,1-69.09-69.1A69.1,69.1,0,0,1,159.37,137.35Z"/><path class="cls-12" d="M160,136.4A69.1,69.1,0,1,1,90.94,67.31,69.1,69.1,0,0,1,160,136.4Z"/><path class="cls-13" d="M160.7,135.46a69.1,69.1,0,1,1-69.1-69.1A69.1,69.1,0,0,1,160.7,135.46Z"/><path class="cls-14" d="M161.36,134.51a69.1,69.1,0,1,1-69.1-69.1A69.1,69.1,0,0,1,161.36,134.51Z"/><path d="M162,133.56a69.1,69.1,0,1,1-69.1-69.09A69.1,69.1,0,0,1,162,133.56Z"/></g><g class="cls-4"><circle class="cls-3" cx="188.99" cy="143.98" r="69.1" transform="translate(-5.8 7.95) rotate(-2.37)"/><circle class="cls-5" cx="189.65" cy="143.03" r="69.1" transform="translate(-5.14 7.09) rotate(-2.11)"/><circle class="cls-6" cx="190.31" cy="142.08" r="69.1" transform="translate(-4.52 6.26) rotate(-1.86)"/><circle class="cls-7" cx="190.98" cy="141.14" r="69.1" transform="translate(-3.92 5.46) rotate(-1.62)"/><circle class="cls-8" cx="191.64" cy="140.19" r="69.1" transform="translate(-3.35 4.69) rotate(-1.39)"/><circle class="cls-9" cx="192.3" cy="139.24" r="69.1" transform="translate(-2.8 3.95) rotate(-1.17)"/><circle class="cls-10" cx="192.96" cy="138.3" r="69.1" transform="translate(-2.28 3.24) rotate(-0.96)"/><circle class="cls-11" cx="193.62" cy="137.35" r="69.1" transform="translate(-1.78 2.55) rotate(-0.75)"/><circle class="cls-12" cx="194.28" cy="136.4" r="69.1" transform="translate(-1.31 1.88) rotate(-0.55)"/><circle class="cls-13" cx="194.94" cy="135.46" r="69.1" transform="translate(-0.85 1.23) rotate(-0.36)"/><circle class="cls-14" cx="195.61" cy="134.51" r="69.1" transform="translate(-0.42 0.61) rotate(-0.18)"/><circle cx="196.27" cy="133.56" r="69.1"/></g><path class="cls-3" d="M196.7,63.93A69.71,69.71,0,0,0,145,86.77a69.87,69.87,0,1,0,0,94.05A69.87,69.87,0,1,0,196.7,63.93Z"/><g class="cls-15"><path class="cls-3" d="M145.78,140.55A61.33,61.33,0,1,1,84.45,79.22,61.33,61.33,0,0,1,145.78,140.55Z"/><path class="cls-5" d="M146.46,139.92A61.33,61.33,0,1,1,85.13,78.6,61.33,61.33,0,0,1,146.46,139.92Z"/><path class="cls-6" d="M147.13,139.3A61.33,61.33,0,1,1,85.8,78,61.33,61.33,0,0,1,147.13,139.3Z"/><path class="cls-7" d="M147.8,138.67A61.33,61.33,0,1,1,86.47,77.35,61.33,61.33,0,0,1,147.8,138.67Z"/><circle class="cls-8" cx="87.15" cy="138.05" r="61.33" transform="translate(-59.9 208.96) rotate(-83.48)"/><circle class="cls-9" cx="87.82" cy="137.42" r="61.33" transform="translate(-64.65 195.31) rotate(-78.21)"/><path class="cls-10" d="M149.82,136.8A61.33,61.33,0,1,1,88.49,75.47,61.33,61.33,0,0,1,149.82,136.8Z"/><path class="cls-11" d="M150.49,136.17A61.33,61.33,0,1,1,89.17,74.85,61.32,61.32,0,0,1,150.49,136.17Z"/><path class="cls-12" d="M151.17,135.55A61.33,61.33,0,1,1,89.84,74.22,61.33,61.33,0,0,1,151.17,135.55Z"/><path class="cls-13" d="M151.84,134.92A61.33,61.33,0,1,1,90.51,73.6,61.33,61.33,0,0,1,151.84,134.92Z"/><path class="cls-14" d="M152.51,134.3A61.33,61.33,0,1,1,91.19,73,61.32,61.32,0,0,1,152.51,134.3Z"/><path d="M153.19,133.67A61.33,61.33,0,1,1,91.86,72.35,61.33,61.33,0,0,1,153.19,133.67Z"/></g><g class="cls-15"><path class="cls-3" d="M251.65,140.55a61.33,61.33,0,1,1-61.33-61.33A61.33,61.33,0,0,1,251.65,140.55Z"/><path class="cls-5" d="M252.32,139.92A61.33,61.33,0,1,1,191,78.6,61.33,61.33,0,0,1,252.32,139.92Z"/><path class="cls-6" d="M253,139.3A61.33,61.33,0,1,1,191.67,78,61.33,61.33,0,0,1,253,139.3Z"/><path class="cls-7" d="M253.67,138.67a61.33,61.33,0,1,1-61.33-61.32A61.33,61.33,0,0,1,253.67,138.67Z"/><path class="cls-8" d="M254.34,138.05A61.33,61.33,0,1,1,193,76.72,61.33,61.33,0,0,1,254.34,138.05Z"/><path class="cls-9" d="M255,137.42A61.33,61.33,0,1,1,193.69,76.1,61.33,61.33,0,0,1,255,137.42Z"/><path class="cls-10" d="M255.69,136.8a61.33,61.33,0,1,1-61.33-61.33A61.33,61.33,0,0,1,255.69,136.8Z"/><path class="cls-11" d="M256.36,136.17A61.33,61.33,0,1,1,195,74.85,61.33,61.33,0,0,1,256.36,136.17Z"/><path class="cls-12" d="M257,135.55a61.33,61.33,0,1,1-61.32-61.33A61.32,61.32,0,0,1,257,135.55Z"/><path class="cls-13" d="M257.71,134.92A61.33,61.33,0,1,1,196.38,73.6,61.33,61.33,0,0,1,257.71,134.92Z"/><path class="cls-14" d="M258.38,134.3A61.33,61.33,0,1,1,197.05,73,61.33,61.33,0,0,1,258.38,134.3Z"/><path d="M259.05,133.67a61.33,61.33,0,1,1-61.32-61.32A61.33,61.33,0,0,1,259.05,133.67Z"/></g><path class="cls-3" d="M256.08,133.29A59.89,59.89,0,1,1,196.19,73.4,59.89,59.89,0,0,1,256.08,133.29Z"/><path class="cls-3" d="M151.73,133.29A59.89,59.89,0,1,1,91.84,73.4,59.89,59.89,0,0,1,151.73,133.29Z"/><path class="cls-16" d="M260.11,131.9h-23.5c0,.63.06,1.26.06,1.9a39.69,39.69,0,0,1-79.37.69h0a62.78,62.78,0,0,1-11.73,36,63.17,63.17,0,0,0,114.6-36.68C260.14,133.16,260.13,132.53,260.11,131.9Zm-166-61.28A63.17,63.17,0,0,0,31,131.42c0,.79,0,1.59,0,2.39,0,.31,0,.62,0,.94h23.5c0-.32,0-.63,0-.95a39.69,39.69,0,0,1,79.38-.12,62.9,62.9,0,0,1,11.74-36.57A63.09,63.09,0,0,0,94.11,70.62Z"/><path class="cls-4" d="M42.7,130.67h0l-.08-.06"/><path class="cls-17" d="M239.49,136c.13.08.26.14.4.21Z"/><path class="cls-18" d="M145.54,170.48q1.69,2.37,3.58,4.56c5.85-8.58,9.62-16.61,11.38-25.59a39.71,39.71,0,0,1-3.2-15h0a62.78,62.78,0,0,1-11.73,36"/><g class="cls-19"><path class="cls-18" d="M145.54,170.48q1.69,2.37,3.58,4.56c5.85-8.58,9.62-16.61,11.38-25.59a39.71,39.71,0,0,1-3.2-15h0a62.78,62.78,0,0,1-11.73,36"/></g><path class="cls-20" d="M145.63,97.23c-1.12-1.57-2.31-3.11-3.57-4.57-5.85,8.58-9.68,16.7-11.44,25.68a39.44,39.44,0,0,1,3.21,15h0a62.88,62.88,0,0,1,11.72-36Z"/><g class="cls-19"><path class="cls-20" d="M145.63,97.23c-1.12-1.57-2.31-3.11-3.57-4.57-5.85,8.58-9.68,16.7-11.44,25.68a39.44,39.44,0,0,1,3.21,15h0a62.88,62.88,0,0,1,11.72-36Z"/></g><path class="cls-21" d="M197,70.62a63.17,63.17,0,0,0-63.17,63.06s0,.08,0,.12,0,.08,0,.12c0,.27,0,.55,0,.83h0a39.68,39.68,0,0,1-79.33,0H31a63.17,63.17,0,0,0,126.33-.83v-.24c0-.6,0-1.19,0-1.78h.08a39.68,39.68,0,0,1,79.28,0h23.5A63.17,63.17,0,0,0,197,70.62Z"/><g class="cls-22"><path class="cls-3" d="M84.44,108.78a3,3,0,0,1-3,3h0a3,3,0,0,1-3-3h0a3,3,0,0,1,3-3h0a3,3,0,0,1,3,3Zm-2.77,24.78H98.11s9.23.15,9.23-8.93v-15s1.4-9.08-16.74-9.08c-17.37,0-16.28,7.53-16.28,7.53l0,7.81H90.91v2.34H67.75S56.64,117,56.64,134.49s9.7,16.9,9.7,16.9h5.79v-8.13S71.82,133.56,81.67,133.56Z"/><path class="cls-3" d="M97.25,160.37a3,3,0,0,1,3-3h0a3,3,0,0,1,3,3h0a3,3,0,0,1-3,3h0a3,3,0,0,1-3-3Zm18.09-42.61h-5.78v8.13s.31,9.7-9.55,9.7H83.58s-9.23-.15-9.23,8.93v15s-1.41,9.08,16.74,9.08h0c17.36,0,16.28-7.53,16.28-7.53l0-7.8H90.78v-2.35h23.15S125,152.18,125,134.66,115.34,117.76,115.34,117.76Z"/><path class="cls-23" d="M84.56,108.74a3,3,0,0,1-3,3h0a3,3,0,0,1-3-3h0a3,3,0,0,1,3-3h0a3,3,0,0,1,3,3Zm-2.77,24.78H98.23s9.23.15,9.23-8.93v-15s1.4-9.08-16.74-9.08c-17.37,0-16.28,7.53-16.28,7.53l0,7.8H91v2.35H67.87s-11.11-1.26-11.11,16.26,9.7,16.89,9.7,16.89h5.79v-8.13S71.94,133.52,81.79,133.52Z"/><path class="cls-23" d="M97.36,160.33a3,3,0,0,1,3-3h0a3,3,0,0,1,3,3h0a3,3,0,0,1-3,3h0a3,3,0,0,1-3-3Zm18.1-42.61h-5.78v8.13s.31,9.7-9.55,9.7H83.7s-9.24-.15-9.24,8.92v15s-1.4,9.08,16.75,9.08h0c17.36,0,16.28-7.53,16.28-7.53l0-7.81H90.9v-2.34h23.15s11.11,1.26,11.11-16.26S115.46,117.72,115.46,117.72Z"/><path class="cls-24" d="M84.68,108.7a3,3,0,0,1-3,3h0a3,3,0,0,1-3-3h0a3,3,0,0,1,3-3h0a3,3,0,0,1,3,3Zm-2.77,24.77H98.35s9.23.15,9.23-8.92v-15s1.4-9.08-16.74-9.08c-17.37,0-16.28,7.53-16.28,7.53v7.8H91.14v2.34H68s-11.11-1.26-11.11,16.26,9.7,16.9,9.7,16.9h5.79v-8.13S72.06,133.47,81.91,133.47Z"/><path class="cls-24" d="M97.48,160.29a3,3,0,0,1,3-3h0a3,3,0,0,1,3,3h0a3,3,0,0,1-3,3h0a3,3,0,0,1-3-3Zm18.1-42.61h-5.79v8.13s.32,9.7-9.54,9.7H83.82s-9.24-.15-9.24,8.92v15s-1.4,9.08,16.75,9.08h0c17.36,0,16.28-7.53,16.28-7.53l0-7.8H91v-2.34h23.15s11.11,1.26,11.11-16.26S115.58,117.68,115.58,117.68Z"/><path class="cls-25" d="M84.8,108.66a3,3,0,0,1-3,3h0a3,3,0,0,1-3-3h0a3,3,0,0,1,3-3h0a3,3,0,0,1,3,3ZM82,133.43H98.47s9.23.15,9.23-8.92v-15s1.4-9.08-16.75-9.08c-17.36,0-16.28,7.53-16.28,7.53l0,7.8H91.26v2.34H68.11S57,116.84,57,134.36s9.7,16.9,9.7,16.9h5.79v-8.13S72.18,133.43,82,133.43Z"/><path class="cls-25" d="M97.6,160.24a3,3,0,0,1,3-3h0a3,3,0,0,1,3,3h0a3,3,0,0,1-3,3h0a3,3,0,0,1-3-3Zm18.1-42.6h-5.79v8.13s.32,9.7-9.54,9.7H83.94s-9.24-.15-9.24,8.92v15s-1.4,9.08,16.75,9.08h0c17.36,0,16.28-7.53,16.28-7.53l0-7.8H91.14V150.8h23.15s11.11,1.26,11.11-16.26S115.7,117.64,115.7,117.64Z"/><path class="cls-26" d="M84.92,108.61a3,3,0,0,1-3,3h0a3,3,0,0,1-3-3h0a3,3,0,0,1,3-3h0a3,3,0,0,1,3,3Zm-2.77,24.78H98.58s9.24.15,9.24-8.92v-15s1.4-9.07-16.75-9.07c-17.36,0-16.28,7.53-16.28,7.53l0,7.8H91.38v2.34H68.23s-11.11-1.26-11.11,16.26,9.7,16.9,9.7,16.9h5.79v-8.13S72.29,133.39,82.15,133.39Z"/><path class="cls-26" d="M97.72,160.2a3,3,0,0,1,3-3h0a3,3,0,0,1,3,3h0a3,3,0,0,1-3,3h0a3,3,0,0,1-3-3Zm18.1-42.6H110v8.13s.32,9.69-9.54,9.69H84.06s-9.24-.15-9.24,8.93v15s-1.4,9.08,16.75,9.08h0c17.36,0,16.28-7.53,16.28-7.53l0-7.8H91.26v-2.34h23.15s11.11,1.26,11.11-16.26S115.82,117.6,115.82,117.6Z"/><path class="cls-27" d="M85,108.57a3,3,0,0,1-3,3h0a3,3,0,0,1-3-3h0a3,3,0,0,1,3-3h0a3,3,0,0,1,3,3Zm-2.77,24.78H98.7s9.24.15,9.24-8.93v-15s1.4-9.08-16.75-9.08c-17.36,0-16.28,7.53-16.28,7.53l0,7.8H91.5V118H68.35s-11.11-1.26-11.11,16.26,9.7,16.9,9.7,16.9h5.79v-8.13S72.41,133.35,82.27,133.35Z"/><path class="cls-27" d="M97.84,160.16a3,3,0,0,1,3-3h0a3,3,0,0,1,3,3h0a3,3,0,0,1-3,3h0a3,3,0,0,1-3-3Zm18.1-42.61h-5.79v8.13s.31,9.7-9.54,9.7H84.18s-9.24-.15-9.24,8.93v15s-1.4,9.08,16.75,9.08h0c17.36,0,16.28-7.53,16.28-7.53l0-7.8H91.38v-2.35h23.15s11.11,1.26,11.11-16.26S115.94,117.55,115.94,117.55Z"/><path class="cls-28" d="M85.16,108.53a3,3,0,0,1-3,3h0a3,3,0,0,1-3-3h0a3,3,0,0,1,3-3h0a3,3,0,0,1,3,3Zm-2.77,24.78H98.82s9.24.14,9.24-8.93v-15s1.4-9.08-16.75-9.08C74,100.3,75,107.83,75,107.83l0,7.8H91.62V118H68.47s-11.11-1.26-11.11,16.26,9.7,16.9,9.7,16.9h5.79V143S72.53,133.31,82.39,133.31Z"/><path class="cls-28" d="M98,160.12a3,3,0,0,1,3-3h0a3,3,0,0,1,3,3h0a3,3,0,0,1-3,3h0a3,3,0,0,1-3-3Zm18.1-42.61h-5.79v8.13s.31,9.7-9.54,9.7H84.29s-9.23-.15-9.23,8.92v15s-1.4,9.07,16.75,9.07h0c17.36,0,16.28-7.53,16.28-7.53l0-7.8H91.5v-2.34h23.15s11.11,1.26,11.11-16.26S116.06,117.51,116.06,117.51Z"/><path class="cls-29" d="M85.28,108.49a3,3,0,0,1-3,3h0a3,3,0,0,1-3-3h0a3,3,0,0,1,3-3h0a3,3,0,0,1,3,3Zm-2.77,24.77H98.94s9.24.15,9.24-8.92v-15s1.4-9.08-16.75-9.08c-17.36,0-16.28,7.53-16.28,7.53l0,7.8H91.74v2.34H68.59s-11.11-1.26-11.11,16.26,9.7,16.9,9.7,16.9H73V143S72.65,133.26,82.51,133.26Z"/><path class="cls-29" d="M98.08,160.08a3,3,0,0,1,3-3h0a3,3,0,0,1,3,3h0a3,3,0,0,1-3,3h0a3,3,0,0,1-3-3Zm18.1-42.61h-5.79v8.13s.31,9.7-9.54,9.7H84.41s-9.23-.15-9.23,8.92v15s-1.4,9.08,16.74,9.08h0c17.37,0,16.28-7.53,16.28-7.53V153H91.61v-2.34h23.16s11.11,1.26,11.11-16.26S116.18,117.47,116.18,117.47Z"/><path class="cls-30" d="M85.4,108.44a3,3,0,0,1-3,3h0a3,3,0,0,1-3-3h0a3,3,0,0,1,3-3h0a3,3,0,0,1,3,3Zm-2.77,24.78H99.06s9.24.15,9.24-8.92v-15s1.4-9.08-16.75-9.08c-17.36,0-16.28,7.53-16.28,7.53l0,7.8H91.86v2.34H68.71S57.6,116.63,57.6,134.15s9.7,16.9,9.7,16.9h5.78v-8.13S72.77,133.22,82.63,133.22Z"/><path class="cls-30" d="M98.2,160a3,3,0,0,1,3-3h0a3,3,0,0,1,3,3h0a3,3,0,0,1-3,3h0a3,3,0,0,1-3-3Zm18.1-42.6h-5.79v8.13s.31,9.7-9.54,9.7H84.53s-9.23-.15-9.23,8.92v15s-1.4,9.08,16.74,9.08h0c17.37,0,16.28-7.53,16.28-7.53l0-7.8H91.73v-2.34h23.16S126,151.85,126,134.33,116.3,117.43,116.3,117.43Z"/><path class="cls-31" d="M85.51,108.4a3,3,0,0,1-3,3h0a3,3,0,0,1-3-3h0a3,3,0,0,1,3-3h0a3,3,0,0,1,3,3Zm-2.76,24.78H99.18s9.23.15,9.23-8.92v-15s1.41-9.07-16.74-9.07c-17.36,0-16.28,7.53-16.28,7.53l0,7.8H92v2.34H68.83s-11.11-1.26-11.11,16.26,9.7,16.9,9.7,16.9H73.2v-8.13S72.89,133.18,82.75,133.18Z"/><path class="cls-31" d="M98.32,160a3,3,0,0,1,3-3h0a3,3,0,0,1,3,3h0a3,3,0,0,1-3,3h0a3,3,0,0,1-3-3Zm18.1-42.6h-5.79v8.13s.31,9.69-9.54,9.69H84.65s-9.23-.15-9.23,8.93v15s-1.4,9.08,16.74,9.08h0c17.37,0,16.28-7.53,16.28-7.53l0-7.8H91.85v-2.35H115s11.12,1.26,11.12-16.26S116.42,117.39,116.42,117.39Z"/><path class="cls-32" d="M85.63,108.36a3,3,0,0,1-3,3h0a3,3,0,0,1-3-3h0a3,3,0,0,1,3-3h0a3,3,0,0,1,3,3Zm-2.76,24.78H99.3s9.23.15,9.23-8.93v-15s1.41-9.08-16.74-9.08c-17.36,0-16.28,7.53-16.28,7.53l0,7.8H92.1v2.35H69s-11.11-1.26-11.11,16.26S67.53,151,67.53,151h5.79v-8.13S73,133.14,82.87,133.14Z"/><path class="cls-32" d="M98.44,160a3,3,0,0,1,3-3h0a3,3,0,0,1,3,3h0a3,3,0,0,1-3,3h0a3,3,0,0,1-3-3Zm18.1-42.61h-5.79v8.13s.31,9.7-9.54,9.7H84.77s-9.23-.15-9.23,8.93v15s-1.4,9.08,16.74,9.08h0c17.37,0,16.28-7.53,16.28-7.53l0-7.81H92V150.5h23.15s11.12,1.26,11.12-16.26S116.54,117.34,116.54,117.34Z"/><path class="cls-33" d="M85.75,108.32a3,3,0,0,1-3,3h0a3,3,0,0,1-3-3h0a3,3,0,0,1,3-3h0a3,3,0,0,1,3,3ZM83,133.09H99.42s9.23.15,9.23-8.92v-15s1.41-9.08-16.74-9.08c-17.36,0-16.28,7.53-16.28,7.53l0,7.8H92.22v2.34H69.07S58,116.5,58,134s9.69,16.9,9.69,16.9h5.79v-8.13S73.13,133.09,83,133.09Z"/><path class="cls-33" d="M98.56,159.91a3,3,0,0,1,3-3h0a3,3,0,0,1,3,3h0a3,3,0,0,1-3,3h0a3,3,0,0,1-3-3Zm18.1-42.61h-5.79v8.13s.31,9.7-9.54,9.7H84.89s-9.23-.15-9.23,8.92v15s-1.4,9.08,16.74,9.08h0c17.37,0,16.28-7.53,16.28-7.53l0-7.8H92.09v-2.34h23.15s11.11,1.26,11.11-16.26S116.66,117.3,116.66,117.3Z"/><path class="cls-34" d="M85.87,108.28a3,3,0,0,1-3,3h0a3,3,0,0,1-3-3h0a3,3,0,0,1,3-3h0a3,3,0,0,1,3,3ZM83.1,133.05H99.54s9.23.15,9.23-8.92v-15s1.4-9.08-16.74-9.08c-17.37,0-16.28,7.53-16.28,7.53l0,7.8H92.34v2.34H69.19S58.08,116.46,58.08,134s9.69,16.9,9.69,16.9h5.79v-8.13S73.25,133.05,83.1,133.05Z"/><path class="cls-34" d="M98.68,159.86a3,3,0,0,1,3-3h0a3,3,0,0,1,3,3h0a3,3,0,0,1-3,3h0a3,3,0,0,1-3-3Zm18.1-42.6H111v8.13s.31,9.7-9.55,9.7H85s-9.23-.15-9.23,8.92v15s-1.41,9.08,16.74,9.08h0c17.37,0,16.28-7.53,16.28-7.53l0-7.8H92.21v-2.34h23.15s11.11,1.26,11.11-16.26S116.78,117.26,116.78,117.26Z"/><path class="cls-35" d="M86,108.23a3,3,0,0,1-3,3h0a3,3,0,0,1-3-3h0a3,3,0,0,1,3-3h0a3,3,0,0,1,3,3ZM83.22,133H99.66s9.23.15,9.23-8.92v-15s1.4-9.08-16.74-9.08c-17.37,0-16.28,7.53-16.28,7.53l0,7.8H92.46v2.34H69.31s-11.12-1.26-11.12,16.26,9.7,16.9,9.7,16.9h5.79v-8.13S73.37,133,83.22,133Z"/><path class="cls-35" d="M98.8,159.82a3,3,0,0,1,3-3h0a3,3,0,0,1,3,3h0a3,3,0,0,1-3,3h0a3,3,0,0,1-3-3Zm18.1-42.6h-5.79v8.13s.31,9.69-9.55,9.69H85.13S75.9,134.9,75.9,144v15s-1.41,9.08,16.74,9.08h0c17.36,0,16.28-7.53,16.28-7.53l0-7.8H92.33v-2.34h23.15s11.11,1.26,11.11-16.26S116.9,117.22,116.9,117.22Z"/><path class="cls-36" d="M86.11,108.19a3,3,0,0,1-3,3h0a3,3,0,0,1-3-3h0a3,3,0,0,1,3-3h0a3,3,0,0,1,3,3ZM83.34,133H99.78s9.23.15,9.23-8.93V109s1.4-9.08-16.74-9.08C74.9,100,76,107.49,76,107.49l0,7.81H92.58v2.34H69.43s-11.12-1.26-11.12,16.26S68,150.8,68,150.8H73.8v-8.13S73.49,133,83.34,133Z"/><path class="cls-36" d="M98.92,159.78a3,3,0,0,1,3-3h0a3,3,0,0,1,3,3h0a3,3,0,0,1-3,3h0a3,3,0,0,1-3-3ZM117,117.17h-5.78v8.13s.31,9.7-9.55,9.7H85.25S76,134.85,76,143.93v15S74.61,168,92.76,168h0c17.36,0,16.28-7.53,16.28-7.53l0-7.8H92.45v-2.35H115.6s11.11,1.26,11.11-16.26S117,117.17,117,117.17Z"/><path class="cls-37" d="M86.23,108.15a3,3,0,0,1-3,3h0a3,3,0,0,1-3-3h0a3,3,0,0,1,3-3h0a3,3,0,0,1,3,3Zm-2.77,24.78H99.9s9.23.15,9.23-8.93V109s1.4-9.08-16.74-9.08c-17.37,0-16.28,7.53-16.28,7.53l0,7.8H92.7v2.35H69.54s-11.11-1.26-11.11,16.26,9.7,16.89,9.7,16.89h5.79v-8.13S73.61,132.93,83.46,132.93Z"/><path class="cls-37" d="M99,159.74a3,3,0,0,1,3-3h0a3,3,0,0,1,3,3h0a3,3,0,0,1-3,3h0a3,3,0,0,1-3-3Zm18.1-42.61h-5.78v8.13s.31,9.7-9.55,9.7H85.37s-9.24-.15-9.24,8.92v15S74.73,168,92.88,168h0c17.36,0,16.28-7.53,16.28-7.53l0-7.8H92.57v-2.34h23.15s11.11,1.26,11.11-16.26S117.13,117.13,117.13,117.13Z"/><path class="cls-38" d="M86.35,108.11a3,3,0,0,1-3,3h0a3,3,0,0,1-3-3h0a3,3,0,0,1,3-3h0a3,3,0,0,1,3,3Zm-2.77,24.77H100s9.23.15,9.23-8.92V109s1.4-9.08-16.74-9.08c-17.37,0-16.28,7.53-16.28,7.53l0,7.8H92.81v2.34H69.66s-11.11-1.26-11.11,16.26,9.7,16.9,9.7,16.9H74v-8.13S73.73,132.88,83.58,132.88Z"/><path class="cls-38" d="M99.15,159.7a3,3,0,0,1,3-3h0a3,3,0,0,1,3,3h0a3,3,0,0,1-3,3h0a3,3,0,0,1-3-3Zm18.1-42.61h-5.78v8.13s.31,9.7-9.55,9.7H85.49s-9.24-.15-9.24,8.92v15s-1.4,9.08,16.75,9.08h0c17.36,0,16.28-7.53,16.28-7.53l0-7.8H92.69v-2.34h23.15S127,151.51,127,134,117.25,117.09,117.25,117.09Z"/><path class="cls-39" d="M86.47,108.06a3,3,0,0,1-3,3h0a3,3,0,0,1-3-3h0a3,3,0,0,1,3-3h0a3,3,0,0,1,3,3ZM83.7,132.84h16.44s9.23.15,9.23-8.92v-15s1.4-9.08-16.75-9.08c-17.36,0-16.27,7.53-16.27,7.53v7.8H92.93v2.34H69.78s-11.11-1.26-11.11,16.26,9.7,16.9,9.7,16.9h5.79v-8.13S73.85,132.84,83.7,132.84Z"/><path class="cls-39" d="M99.27,159.65a3,3,0,0,1,3-3h0a3,3,0,0,1,3,3h0a3,3,0,0,1-3,3h0a3,3,0,0,1-3-3Zm18.1-42.6h-5.79v8.13s.32,9.7-9.54,9.7H85.61s-9.24-.15-9.24,8.92v15s-1.4,9.08,16.75,9.08h0c17.36,0,16.28-7.53,16.28-7.53l0-7.8H92.81v-2.34H116s11.11,1.26,11.11-16.26S117.37,117.05,117.37,117.05Z"/><path class="cls-40" d="M86.59,108a3,3,0,0,1-3,3h0a3,3,0,0,1-3-3h0a3,3,0,0,1,3-3h0a3,3,0,0,1,3,3ZM83.82,132.8h16.43s9.24.15,9.24-8.92v-15s1.4-9.07-16.75-9.07c-17.36,0-16.28,7.53-16.28,7.53l0,7.8H93.05v2.34H69.9s-11.11-1.26-11.11,16.26,9.7,16.9,9.7,16.9h5.79V142.5S74,132.8,83.82,132.8Z"/><path class="cls-40" d="M99.39,159.61a3,3,0,0,1,3-3h0a3,3,0,0,1,3,3h0a3,3,0,0,1-3,3h0a3,3,0,0,1-3-3Zm18.1-42.6H111.7v8.13s.32,9.69-9.54,9.69H85.73s-9.24-.15-9.24,8.93v15s-1.4,9.08,16.75,9.08h0c17.36,0,16.28-7.53,16.28-7.53l0-7.8H92.93v-2.34h23.15s11.11,1.26,11.11-16.27S117.49,117,117.49,117Z"/><path class="cls-41" d="M86.71,108a3,3,0,0,1-3,3h0a3,3,0,0,1-3-3h0a3,3,0,0,1,3-3h0a3,3,0,0,1,3,3Zm-2.77,24.78h16.43s9.24.15,9.24-8.93v-15s1.4-9.08-16.75-9.08c-17.36,0-16.28,7.53-16.28,7.53l0,7.8H93.17v2.35H70s-11.11-1.26-11.11,16.26,9.7,16.9,9.7,16.9H74.4v-8.13S74.08,132.76,83.94,132.76Z"/><path class="cls-41" d="M99.51,159.57a3,3,0,0,1,3-3h0a3,3,0,0,1,3,3h0a3,3,0,0,1-3,3h0a3,3,0,0,1-3-3ZM117.61,117h-5.79v8.13s.32,9.7-9.54,9.7H85.85s-9.24-.15-9.24,8.93v15s-1.4,9.08,16.75,9.08h0c17.36,0,16.28-7.53,16.28-7.53l0-7.8H93.05v-2.35H116.2s11.11,1.26,11.11-16.26S117.61,117,117.61,117Z"/><path class="cls-42" d="M86.83,107.94a3,3,0,0,1-3,3h0a3,3,0,0,1-3-3h0a3,3,0,0,1,3-3h0a3,3,0,0,1,3,3Zm-2.77,24.78h16.43s9.24.14,9.24-8.93v-15s1.4-9.08-16.75-9.08c-17.36,0-16.28,7.53-16.28,7.53l0,7.8H93.29v2.34H70.14S59,116.12,59,133.64s9.7,16.9,9.7,16.9h5.79v-8.13S74.2,132.72,84.06,132.72Z"/><path class="cls-42" d="M99.63,159.53a3,3,0,0,1,3-3h0a3,3,0,0,1,3,3h0a3,3,0,0,1-3,3h0a3,3,0,0,1-3-3Zm18.1-42.61h-5.79v8.13s.31,9.7-9.54,9.7H86s-9.23-.15-9.23,8.92v15s-1.4,9.07,16.75,9.07h0c17.36,0,16.28-7.53,16.28-7.53l0-7.8H93.17v-2.34h23.15s11.11,1.26,11.11-16.26S117.73,116.92,117.73,116.92Z"/><path class="cls-43" d="M87,107.9a3,3,0,0,1-3,3h0a3,3,0,0,1-3-3h0a3,3,0,0,1,3-3h0a3,3,0,0,1,3,3Zm-2.77,24.77h16.43s9.24.15,9.24-8.92v-15s1.4-9.08-16.75-9.08c-17.36,0-16.28,7.53-16.28,7.53l0,7.8H93.41v2.34H70.26s-11.11-1.26-11.11,16.26,9.7,16.9,9.7,16.9h5.78v-8.13S74.32,132.67,84.18,132.67Z"/><path class="cls-43" d="M99.75,159.49a3,3,0,0,1,3-3h0a3,3,0,0,1,3,3h0a3,3,0,0,1-3,3h0a3,3,0,0,1-3-3Zm18.1-42.61h-5.79V125s.31,9.7-9.54,9.7H86.08s-9.23-.15-9.23,8.92v15s-1.4,9.08,16.74,9.08h0c17.36,0,16.27-7.53,16.27-7.53v-7.8H93.29V150h23.15s11.11,1.26,11.11-16.26S117.85,116.88,117.85,116.88Z"/><path class="cls-44" d="M87.07,107.85a3,3,0,0,1-3,3h0a3,3,0,0,1-3-3h0a3,3,0,0,1,3-3h0a3,3,0,0,1,3,3ZM84.3,132.63h16.43s9.24.15,9.24-8.92v-15s1.4-9.08-16.75-9.08c-17.36,0-16.28,7.53-16.28,7.53l0,7.8H93.53v2.34H70.38S59.27,116,59.27,133.56s9.7,16.9,9.7,16.9h5.78v-8.13S74.44,132.63,84.3,132.63Z"/><path class="cls-44" d="M99.87,159.44a3,3,0,0,1,3-3h0a3,3,0,0,1,3,3h0a3,3,0,0,1-3,3h0a3,3,0,0,1-3-3Zm18.1-42.6h-5.79V125s.31,9.7-9.54,9.7H86.2S77,134.52,77,143.59v15s-1.4,9.08,16.74,9.08h0c17.37,0,16.28-7.53,16.28-7.53l0-7.8H93.4V150h23.16s11.11,1.26,11.11-16.26S118,116.84,118,116.84Z"/><path class="cls-45" d="M87.18,107.81a3,3,0,0,1-3,3h0a3,3,0,0,1-3-3h0a3,3,0,0,1,3-3h0a3,3,0,0,1,3,3Zm-2.76,24.78h16.43s9.23.15,9.23-8.92v-15s1.41-9.08-16.74-9.08c-17.36,0-16.28,7.53-16.28,7.53l0,7.81H93.65v2.34H70.5S59.39,116,59.39,133.52s9.7,16.9,9.7,16.9h5.78v-8.13S74.56,132.59,84.42,132.59Z"/><path class="cls-45" d="M100,159.4a3,3,0,0,1,3-3h0a3,3,0,0,1,3,3h0a3,3,0,0,1-3,3h0a3,3,0,0,1-3-3Zm18.1-42.61H112.3v8.13s.31,9.7-9.54,9.7H86.32s-9.23-.15-9.23,8.93v15s-1.4,9.08,16.74,9.08h0c17.37,0,16.28-7.53,16.28-7.53l0-7.8H93.52V150h23.16s11.11,1.26,11.11-16.26S118.09,116.79,118.09,116.79Z"/><path class="cls-46" d="M87.3,107.77a3,3,0,0,1-3,3h0a3,3,0,0,1-3-3h0a3,3,0,0,1,3-3h0a3,3,0,0,1,3,3Zm-2.76,24.78H101s9.23.15,9.23-8.93v-15s1.41-9.08-16.74-9.08c-17.36,0-16.28,7.53-16.28,7.53l0,7.8H93.77v2.35H70.62S59.51,116,59.51,133.48s9.7,16.89,9.7,16.89H75v-8.13S74.68,132.55,84.54,132.55Z"/><path class="cls-46" d="M100.11,159.36a3,3,0,0,1,3-3h0a3,3,0,0,1,3,3h0a3,3,0,0,1-3,3h0a3,3,0,0,1-3-3Zm18.1-42.61h-5.79v8.13s.31,9.7-9.54,9.7H86.44s-9.23-.15-9.23,8.92v15s-1.4,9.08,16.74,9.08h0c17.37,0,16.28-7.53,16.28-7.53l0-7.81H93.64v-2.34h23.15s11.12,1.26,11.12-16.26S118.21,116.75,118.21,116.75Z"/><path class="cls-47" d="M87.42,107.73a3,3,0,0,1-3,3h0a3,3,0,0,1-3-3h0a3,3,0,0,1,3-3h0a3,3,0,0,1,3,3ZM84.66,132.5h16.43s9.23.15,9.23-8.92v-15s1.41-9.08-16.74-9.08C76.22,99.5,77.3,107,77.3,107l0,7.8H93.89v2.34H70.74s-11.11-1.26-11.11,16.26,9.69,16.9,9.69,16.9h5.79V142.2S74.8,132.5,84.66,132.5Z"/><path class="cls-47" d="M100.23,159.32a3,3,0,0,1,3-3h0a3,3,0,0,1,3,3h0a3,3,0,0,1-3,3h0a3,3,0,0,1-3-3Zm18.1-42.61h-5.79v8.13s.31,9.7-9.54,9.7H86.56s-9.23-.15-9.23,8.92v15s-1.4,9.08,16.74,9.08h0c17.37,0,16.28-7.53,16.28-7.53l0-7.8H93.76v-2.34h23.15S128,151.13,128,133.61,118.33,116.71,118.33,116.71Z"/><path class="cls-48" d="M87.54,107.69a3,3,0,0,1-3,3h0a3,3,0,0,1-3-3h0a3,3,0,0,1,3-3h0a3,3,0,0,1,3,3Zm-2.77,24.77h16.44s9.23.15,9.23-8.92v-15s1.4-9.08-16.74-9.08c-17.37,0-16.28,7.53-16.28,7.53l0,7.8H94v2.34H70.86s-11.11-1.26-11.11,16.26,9.69,16.9,9.69,16.9h5.79v-8.13S74.92,132.46,84.77,132.46Z"/><path class="cls-48" d="M100.35,159.27a3,3,0,0,1,3-3h0a3,3,0,0,1,3,3h0a3,3,0,0,1-3,3h0a3,3,0,0,1-3-3Zm18.1-42.6h-5.79v8.13s.31,9.7-9.55,9.7H86.68s-9.23-.15-9.23,8.92v15s-1.4,9.08,16.74,9.08h0c17.37,0,16.28-7.53,16.28-7.53l0-7.8H93.88v-2.34H117s11.11,1.26,11.11-16.26S118.45,116.67,118.45,116.67Z"/><path class="cls-49" d="M87.66,107.64a3,3,0,0,1-3,3h0a3,3,0,0,1-3-3h0a3,3,0,0,1,3-3h0a3,3,0,0,1,3,3Zm-2.77,24.78h16.44s9.23.15,9.23-8.92v-15s1.4-9.07-16.74-9.07c-17.37,0-16.28,7.53-16.28,7.53l0,7.8H94.13v2.34H71s-11.11-1.26-11.11,16.26,9.69,16.9,9.69,16.9h5.79v-8.13S75,132.42,84.89,132.42Z"/><path class="cls-49" d="M100.47,159.23a3,3,0,0,1,3-3h0a3,3,0,0,1,3,3h0a3,3,0,0,1-3,3h0a3,3,0,0,1-3-3Zm18.1-42.6h-5.79v8.13s.31,9.69-9.55,9.69H86.8s-9.23-.14-9.23,8.93v15s-1.41,9.08,16.74,9.08h0c17.36,0,16.28-7.53,16.28-7.53l0-7.8H94v-2.34h23.15s11.11,1.26,11.11-16.26S118.57,116.63,118.57,116.63Z"/><path class="cls-50" d="M87.78,107.6a3,3,0,0,1-3,3h0a3,3,0,0,1-3-3h0a3,3,0,0,1,3-3h0a3,3,0,0,1,3,3ZM85,132.38h16.44s9.23.15,9.23-8.93v-15s1.4-9.08-16.74-9.08c-17.37,0-16.28,7.53-16.28,7.53l0,7.81H94.25v2.34H71.1S60,115.79,60,133.31s9.7,16.9,9.7,16.9h5.79v-8.13S75.16,132.38,85,132.38Z"/><path class="cls-50" d="M100.59,159.19a3,3,0,0,1,3-3h0a3,3,0,0,1,3,3h0a3,3,0,0,1-3,3h0a3,3,0,0,1-3-3Zm18.09-42.61H112.9v8.13s.31,9.7-9.55,9.7H86.92s-9.23-.15-9.23,8.93v15s-1.41,9.08,16.74,9.08h0c17.36,0,16.28-7.53,16.28-7.53l0-7.8H94.12v-2.35h23.15s11.11,1.26,11.11-16.26S118.68,116.58,118.68,116.58Z"/><path class="cls-51" d="M87.9,107.56a3,3,0,0,1-3,3h0a3,3,0,0,1-3-3h0a3,3,0,0,1,3-3h0a3,3,0,0,1,3,3Zm-2.77,24.78h16.44s9.23.14,9.23-8.93v-15s1.4-9.08-16.74-9.08c-17.37,0-16.28,7.53-16.28,7.53l0,7.8H94.37V117H71.21S60.1,115.74,60.1,133.26s9.7,16.9,9.7,16.9h5.79V142S75.28,132.34,85.13,132.34Z"/><path class="cls-51" d="M100.71,159.15a3,3,0,0,1,3-3h0a3,3,0,0,1,3,3h0a3,3,0,0,1-3,3h0a3,3,0,0,1-3-3Zm18.09-42.61H113v8.13s.31,9.7-9.55,9.7H87s-9.23-.15-9.23,8.92v15s-1.41,9.07,16.74,9.07h0c17.36,0,16.28-7.53,16.28-7.53l0-7.8H94.24V149.7h23.15S128.5,151,128.5,133.44,118.8,116.54,118.8,116.54Z"/><path class="cls-52" d="M88,107.52a3,3,0,0,1-3,3h0a3,3,0,0,1-3-3h0a3,3,0,0,1,3-3h0a3,3,0,0,1,3,3Zm-2.77,24.77h16.44s9.23.15,9.23-8.92v-15s1.4-9.08-16.74-9.08c-17.37,0-16.28,7.53-16.28,7.53l0,7.8H94.49V117H71.33s-11.11-1.26-11.11,16.26,9.7,16.9,9.7,16.9h5.79V142S75.4,132.29,85.25,132.29Z"/><path class="cls-52" d="M100.82,159.11a3,3,0,0,1,3-3h0a3,3,0,0,1,3,3h0a3,3,0,0,1-3,3h0a3,3,0,0,1-3-3Zm18.1-42.61h-5.78v8.13s.31,9.7-9.55,9.7H87.16s-9.24-.15-9.24,8.92v15s-1.4,9.08,16.75,9.08h0c17.36,0,16.28-7.53,16.28-7.53l0-7.8H94.36v-2.34h23.15s11.11,1.26,11.11-16.26S118.92,116.5,118.92,116.5Z"/><path d="M88.14,107.47a3,3,0,0,1-3,3h0a3,3,0,0,1-3-3h0a3,3,0,0,1,3-3h0a3,3,0,0,1,3,3Zm-2.77,24.78h16.44s9.23.15,9.23-8.92v-15s1.4-9.08-16.75-9.08c-17.36,0-16.27,7.53-16.27,7.53v7.8H94.6v2.34H71.45s-11.11-1.26-11.11,16.26,9.7,16.9,9.7,16.9h5.79V142S75.52,132.25,85.37,132.25Z"/><path d="M100.94,159.06a3,3,0,0,1,3-3h0a3,3,0,0,1,3,3h0a3,3,0,0,1-3,3h0a3,3,0,0,1-3-3Zm18.1-42.6h-5.79v8.13s.32,9.7-9.54,9.7H87.28S78,134.14,78,143.21v15s-1.4,9.08,16.75,9.08h0c17.36,0,16.28-7.53,16.28-7.53l0-7.8H94.48v-2.34h23.15s11.11,1.26,11.11-16.26S119,116.46,119,116.46Z"/></g><path class="cls-53" d="M94.53,99.34c-17.36,0-16.28,7.53-16.28,7.53l0,7.8H94.84V117H71.69s-11.11-1.26-11.11,16.26,9.7,16.9,9.7,16.9h5.79V142s-.32-9.7,9.54-9.7H102s9.24.15,9.24-8.92v-15S112.68,99.34,94.53,99.34Zm-9.13,5.25a3,3,0,0,1,3,3h0a3,3,0,0,1-3,3h0a3,3,0,0,1-3-3h0a3,3,0,0,1,3-3Z"/><path class="cls-3" d="M70.13,150.52a8.05,8.05,0,0,1-5.32-2.31c-3-2.85-4.58-7.88-4.58-14.94,0-6.64,1.57-11.41,4.67-14.17a9.4,9.4,0,0,1,6.81-2.43H94.5V115H77.93l0-8.13a5,5,0,0,1,1.36-3.64C81,101.31,85,99,94.53,99c7.6,0,12.78,1.56,15.41,4.62a6.47,6.47,0,0,1,1.68,4.83v15a8.79,8.79,0,0,1-2.45,6.55,10.84,10.84,0,0,1-7.13,2.72H85.61A8.87,8.87,0,0,0,79,135.14,10.6,10.6,0,0,0,76.41,142v8.49H70.13Zm1.1-33.18a8.93,8.93,0,0,0-5.88,2.29c-2.94,2.62-4.42,7.22-4.42,13.64,0,6.85,1.46,11.7,4.34,14.42a7.36,7.36,0,0,0,5,2.14h5.46V142a11,11,0,0,1,2.74-7.38A9.52,9.52,0,0,1,85.61,132H102s4.06,0,6.65-2.53a8.12,8.12,0,0,0,2.24-6v-15a5.84,5.84,0,0,0-1.53-4.32c-1.72-2-5.69-4.36-14.87-4.36s-13.12,2.17-14.72,4a4.24,4.24,0,0,0-1.21,3.14v.05l0,7.46H95.19v3H71.65A3.75,3.75,0,0,0,71.23,117.34Zm14.17-6.45a3.31,3.31,0,0,1-3.33-3.32,3.33,3.33,0,0,1,3.32-3.33v0h0a3.33,3.33,0,0,1,2.35,1,3.29,3.29,0,0,1,1,2.35,3.33,3.33,0,0,1-3.32,3.33Zm0-6a2.62,2.62,0,0,0-1.86.78,2.58,2.58,0,0,0-.77,1.86,2.63,2.63,0,0,0,2.63,2.63h0a2.64,2.64,0,1,0,0-5.27h0Z"/><path class="cls-54" d="M94.9,167.32c17.37,0,16.28-7.53,16.28-7.53l0-7.8H94.59v-2.34h23.15s11.11,1.26,11.11-16.26-9.69-16.9-9.69-16.9h-5.79v8.13s.31,9.7-9.54,9.7H87.39s-9.23-.15-9.23,8.92v15s-1.4,9.08,16.74,9.08Zm9.14-5.24a3,3,0,0,1-3-3h0a3,3,0,0,1,3-3h0a3,3,0,0,1,3,3h0a3,3,0,0,1-3,3Z"/><path class="cls-3" d="M94.9,167.67c-7.59,0-12.77-1.56-15.4-4.62a6.5,6.5,0,0,1-1.69-4.83v-15a8.84,8.84,0,0,1,2.45-6.55A10.86,10.86,0,0,1,87.4,134h16.43a8.85,8.85,0,0,0,6.64-2.45,10.53,10.53,0,0,0,2.55-6.89v-8.49h6.14a7.91,7.91,0,0,1,5.46,2.31c3,2.85,4.58,7.88,4.58,14.94,0,6.64-1.57,11.41-4.66,14.17a9.37,9.37,0,0,1-6.82,2.43H94.94v1.65h16.57l0,8.13a5,5,0,0,1-1.37,3.64C108.48,165.35,104.47,167.67,94.9,167.67Zm-7.52-33a10.34,10.34,0,0,0-6.64,2.53,8.18,8.18,0,0,0-2.24,6.05V158.3A5.87,5.87,0,0,0,80,162.62c1.71,2,5.69,4.36,14.86,4.36h0c9.31,0,13.15-2.19,14.74-4a4.26,4.26,0,0,0,1.2-3.12v-.05l0-7.45H94.25v-3h23.53a8.83,8.83,0,0,0,6.31-2.26c2.93-2.63,4.42-7.22,4.42-13.65,0-6.85-1.46-11.7-4.35-14.42a7.36,7.36,0,0,0-5-2.14h-5.47v7.78A11,11,0,0,1,111,132a9.5,9.5,0,0,1-7.14,2.66H87.38ZM104,162.42a3.33,3.33,0,0,1,0-6.65h0a3.29,3.29,0,0,1,2.35,1,3.32,3.32,0,0,1-2.35,5.68Zm0-6h0a2.64,2.64,0,0,0,0,5.27h0a2.64,2.64,0,0,0,0-5.27Z"/><path class="cls-21" d="M173.82,133.8a6.6,6.6,0,0,1-.46,2.51,5.6,5.6,0,0,1-3.27,3.26,6.93,6.93,0,0,1-2.58.46h-4.76V127.56h4.76a7.13,7.13,0,0,1,2.58.46,5.9,5.9,0,0,1,2,1.29,5.64,5.64,0,0,1,1.28,2A6.61,6.61,0,0,1,173.82,133.8Zm-2.37,0a5.51,5.51,0,0,0-.28-1.84,3.71,3.71,0,0,0-.78-1.38,3.32,3.32,0,0,0-1.24-.87,4.28,4.28,0,0,0-1.64-.3h-2.43v8.77h2.43a4.28,4.28,0,0,0,1.64-.3,3.41,3.41,0,0,0,1.24-.86,3.88,3.88,0,0,0,.78-1.38A5.6,5.6,0,0,0,171.45,133.8Z"/><path class="cls-21" d="M180.66,135.6a6.49,6.49,0,0,1-.26,1.89,3.82,3.82,0,0,1-.77,1.44,3.39,3.39,0,0,1-1.28.92,4.73,4.73,0,0,1-1.79.32,6.84,6.84,0,0,1-.91-.06,6.74,6.74,0,0,1-.94-.18l.12-1.37a.47.47,0,0,1,.14-.31.51.51,0,0,1,.37-.12,1.69,1.69,0,0,1,.38.06,2.52,2.52,0,0,0,.6.06,2.34,2.34,0,0,0,.87-.14,1.41,1.41,0,0,0,.63-.45,2.19,2.19,0,0,0,.39-.81,5.12,5.12,0,0,0,.13-1.2v-8.09h2.32Z"/><path class="cls-21" d="M193.69,140h-1.8a.77.77,0,0,1-.49-.15.81.81,0,0,1-.28-.38l-.93-2.54H185l-.93,2.54a.86.86,0,0,1-.27.37.77.77,0,0,1-.5.16h-1.8l4.9-12.47h2.37Zm-8.07-4.71h4l-1.52-4.15c-.07-.18-.14-.4-.23-.65s-.16-.52-.24-.81c-.08.29-.16.56-.24.82s-.15.47-.23.66Z"/><path class="cls-21" d="M196.45,127.57a.55.55,0,0,1,.18.06.42.42,0,0,1,.16.11,1.72,1.72,0,0,1,.17.19l6.55,8.34c0-.2,0-.4,0-.59s0-.37,0-.54v-7.58h2V140h-1.2a1,1,0,0,1-.45-.09.92.92,0,0,1-.36-.31l-6.52-8.3c0,.18,0,.37,0,.55s0,.34,0,.49V140h-2V127.56h1.48Z"/><path class="cls-21" d="M213.73,138.32a5.55,5.55,0,0,0,1.37-.14,5.83,5.83,0,0,0,1.11-.39v-2.27h-1.56a.52.52,0,0,1-.36-.12.45.45,0,0,1-.12-.31v-1.31h4.14v5a6.31,6.31,0,0,1-2.08,1,8.91,8.91,0,0,1-1.25.25,12.7,12.7,0,0,1-1.43.08,6.45,6.45,0,0,1-2.51-.48,5.83,5.83,0,0,1-2-1.32,6,6,0,0,1-1.31-2,6.94,6.94,0,0,1-.47-2.56,7.13,7.13,0,0,1,.46-2.58,5.9,5.9,0,0,1,1.3-2,5.82,5.82,0,0,1,2-1.31,7.37,7.37,0,0,1,2.69-.47,6.81,6.81,0,0,1,2.64.46,5.94,5.94,0,0,1,1.89,1.17l-.67,1.06a.59.59,0,0,1-.52.31.82.82,0,0,1-.43-.13l-.56-.33a3.76,3.76,0,0,0-.64-.29,5,5,0,0,0-.78-.19,5.11,5.11,0,0,0-1-.08,4.28,4.28,0,0,0-1.67.31,3.56,3.56,0,0,0-1.27.89,3.89,3.89,0,0,0-.81,1.39,5.42,5.42,0,0,0-.28,1.81,5.67,5.67,0,0,0,.3,1.91,4,4,0,0,0,.84,1.42,3.68,3.68,0,0,0,1.3.89A4.34,4.34,0,0,0,213.73,138.32Z"/><path class="cls-21" d="M232.44,133.8a6.94,6.94,0,0,1-.46,2.53,6,6,0,0,1-1.28,2,5.89,5.89,0,0,1-2,1.33,6.66,6.66,0,0,1-2.58.48,6.74,6.74,0,0,1-2.58-.48,5.89,5.89,0,0,1-2-1.33,6.18,6.18,0,0,1-1.29-2,7.37,7.37,0,0,1,0-5.07,6.18,6.18,0,0,1,1.29-2,6,6,0,0,1,2-1.33,6.74,6.74,0,0,1,2.58-.48,6.49,6.49,0,0,1,2.58.49,5.89,5.89,0,0,1,2,1.33,6,6,0,0,1,1.28,2A7,7,0,0,1,232.44,133.8Zm-2.38,0a5.79,5.79,0,0,0-.27-1.84,4,4,0,0,0-.79-1.39,3.28,3.28,0,0,0-1.23-.87,4.66,4.66,0,0,0-3.29,0,3.36,3.36,0,0,0-1.25.87,4,4,0,0,0-.79,1.39,5.79,5.79,0,0,0-.27,1.84,5.88,5.88,0,0,0,.27,1.84,4.06,4.06,0,0,0,.79,1.38,3.45,3.45,0,0,0,1.25.86,4.66,4.66,0,0,0,3.29,0A3.37,3.37,0,0,0,229,137a4.06,4.06,0,0,0,.79-1.38A5.88,5.88,0,0,0,230.06,133.8Z"/></g></g></svg>