<svg xmlns="http://www.w3.org/2000/svg" xmlns:xlink="http://www.w3.org/1999/xlink" viewBox="0 0 355 189.11"><defs><style>.cls-1{isolation:isolate;}.cls-2{fill:#e27a3f;}.cls-3{fill:#ffebde;}.cls-4{opacity:0.1;fill:url(#radial-gradient);}.cls-5{fill:#fc9;}.cls-6{fill:#fff;}.cls-7{opacity:0.2;mix-blend-mode:multiply;}.cls-10,.cls-100,.cls-101,.cls-102,.cls-103,.cls-104,.cls-105,.cls-106,.cls-107,.cls-108,.cls-109,.cls-11,.cls-110,.cls-111,.cls-112,.cls-113,.cls-114,.cls-115,.cls-116,.cls-117,.cls-118,.cls-119,.cls-12,.cls-120,.cls-121,.cls-122,.cls-123,.cls-124,.cls-125,.cls-126,.cls-127,.cls-128,.cls-129,.cls-13,.cls-130,.cls-131,.cls-132,.cls-133,.cls-134,.cls-135,.cls-136,.cls-137,.cls-138,.cls-139,.cls-14,.cls-140,.cls-141,.cls-142,.cls-143,.cls-144,.cls-145,.cls-146,.cls-147,.cls-148,.cls-149,.cls-15,.cls-150,.cls-151,.cls-152,.cls-153,.cls-154,.cls-155,.cls-156,.cls-157,.cls-158,.cls-159,.cls-16,.cls-160,.cls-161,.cls-162,.cls-163,.cls-164,.cls-165,.cls-166,.cls-167,.cls-168,.cls-169,.cls-17,.cls-170,.cls-171,.cls-172,.cls-173,.cls-174,.cls-175,.cls-176,.cls-177,.cls-178,.cls-179,.cls-18,.cls-180,.cls-181,.cls-182,.cls-183,.cls-184,.cls-185,.cls-186,.cls-187,.cls-188,.cls-189,.cls-19,.cls-190,.cls-191,.cls-192,.cls-193,.cls-194,.cls-195,.cls-196,.cls-197,.cls-198,.cls-199,.cls-20,.cls-200,.cls-201,.cls-202,.cls-203,.cls-204,.cls-205,.cls-206,.cls-207,.cls-208,.cls-209,.cls-21,.cls-210,.cls-211,.cls-212,.cls-213,.cls-214,.cls-215,.cls-216,.cls-217,.cls-218,.cls-219,.cls-22,.cls-220,.cls-221,.cls-222,.cls-223,.cls-224,.cls-225,.cls-226,.cls-227,.cls-228,.cls-229,.cls-23,.cls-230,.cls-231,.cls-232,.cls-233,.cls-234,.cls-235,.cls-236,.cls-237,.cls-238,.cls-239,.cls-24,.cls-240,.cls-241,.cls-242,.cls-243,.cls-244,.cls-245,.cls-246,.cls-247,.cls-248,.cls-249,.cls-25,.cls-250,.cls-251,.cls-252,.cls-253,.cls-254,.cls-255,.cls-256,.cls-257,.cls-258,.cls-259,.cls-26,.cls-260,.cls-261,.cls-262,.cls-263,.cls-264,.cls-265,.cls-266,.cls-267,.cls-268,.cls-269,.cls-27,.cls-270,.cls-271,.cls-272,.cls-273,.cls-274,.cls-275,.cls-276,.cls-277,.cls-278,.cls-279,.cls-28,.cls-280,.cls-281,.cls-282,.cls-283,.cls-284,.cls-285,.cls-286,.cls-287,.cls-288,.cls-289,.cls-29,.cls-290,.cls-291,.cls-292,.cls-293,.cls-294,.cls-295,.cls-296,.cls-297,.cls-298,.cls-299,.cls-30,.cls-300,.cls-301,.cls-302,.cls-303,.cls-304,.cls-305,.cls-306,.cls-307,.cls-308,.cls-309,.cls-31,.cls-32,.cls-33,.cls-34,.cls-35,.cls-36,.cls-37,.cls-38,.cls-39,.cls-40,.cls-41,.cls-42,.cls-43,.cls-44,.cls-45,.cls-46,.cls-47,.cls-48,.cls-49,.cls-50,.cls-51,.cls-52,.cls-53,.cls-54,.cls-55,.cls-56,.cls-57,.cls-58,.cls-59,.cls-60,.cls-61,.cls-62,.cls-63,.cls-64,.cls-65,.cls-66,.cls-67,.cls-68,.cls-69,.cls-70,.cls-71,.cls-72,.cls-73,.cls-74,.cls-75,.cls-76,.cls-77,.cls-78,.cls-79,.cls-8,.cls-80,.cls-81,.cls-82,.cls-83,.cls-84,.cls-85,.cls-86,.cls-87,.cls-88,.cls-89,.cls-9,.cls-90,.cls-91,.cls-92,.cls-93,.cls-94,.cls-95,.cls-96,.cls-97,.cls-98,.cls-99{fill:none;stroke-miterlimit:10;}.cls-8{stroke:#000;stroke-width:0.2px;}.cls-9{stroke:#010101;stroke-width:0.2px;}.cls-10{stroke:#020202;stroke-width:0.2px;}.cls-11,.cls-12{stroke:#030303;}.cls-11{stroke-width:0.2px;}.cls-12{stroke-width:0.2px;}.cls-13{stroke:#040404;stroke-width:0.2px;}.cls-14{stroke:#050505;stroke-width:0.21px;}.cls-15{stroke:#060606;stroke-width:0.21px;}.cls-16{stroke:#070707;stroke-width:0.21px;}.cls-17,.cls-18{stroke:#080808;}.cls-17{stroke-width:0.21px;}.cls-18{stroke-width:0.21px;}.cls-19{stroke:#090909;stroke-width:0.21px;}.cls-20{stroke:#0a0a0a;stroke-width:0.21px;}.cls-21{stroke:#0b0b0b;stroke-width:0.21px;}.cls-22{stroke:#0c0c0c;stroke-width:0.21px;}.cls-23{stroke:#0d0d0d;stroke-width:0.21px;}.cls-24,.cls-25{stroke:#0e0e0e;}.cls-24{stroke-width:0.22px;}.cls-25{stroke-width:0.22px;}.cls-26{stroke:#0f0f0f;stroke-width:0.22px;}.cls-27{stroke:#101010;stroke-width:0.22px;}.cls-28{stroke:#111;stroke-width:0.22px;}.cls-29{stroke:#121212;stroke-width:0.22px;}.cls-30,.cls-31{stroke:#131313;}.cls-30{stroke-width:0.22px;}.cls-31{stroke-width:0.22px;}.cls-32{stroke:#141414;stroke-width:0.22px;}.cls-33{stroke:#151515;stroke-width:0.22px;}.cls-34{stroke:#161616;stroke-width:0.23px;}.cls-35{stroke:#171717;stroke-width:0.23px;}.cls-36{stroke:#181818;stroke-width:0.23px;}.cls-37,.cls-38{stroke:#191919;}.cls-37{stroke-width:0.23px;}.cls-38{stroke-width:0.23px;}.cls-39{stroke:#1a1a1a;stroke-width:0.23px;}.cls-40{stroke:#1b1b1b;stroke-width:0.23px;}.cls-41{stroke:#1c1c1c;stroke-width:0.23px;}.cls-42{stroke:#1d1d1d;stroke-width:0.23px;}.cls-43,.cls-44{stroke:#1e1e1e;}.cls-43{stroke-width:0.23px;}.cls-44{stroke-width:0.24px;}.cls-45{stroke:#1f1f1f;stroke-width:0.24px;}.cls-46{stroke:#202020;stroke-width:0.24px;}.cls-47{stroke:#212121;stroke-width:0.24px;}.cls-48{stroke:#222;stroke-width:0.24px;}.cls-49{stroke:#232323;stroke-width:0.24px;}.cls-50,.cls-51{stroke:#242424;}.cls-50{stroke-width:0.24px;}.cls-51{stroke-width:0.24px;}.cls-52{stroke:#252525;stroke-width:0.24px;}.cls-53{stroke:#262626;stroke-width:0.24px;}.cls-54{stroke:#272727;stroke-width:0.25px;}.cls-55{stroke:#282828;stroke-width:0.25px;}.cls-56{stroke:#292929;stroke-width:0.25px;}.cls-57,.cls-58{stroke:#2a2a2a;}.cls-57{stroke-width:0.25px;}.cls-58{stroke-width:0.25px;}.cls-59{stroke:#2b2b2b;stroke-width:0.25px;}.cls-60{stroke:#2c2c2c;stroke-width:0.25px;}.cls-61{stroke:#2d2d2d;stroke-width:0.25px;}.cls-62{stroke:#2e2e2e;stroke-width:0.25px;}.cls-63,.cls-64{stroke:#2f2f2f;}.cls-63{stroke-width:0.25px;}.cls-64{stroke-width:0.26px;}.cls-65{stroke:#303030;stroke-width:0.26px;}.cls-66{stroke:#313131;stroke-width:0.26px;}.cls-67{stroke:#323232;stroke-width:0.26px;}.cls-68{stroke:#333;stroke-width:0.26px;}.cls-69{stroke:#343434;stroke-width:0.26px;}.cls-70,.cls-71{stroke:#353535;}.cls-70{stroke-width:0.26px;}.cls-71{stroke-width:0.26px;}.cls-72{stroke:#363636;stroke-width:0.26px;}.cls-73{stroke:#373737;stroke-width:0.26px;}.cls-74{stroke:#383838;stroke-width:0.27px;}.cls-75{stroke:#393939;stroke-width:0.27px;}.cls-76,.cls-77{stroke:#3a3a3a;}.cls-76{stroke-width:0.27px;}.cls-77{stroke-width:0.27px;}.cls-78{stroke:#3b3b3b;stroke-width:0.27px;}.cls-79{stroke:#3c3c3c;stroke-width:0.27px;}.cls-80{stroke:#3d3d3d;stroke-width:0.27px;}.cls-81{stroke:#3e3e3e;stroke-width:0.27px;}.cls-82{stroke:#3f3f3f;stroke-width:0.27px;}.cls-83,.cls-84{stroke:#404040;}.cls-83{stroke-width:0.27px;}.cls-84{stroke-width:0.28px;}.cls-85{stroke:#414141;stroke-width:0.28px;}.cls-86{stroke:#424242;stroke-width:0.28px;}.cls-87{stroke:#434343;stroke-width:0.28px;}.cls-88{stroke:#444;stroke-width:0.28px;}.cls-89,.cls-90{stroke:#454545;}.cls-89{stroke-width:0.28px;}.cls-90{stroke-width:0.28px;}.cls-91{stroke:#464646;stroke-width:0.28px;}.cls-92{stroke:#474747;stroke-width:0.28px;}.cls-93{stroke:#484848;stroke-width:0.28px;}.cls-94{stroke:#494949;stroke-width:0.29px;}.cls-95{stroke:#4a4a4a;stroke-width:0.29px;}.cls-96,.cls-97{stroke:#4b4b4b;}.cls-96{stroke-width:0.29px;}.cls-97{stroke-width:0.29px;}.cls-98{stroke:#4c4c4c;stroke-width:0.29px;}.cls-99{stroke:#4d4d4d;stroke-width:0.29px;}.cls-100{stroke:#4e4e4e;stroke-width:0.29px;}.cls-101{stroke:#4f4f4f;stroke-width:0.29px;}.cls-102,.cls-103{stroke:#505050;}.cls-102{stroke-width:0.29px;}.cls-103{stroke-width:0.29px;}.cls-104{stroke:#515151;stroke-width:0.3px;}.cls-105{stroke:#525252;stroke-width:0.3px;}.cls-106{stroke:#535353;stroke-width:0.3px;}.cls-107{stroke:#545454;stroke-width:0.3px;}.cls-108{stroke:#555;stroke-width:0.3px;}.cls-109,.cls-110{stroke:#565656;}.cls-109{stroke-width:0.3px;}.cls-110{stroke-width:0.3px;}.cls-111{stroke:#575757;stroke-width:0.3px;}.cls-112{stroke:#585858;stroke-width:0.3px;}.cls-113{stroke:#595959;stroke-width:0.3px;}.cls-114{stroke:#5a5a5a;stroke-width:0.31px;}.cls-115,.cls-116{stroke:#5b5b5b;}.cls-115{stroke-width:0.31px;}.cls-116{stroke-width:0.31px;}.cls-117{stroke:#5c5c5c;stroke-width:0.31px;}.cls-118{stroke:#5d5d5d;stroke-width:0.31px;}.cls-119{stroke:#5e5e5e;stroke-width:0.31px;}.cls-120{stroke:#5f5f5f;stroke-width:0.31px;}.cls-121{stroke:#606060;stroke-width:0.31px;}.cls-122,.cls-123{stroke:#616161;}.cls-122{stroke-width:0.31px;}.cls-123{stroke-width:0.31px;}.cls-124{stroke:#626262;stroke-width:0.32px;}.cls-125{stroke:#636363;stroke-width:0.32px;}.cls-126{stroke:#646464;stroke-width:0.32px;}.cls-127{stroke:#656565;stroke-width:0.32px;}.cls-128{stroke:#666;stroke-width:0.32px;}.cls-129,.cls-130{stroke:#676767;}.cls-129{stroke-width:0.32px;}.cls-130{stroke-width:0.32px;}.cls-131{stroke:#686868;stroke-width:0.32px;}.cls-132{stroke:#696969;stroke-width:0.32px;}.cls-133{stroke:#6a6a6a;stroke-width:0.32px;}.cls-134{stroke:#6b6b6b;stroke-width:0.33px;}.cls-135,.cls-136{stroke:#6c6c6c;}.cls-135{stroke-width:0.33px;}.cls-136{stroke-width:0.33px;}.cls-137{stroke:#6d6d6d;stroke-width:0.33px;}.cls-138{stroke:#6e6e6e;stroke-width:0.33px;}.cls-139{stroke:#6f6f6f;stroke-width:0.33px;}.cls-140{stroke:#707070;stroke-width:0.33px;}.cls-141{stroke:#717171;stroke-width:0.33px;}.cls-142,.cls-143{stroke:#727272;}.cls-142{stroke-width:0.33px;}.cls-143{stroke-width:0.33px;}.cls-144{stroke:#737373;stroke-width:0.34px;}.cls-145{stroke:#747474;stroke-width:0.34px;}.cls-146{stroke:#757575;stroke-width:0.34px;}.cls-147{stroke:#767676;stroke-width:0.34px;}.cls-148,.cls-149{stroke:#777;}.cls-148{stroke-width:0.34px;}.cls-149{stroke-width:0.34px;}.cls-150{stroke:#787878;stroke-width:0.34px;}.cls-151{stroke:#797979;stroke-width:0.34px;}.cls-152{stroke:#7a7a7a;stroke-width:0.34px;}.cls-153{stroke:#7b7b7b;stroke-width:0.34px;}.cls-154{stroke:#7c7c7c;stroke-width:0.35px;}.cls-155,.cls-156{stroke:#7d7d7d;}.cls-155{stroke-width:0.35px;}.cls-156{stroke-width:0.35px;}.cls-157{stroke:#7e7e7e;stroke-width:0.35px;}.cls-158{stroke:#7f7f7f;stroke-width:0.35px;}.cls-159{stroke:gray;stroke-width:0.35px;}.cls-160{stroke:#818181;stroke-width:0.35px;}.cls-161,.cls-162{stroke:#828282;}.cls-161{stroke-width:0.35px;}.cls-162{stroke-width:0.35px;}.cls-163{stroke:#838383;stroke-width:0.35px;}.cls-164{stroke:#848484;stroke-width:0.36px;}.cls-165{stroke:#858585;stroke-width:0.36px;}.cls-166{stroke:#868686;stroke-width:0.36px;}.cls-167{stroke:#878787;stroke-width:0.36px;}.cls-168,.cls-169{stroke:#888;}.cls-168{stroke-width:0.36px;}.cls-169{stroke-width:0.36px;}.cls-170{stroke:#898989;stroke-width:0.36px;}.cls-171{stroke:#8a8a8a;stroke-width:0.36px;}.cls-172{stroke:#8b8b8b;stroke-width:0.36px;}.cls-173{stroke:#8c8c8c;stroke-width:0.36px;}.cls-174,.cls-175{stroke:#8d8d8d;}.cls-174{stroke-width:0.37px;}.cls-175{stroke-width:0.37px;}.cls-176{stroke:#8e8e8e;stroke-width:0.37px;}.cls-177{stroke:#8f8f8f;stroke-width:0.37px;}.cls-178{stroke:#909090;stroke-width:0.37px;}.cls-179{stroke:#919191;stroke-width:0.37px;}.cls-180{stroke:#929292;stroke-width:0.37px;}.cls-181,.cls-182{stroke:#939393;}.cls-181{stroke-width:0.37px;}.cls-182{stroke-width:0.37px;}.cls-183{stroke:#949494;stroke-width:0.37px;}.cls-184{stroke:#959595;stroke-width:0.38px;}.cls-185{stroke:#969696;stroke-width:0.38px;}.cls-186{stroke:#979797;stroke-width:0.38px;}.cls-187,.cls-188{stroke:#989898;}.cls-187{stroke-width:0.38px;}.cls-188{stroke-width:0.38px;}.cls-189{stroke:#999;stroke-width:0.38px;}.cls-190{stroke:#9a9a9a;stroke-width:0.38px;}.cls-191{stroke:#9b9b9b;stroke-width:0.38px;}.cls-192{stroke:#9c9c9c;stroke-width:0.38px;}.cls-193{stroke:#9d9d9d;stroke-width:0.38px;}.cls-194,.cls-195{stroke:#9e9e9e;}.cls-194{stroke-width:0.39px;}.cls-195{stroke-width:0.39px;}.cls-196{stroke:#9f9f9f;stroke-width:0.39px;}.cls-197{stroke:#a0a0a0;stroke-width:0.39px;}.cls-198{stroke:#a1a1a1;stroke-width:0.39px;}.cls-199{stroke:#a2a2a2;stroke-width:0.39px;}.cls-200{stroke:#a3a3a3;stroke-width:0.39px;}.cls-201,.cls-202{stroke:#a4a4a4;}.cls-201{stroke-width:0.39px;}.cls-202{stroke-width:0.39px;}.cls-203{stroke:#a5a5a5;stroke-width:0.39px;}.cls-204{stroke:#a6a6a6;stroke-width:0.4px;}.cls-205{stroke:#a7a7a7;stroke-width:0.4px;}.cls-206{stroke:#a8a8a8;stroke-width:0.4px;}.cls-207,.cls-208{stroke:#a9a9a9;}.cls-207{stroke-width:0.4px;}.cls-208{stroke-width:0.4px;}.cls-209{stroke:#aaa;stroke-width:0.4px;}.cls-210{stroke:#ababab;stroke-width:0.4px;}.cls-211{stroke:#acacac;stroke-width:0.4px;}.cls-212{stroke:#adadad;stroke-width:0.4px;}.cls-213{stroke:#aeaeae;stroke-width:0.4px;}.cls-214,.cls-215{stroke:#afafaf;}.cls-214{stroke-width:0.41px;}.cls-215{stroke-width:0.41px;}.cls-216{stroke:#b0b0b0;stroke-width:0.41px;}.cls-217{stroke:#b1b1b1;stroke-width:0.41px;}.cls-218{stroke:#b2b2b2;stroke-width:0.41px;}.cls-219{stroke:#b3b3b3;stroke-width:0.41px;}.cls-220,.cls-221{stroke:#b4b4b4;}.cls-220{stroke-width:0.41px;}.cls-221{stroke-width:0.41px;}.cls-222{stroke:#b5b5b5;stroke-width:0.41px;}.cls-223{stroke:#b6b6b6;stroke-width:0.41px;}.cls-224{stroke:#b7b7b7;stroke-width:0.42px;}.cls-225{stroke:#b8b8b8;stroke-width:0.42px;}.cls-226{stroke:#b9b9b9;stroke-width:0.42px;}.cls-227,.cls-228{stroke:#bababa;}.cls-227{stroke-width:0.42px;}.cls-228{stroke-width:0.42px;}.cls-229{stroke:#bbb;stroke-width:0.42px;}.cls-230{stroke:#bcbcbc;stroke-width:0.42px;}.cls-231{stroke:#bdbdbd;stroke-width:0.42px;}.cls-232{stroke:#bebebe;stroke-width:0.42px;}.cls-233,.cls-234{stroke:#bfbfbf;}.cls-233{stroke-width:0.42px;}.cls-234{stroke-width:0.43px;}.cls-235{stroke:silver;stroke-width:0.43px;}.cls-236{stroke:#c1c1c1;stroke-width:0.43px;}.cls-237{stroke:#c2c2c2;stroke-width:0.43px;}.cls-238{stroke:#c3c3c3;stroke-width:0.43px;}.cls-239{stroke:#c4c4c4;stroke-width:0.43px;}.cls-240,.cls-241{stroke:#c5c5c5;}.cls-240{stroke-width:0.43px;}.cls-241{stroke-width:0.43px;}.cls-242{stroke:#c6c6c6;stroke-width:0.43px;}.cls-243{stroke:#c7c7c7;stroke-width:0.43px;}.cls-244{stroke:#c8c8c8;stroke-width:0.44px;}.cls-245{stroke:#c9c9c9;stroke-width:0.44px;}.cls-246,.cls-247{stroke:#cacaca;}.cls-246{stroke-width:0.44px;}.cls-247{stroke-width:0.44px;}.cls-248{stroke:#cbcbcb;stroke-width:0.44px;}.cls-249{stroke:#ccc;stroke-width:0.44px;}.cls-250{stroke:#cdcdcd;stroke-width:0.44px;}.cls-251{stroke:#cecece;stroke-width:0.44px;}.cls-252{stroke:#cfcfcf;stroke-width:0.44px;}.cls-253,.cls-254{stroke:#d0d0d0;}.cls-253{stroke-width:0.44px;}.cls-254{stroke-width:0.45px;}.cls-255{stroke:#d1d1d1;stroke-width:0.45px;}.cls-256{stroke:#d2d2d2;stroke-width:0.45px;}.cls-257{stroke:#d3d3d3;stroke-width:0.45px;}.cls-258{stroke:#d4d4d4;stroke-width:0.45px;}.cls-259,.cls-260{stroke:#d5d5d5;}.cls-259{stroke-width:0.45px;}.cls-260{stroke-width:0.45px;}.cls-261{stroke:#d6d6d6;stroke-width:0.45px;}.cls-262{stroke:#d7d7d7;stroke-width:0.45px;}.cls-263{stroke:#d8d8d8;stroke-width:0.45px;}.cls-264{stroke:#d9d9d9;stroke-width:0.46px;}.cls-265{stroke:#dadada;stroke-width:0.46px;}.cls-266,.cls-267{stroke:#dbdbdb;}.cls-266{stroke-width:0.46px;}.cls-267{stroke-width:0.46px;}.cls-268{stroke:#dcdcdc;stroke-width:0.46px;}.cls-269{stroke:#ddd;stroke-width:0.46px;}.cls-270{stroke:#dedede;stroke-width:0.46px;}.cls-271{stroke:#dfdfdf;stroke-width:0.46px;}.cls-272{stroke:#e0e0e0;stroke-width:0.46px;}.cls-273,.cls-274{stroke:#e1e1e1;}.cls-273{stroke-width:0.46px;}.cls-274{stroke-width:0.47px;}.cls-275{stroke:#e2e2e2;stroke-width:0.47px;}.cls-276{stroke:#e3e3e3;stroke-width:0.47px;}.cls-277{stroke:#e4e4e4;stroke-width:0.47px;}.cls-278{stroke:#e5e5e5;stroke-width:0.47px;}.cls-279,.cls-280{stroke:#e6e6e6;}.cls-279{stroke-width:0.47px;}.cls-280{stroke-width:0.47px;}.cls-281{stroke:#e7e7e7;stroke-width:0.47px;}.cls-282{stroke:#e8e8e8;stroke-width:0.47px;}.cls-283{stroke:#e9e9e9;stroke-width:0.47px;}.cls-284{stroke:#eaeaea;stroke-width:0.48px;}.cls-285{stroke:#ebebeb;stroke-width:0.48px;}.cls-286,.cls-287{stroke:#ececec;}.cls-286{stroke-width:0.48px;}.cls-287{stroke-width:0.48px;}.cls-288{stroke:#ededed;stroke-width:0.48px;}.cls-289{stroke:#eee;stroke-width:0.48px;}.cls-290{stroke:#efefef;stroke-width:0.48px;}.cls-291{stroke:#f0f0f0;stroke-width:0.48px;}.cls-292,.cls-293{stroke:#f1f1f1;}.cls-292{stroke-width:0.48px;}.cls-293{stroke-width:0.48px;}.cls-294{stroke:#f2f2f2;stroke-width:0.49px;}.cls-295{stroke:#f3f3f3;stroke-width:0.49px;}.cls-296{stroke:#f4f4f4;stroke-width:0.49px;}.cls-297{stroke:#f5f5f5;stroke-width:0.49px;}.cls-298{stroke:#f6f6f6;stroke-width:0.49px;}.cls-299,.cls-300{stroke:#f7f7f7;}.cls-299{stroke-width:0.49px;}.cls-300{stroke-width:0.49px;}.cls-301{stroke:#f8f8f8;stroke-width:0.49px;}.cls-302{stroke:#f9f9f9;stroke-width:0.49px;}.cls-303{stroke:#fafafa;stroke-width:0.49px;}.cls-304{stroke:#fbfbfb;stroke-width:0.5px;}.cls-305,.cls-306{stroke:#fcfcfc;}.cls-305{stroke-width:0.5px;}.cls-306{stroke-width:0.5px;}.cls-307{stroke:#fdfdfd;stroke-width:0.5px;}.cls-308{stroke:#fefefe;stroke-width:0.5px;}.cls-309{stroke:#fff;stroke-width:0.5px;}</style><radialGradient id="radial-gradient" cx="79.9" cy="96.85" r="56.42" gradientUnits="userSpaceOnUse"><stop offset="0.3" stop-color="#fff"/><stop offset="1"/></radialGradient></defs><title>L</title><g class="cls-1"><g id="Layer_1" data-name="Layer 1"><rect class="cls-2" x="-6.79" y="-1.74" width="364.98" height="193.59"/><path class="cls-3" d="M164.49,100.6a10.83,10.83,0,0,1-.42,3.11,6.76,6.76,0,0,1-1.29,2.4,5.81,5.81,0,0,1-2.16,1.55,7.79,7.79,0,0,1-3.07.55,13.64,13.64,0,0,1-1.57-.08,14.5,14.5,0,0,1-1.62-.28l.26-2.76a.82.82,0,0,1,.29-.58,1,1,0,0,1,.71-.23,2.92,2.92,0,0,1,.59.08,4.06,4.06,0,0,0,.84.07,3.61,3.61,0,0,0,1.2-.18,1.88,1.88,0,0,0,.84-.63,3.11,3.11,0,0,0,.51-1.16,7.88,7.88,0,0,0,.17-1.76V87.6h4.72Z"/><path class="cls-3" d="M186.2,108h-3.67a1.6,1.6,0,0,1-1-.29A1.79,1.79,0,0,1,181,107l-1.21-3.56H172l-1.2,3.56a1.77,1.77,0,0,1-.56.71,1.51,1.51,0,0,1-1,.31h-3.7l7.89-20.39h4.85Zm-7.52-7.8-1.88-5.58c-.15-.35-.29-.77-.45-1.25s-.32-1-.48-1.56c-.14.57-.29,1.09-.45,1.58s-.3.91-.44,1.26l-1.88,5.55Z"/><path class="cls-3" d="M204.39,87.6,196.22,108h-4.28L183.76,87.6h3.81a1.6,1.6,0,0,1,1,.29,1.73,1.73,0,0,1,.58.73l3.94,10.92c.19.47.37,1,.55,1.56s.35,1.15.5,1.77c.13-.62.28-1.21.44-1.77s.34-1.09.53-1.56L199,88.62a1.63,1.63,0,0,1,.55-.7,1.57,1.57,0,0,1,1-.32Z"/><path class="cls-3" d="M222.58,108h-3.66a1.63,1.63,0,0,1-1-.29,1.79,1.79,0,0,1-.57-.73l-1.2-3.56h-7.76l-1.2,3.56a1.74,1.74,0,0,1-.55.71,1.56,1.56,0,0,1-1,.31H202l7.89-20.39h4.84Zm-7.51-7.8-1.89-5.58c-.14-.35-.29-.77-.45-1.25s-.32-1-.47-1.56c-.14.57-.29,1.09-.45,1.58s-.31.91-.45,1.26l-1.88,5.55Z"/><path class="cls-3" d="M223.72,111.45a.77.77,0,0,1-.31-.62.56.56,0,0,1,.1-.3,1.28,1.28,0,0,1,.23-.29c.12-.11.25-.25.4-.41a4.9,4.9,0,0,0,.44-.54,5.06,5.06,0,0,0,.42-.64,3.31,3.31,0,0,0,.28-.74,2.44,2.44,0,0,1-.86-.24,2.17,2.17,0,0,1-.68-.51,2.43,2.43,0,0,1-.43-.73,2.66,2.66,0,0,1-.15-.9,1.92,1.92,0,0,1,.65-1.51,2.29,2.29,0,0,1,.74-.45,2.61,2.61,0,0,1,1-.17,2.47,2.47,0,0,1,1.09.22,2.24,2.24,0,0,1,.77.58,2.44,2.44,0,0,1,.45.86,3.38,3.38,0,0,1,.15,1,5.38,5.38,0,0,1-.22,1.49,7.2,7.2,0,0,1-.67,1.59,9.14,9.14,0,0,1-1.1,1.57,8.8,8.8,0,0,1-1.51,1.4Z"/><path class="cls-3" d="M245,100.6a10.49,10.49,0,0,1-.43,3.11,6.46,6.46,0,0,1-1.29,2.4,5.81,5.81,0,0,1-2.16,1.55,7.78,7.78,0,0,1-3.06.55,13.82,13.82,0,0,1-1.58-.08,14.34,14.34,0,0,1-1.61-.28l.25-2.76a.86.86,0,0,1,.29-.58,1.05,1.05,0,0,1,.72-.23,2.93,2.93,0,0,1,.58.08,4.19,4.19,0,0,0,.84.07,3.61,3.61,0,0,0,1.2-.18,2,2,0,0,0,.85-.63,3.1,3.1,0,0,0,.5-1.16,7.88,7.88,0,0,0,.17-1.76V87.6H245Z"/><path class="cls-3" d="M260.46,104.07a1.53,1.53,0,0,1,1.11.39,1.31,1.31,0,0,1,.4,1V108H247.65v-1.4a2.6,2.6,0,0,1,.16-.87,2.12,2.12,0,0,1,.59-.84L254.28,99a18.22,18.22,0,0,0,1.31-1.44,8.38,8.38,0,0,0,.93-1.35,6,6,0,0,0,.54-1.33,5.32,5.32,0,0,0,.18-1.4,2.69,2.69,0,0,0-.58-1.87,2.21,2.21,0,0,0-1.77-.65,2.62,2.62,0,0,0-1.63.51,2.57,2.57,0,0,0-.91,1.26,1.88,1.88,0,0,1-.77,1,2.3,2.3,0,0,1-1.36.11l-2.3-.41a7.65,7.65,0,0,1,.87-2.66,6.22,6.22,0,0,1,3.74-3,8.83,8.83,0,0,1,2.62-.37,7.8,7.8,0,0,1,2.72.44A6.12,6.12,0,0,1,259.93,89a5.24,5.24,0,0,1,1.31,1.87,6.17,6.17,0,0,1,.45,2.39,6.6,6.6,0,0,1-.31,2.07,8.33,8.33,0,0,1-.86,1.81,13.9,13.9,0,0,1-1.27,1.67c-.48.53-1,1.07-1.53,1.63l-4,4.08a10.59,10.59,0,0,1,1.53-.36,7.93,7.93,0,0,1,1.4-.13Z"/><path class="cls-3" d="M269.77,91.24V96h6.41v3.5h-6.41v4.85h8.37V108H265V87.6h13.13v3.64Z"/><path class="cls-3" d="M285.81,91.24V96h6.4v3.5h-6.4v4.85h8.36V108H281.05V87.6h13.12v3.64Z"/><path class="cls-3" d="M174.7,142.44h-4.29a4.78,4.78,0,0,1-.57,0,1.8,1.8,0,0,1-.47-.12A1.33,1.33,0,0,1,169,142a3.59,3.59,0,0,1-.42-.39l-.88-.92a11.26,11.26,0,0,1-2.91,1.43,11.08,11.08,0,0,1-3.35.5,7,7,0,0,1-2.38-.42,6.51,6.51,0,0,1-2.08-1.2,5.8,5.8,0,0,1-1.47-1.88,5.45,5.45,0,0,1-.56-2.48,5.14,5.14,0,0,1,.29-1.75,5.77,5.77,0,0,1,.81-1.53,6.82,6.82,0,0,1,1.24-1.28,8.23,8.23,0,0,1,1.58-1,7.8,7.8,0,0,1-1-2,6.8,6.8,0,0,1-.29-1.9,5.34,5.34,0,0,1,.4-2.07,4.81,4.81,0,0,1,1.16-1.7,5.61,5.61,0,0,1,1.87-1.17,7,7,0,0,1,2.56-.44,6.76,6.76,0,0,1,2.39.4,5.7,5.7,0,0,1,1.75,1,4.83,4.83,0,0,1,1.12,1.51,5.31,5.31,0,0,1,.5,1.74l-2.8.57a.9.9,0,0,1-1.09-.59,3,3,0,0,0-.75-1.11,1.63,1.63,0,0,0-1.12-.38,1.82,1.82,0,0,0-.86.19,1.87,1.87,0,0,0-.6.47,2.11,2.11,0,0,0-.38.69,2.74,2.74,0,0,0-.12.81,3.85,3.85,0,0,0,.06.69,2.5,2.5,0,0,0,.22.67,4,4,0,0,0,.41.71,9.2,9.2,0,0,0,.65.8l5,5.3a10.86,10.86,0,0,0,.62-1.74,10.68,10.68,0,0,0,.3-1.88,1,1,0,0,1,.27-.62.81.81,0,0,1,.6-.22h2.74a13,13,0,0,1-.54,3.8,12.31,12.31,0,0,1-1.54,3.25Zm-14-9a3.59,3.59,0,0,0-1.41,2.93,3.59,3.59,0,0,0,.2,1.22,2.71,2.71,0,0,0,.58.94,2.85,2.85,0,0,0,.91.61,3.13,3.13,0,0,0,1.17.22,6.22,6.22,0,0,0,1.75-.25,5.9,5.9,0,0,0,1.51-.69Z"/><path class="cls-3" d="M194.31,126.19a1.69,1.69,0,0,1-.44.5.92.92,0,0,1-.59.17,1.46,1.46,0,0,1-.69-.2l-.84-.46a7.65,7.65,0,0,0-1.07-.45,4.2,4.2,0,0,0-1.37-.2,3,3,0,0,0-2,.56,1.94,1.94,0,0,0-.65,1.53,1.39,1.39,0,0,0,.4,1,3.46,3.46,0,0,0,1,.7,11.61,11.61,0,0,0,1.46.53c.55.17,1.1.35,1.67.55a14.43,14.43,0,0,1,1.67.71,5.42,5.42,0,0,1,1.46,1,4.84,4.84,0,0,1,1,1.54,5.43,5.43,0,0,1,.39,2.17,7.05,7.05,0,0,1-.49,2.65,6.21,6.21,0,0,1-1.42,2.14,6.5,6.5,0,0,1-2.3,1.45,8.74,8.74,0,0,1-3.09.52,10,10,0,0,1-1.94-.2,11,11,0,0,1-1.91-.55,10.8,10.8,0,0,1-1.74-.85,7.13,7.13,0,0,1-1.41-1.09l1.4-2.21a1.42,1.42,0,0,1,.44-.4,1.21,1.21,0,0,1,.59-.16,1.57,1.57,0,0,1,.85.27l1,.59a7.42,7.42,0,0,0,1.23.58,4.62,4.62,0,0,0,1.66.27,3.15,3.15,0,0,0,2-.57,2.16,2.16,0,0,0,.71-1.8,1.71,1.71,0,0,0-.39-1.16,3.1,3.1,0,0,0-1-.74,10.11,10.11,0,0,0-1.45-.52c-.54-.14-1.09-.31-1.66-.49a14.19,14.19,0,0,1-1.67-.67,5.54,5.54,0,0,1-1.45-1.05,5,5,0,0,1-1-1.63,6.48,6.48,0,0,1-.39-2.4,5.73,5.73,0,0,1,1.82-4.18,6.68,6.68,0,0,1,2.2-1.37,8.13,8.13,0,0,1,3-.51,10.9,10.9,0,0,1,1.82.15,9.19,9.19,0,0,1,3.18,1.12,7.31,7.31,0,0,1,1.24.9Z"/><path class="cls-3" d="M218.57,132.23a10.94,10.94,0,0,1-.77,4.12,9.86,9.86,0,0,1-2.15,3.31,9.73,9.73,0,0,1-3.33,2.2,12.15,12.15,0,0,1-8.67,0,9.74,9.74,0,0,1-5.51-5.51,11.52,11.52,0,0,1,0-8.23,9.74,9.74,0,0,1,2.16-3.3,10,10,0,0,1,3.35-2.2,11.41,11.41,0,0,1,4.34-.8,11.21,11.21,0,0,1,4.33.81,9.75,9.75,0,0,1,5.48,5.5A10.91,10.91,0,0,1,218.57,132.23Zm-4.85,0a8.89,8.89,0,0,0-.39-2.72,6,6,0,0,0-1.12-2,4.74,4.74,0,0,0-1.8-1.28,6.18,6.18,0,0,0-2.42-.45,6.3,6.3,0,0,0-2.45.45,4.74,4.74,0,0,0-1.8,1.28,5.81,5.81,0,0,0-1.13,2,9.75,9.75,0,0,0,0,5.46,5.72,5.72,0,0,0,1.13,2.05,4.74,4.74,0,0,0,1.8,1.28,6.3,6.3,0,0,0,2.45.44,6.18,6.18,0,0,0,2.42-.44,4.74,4.74,0,0,0,1.8-1.28,5.86,5.86,0,0,0,1.12-2.05A8.93,8.93,0,0,0,213.72,132.23Z"/><path class="cls-3" d="M239,142.44h-3.66a1.65,1.65,0,0,1-1-.29,1.82,1.82,0,0,1-.57-.74l-1.2-3.55h-7.75l-1.21,3.55a1.67,1.67,0,0,1-.55.71,1.57,1.57,0,0,1-1,.32h-3.69l7.89-20.39h4.84Zm-7.51-7.8-1.89-5.58c-.14-.36-.29-.77-.45-1.25s-.31-1-.47-1.56c-.14.56-.29,1.09-.45,1.58s-.31.9-.45,1.26l-1.87,5.55Z"/><path class="cls-3" d="M162.21,163.82a.51.51,0,0,1,.17,0,.55.55,0,0,1,.17.11l1,1a4,4,0,0,1-1.6,1.26,5.61,5.61,0,0,1-2.27.42,5.46,5.46,0,0,1-2.15-.41,4.64,4.64,0,0,1-1.61-1.13,5.11,5.11,0,0,1-1-1.7,6.51,6.51,0,0,1-.35-2.15,6.07,6.07,0,0,1,.38-2.17,5.25,5.25,0,0,1,1.08-1.7,4.75,4.75,0,0,1,1.66-1.11,5.51,5.51,0,0,1,2.14-.4,5.76,5.76,0,0,1,1.12.1,6.18,6.18,0,0,1,1,.29,4.39,4.39,0,0,1,.83.45,3.83,3.83,0,0,1,.68.56l-.82,1.11a.81.81,0,0,1-.19.18.45.45,0,0,1-.3.09.54.54,0,0,1-.25-.06l-.24-.14-.29-.18a1.59,1.59,0,0,0-.37-.18,2.12,2.12,0,0,0-.5-.14,3.26,3.26,0,0,0-.67-.06,2.72,2.72,0,0,0-1.11.22,2.52,2.52,0,0,0-.87.66,3,3,0,0,0-.56,1.05,4.84,4.84,0,0,0-.2,1.43,4.27,4.27,0,0,0,.22,1.44,3.3,3.3,0,0,0,.6,1.06,2.59,2.59,0,0,0,.89.66,2.64,2.64,0,0,0,1.08.22,5.66,5.66,0,0,0,.61,0,2.82,2.82,0,0,0,.52-.11,2.48,2.48,0,0,0,.44-.2,3.09,3.09,0,0,0,.43-.33l.19-.12A.52.52,0,0,1,162.21,163.82Z"/><path class="cls-3" d="M166.76,157.89v2.46h3.31v1.8h-3.31v2.51h4.32v1.89H164.3V156h6.78v1.89Z"/><path class="cls-3" d="M180.92,166.55h-2.21a.94.94,0,0,1-.88-.47L176.08,163a.93.93,0,0,0-.28-.28.83.83,0,0,0-.43-.09h-.62v3.9H172.3V156h3.43a6.93,6.93,0,0,1,2,.24,3.7,3.7,0,0,1,1.32.65,2.49,2.49,0,0,1,.74,1,3.34,3.34,0,0,1,.23,1.24,3.39,3.39,0,0,1-.14,1,3.24,3.24,0,0,1-.4.84,2.92,2.92,0,0,1-.67.69,3.27,3.27,0,0,1-.9.5,2.19,2.19,0,0,1,.44.31,2,2,0,0,1,.38.44ZM175.73,161a2.37,2.37,0,0,0,.85-.13,1.49,1.49,0,0,0,.57-.35,1.36,1.36,0,0,0,.33-.52,2,2,0,0,0,.1-.65,1.35,1.35,0,0,0-.45-1.08,2.11,2.11,0,0,0-1.4-.39h-1V161Z"/><path class="cls-3" d="M188.89,157.94h-3v8.61h-2.44v-8.61h-3V156h8.38Z"/><path class="cls-3" d="M192.3,166.55h-2.46V156h2.46Z"/><path class="cls-3" d="M196.51,157.89v2.67h3.6v1.88h-3.6v4.11h-2.46V156h6.78v1.89Z"/><path class="cls-3" d="M204.41,166.55H202V156h2.46Z"/><path class="cls-3" d="M213.27,163.82a.51.51,0,0,1,.17,0,.45.45,0,0,1,.17.11l1,1a4,4,0,0,1-1.6,1.26,5.61,5.61,0,0,1-2.27.42,5.46,5.46,0,0,1-2.15-.41,4.64,4.64,0,0,1-1.61-1.13,5.11,5.11,0,0,1-1-1.7,6.51,6.51,0,0,1-.35-2.15,6.07,6.07,0,0,1,.38-2.17,5.25,5.25,0,0,1,1.08-1.7,4.75,4.75,0,0,1,1.66-1.11,5.51,5.51,0,0,1,2.14-.4,5.76,5.76,0,0,1,1.12.1,5.88,5.88,0,0,1,1,.29,4.39,4.39,0,0,1,.83.45,3.83,3.83,0,0,1,.68.56l-.82,1.11a.81.81,0,0,1-.19.18.45.45,0,0,1-.3.09.54.54,0,0,1-.25-.06l-.24-.14-.29-.18a1.59,1.59,0,0,0-.37-.18,2.12,2.12,0,0,0-.5-.14,3.26,3.26,0,0,0-.67-.06,2.72,2.72,0,0,0-1.11.22,2.52,2.52,0,0,0-.87.66,3,3,0,0,0-.56,1.05,4.84,4.84,0,0,0-.2,1.43,4.27,4.27,0,0,0,.22,1.44,3.3,3.3,0,0,0,.6,1.06,2.59,2.59,0,0,0,.89.66,2.64,2.64,0,0,0,1.08.22,5.53,5.53,0,0,0,.61,0,2.82,2.82,0,0,0,.52-.11,2.48,2.48,0,0,0,.44-.2,3.09,3.09,0,0,0,.43-.33l.19-.12A.52.52,0,0,1,213.27,163.82Z"/><path class="cls-3" d="M224.81,166.55h-1.89a.81.81,0,0,1-.51-.15,1,1,0,0,1-.3-.38l-.62-1.84h-4l-.62,1.84a1,1,0,0,1-.29.36.8.8,0,0,1-.51.17h-1.91L218.23,156h2.5Zm-3.88-4-1-2.89c-.07-.18-.15-.4-.23-.65s-.16-.52-.24-.8c-.08.29-.15.56-.24.81a6.76,6.76,0,0,1-.23.65l-1,2.88Z"/><path class="cls-3" d="M231.9,157.94h-3v8.61h-2.45v-8.61h-3V156h8.37Z"/><path class="cls-3" d="M235.31,166.55h-2.46V156h2.46Z"/><path class="cls-3" d="M247.41,161.27a5.57,5.57,0,0,1-.4,2.13,5,5,0,0,1-2.83,2.85,6.32,6.32,0,0,1-4.48,0,5.26,5.26,0,0,1-1.74-1.14,5.15,5.15,0,0,1-1.11-1.71,5.87,5.87,0,0,1,0-4.26,5,5,0,0,1,1.11-1.7,5.11,5.11,0,0,1,1.74-1.14,6,6,0,0,1,2.24-.41,5.77,5.77,0,0,1,2.24.42,5,5,0,0,1,1.72,1.13,5.15,5.15,0,0,1,1.11,1.71A5.52,5.52,0,0,1,247.41,161.27Zm-2.51,0a4.45,4.45,0,0,0-.2-1.41,3,3,0,0,0-.58-1.06,2.5,2.5,0,0,0-.93-.66,3.1,3.1,0,0,0-1.25-.23,3.15,3.15,0,0,0-1.26.23,2.62,2.62,0,0,0-.94.66,3.18,3.18,0,0,0-.58,1.06,5.11,5.11,0,0,0,0,2.83,3.18,3.18,0,0,0,.58,1.06,2.62,2.62,0,0,0,.94.66,3.33,3.33,0,0,0,1.26.23,3.28,3.28,0,0,0,1.25-.23,2.5,2.5,0,0,0,.93-.66,3,3,0,0,0,.58-1.06A4.47,4.47,0,0,0,244.9,161.27Z"/><path class="cls-3" d="M257.76,156v10.55h-1.27a1,1,0,0,1-.48-.1,1.26,1.26,0,0,1-.38-.31l-5-6.29a5.28,5.28,0,0,1,0,.55c0,.18,0,.34,0,.49v5.66h-2.15V156h1.29l.26,0,.2,0,.17.11.18.2,5,6.33c0-.2,0-.4,0-.59s0-.37,0-.54V156Z"/><path class="cls-3" d="M272.75,157.94h-3v8.61h-2.44v-8.61h-3V156h8.38Z"/><path class="cls-3" d="M282.32,166.55h-2.21a.93.93,0,0,1-.88-.47L277.48,163a.93.93,0,0,0-.28-.28.86.86,0,0,0-.43-.09h-.63v3.9H273.7V156h3.43a6.93,6.93,0,0,1,1.95.24,3.74,3.74,0,0,1,1.31.65,2.52,2.52,0,0,1,.75,1,3.34,3.34,0,0,1,.23,1.24,3.39,3.39,0,0,1-.14,1,3,3,0,0,1-.41.84,2.69,2.69,0,0,1-.66.69,3.19,3.19,0,0,1-.91.5,2.26,2.26,0,0,1,.45.31,2,2,0,0,1,.38.44ZM277.13,161a2.41,2.41,0,0,0,.85-.13,1.49,1.49,0,0,0,.57-.35,1.36,1.36,0,0,0,.33-.52,2,2,0,0,0,.1-.65,1.35,1.35,0,0,0-.45-1.08,2.11,2.11,0,0,0-1.4-.39h-1V161Z"/><path class="cls-3" d="M292.38,166.55h-1.9a.81.81,0,0,1-.51-.15,1,1,0,0,1-.3-.38l-.62-1.84h-4l-.62,1.84a.87.87,0,0,1-.29.36.77.77,0,0,1-.51.17h-1.91L285.79,156h2.51Zm-3.89-4-1-2.89c-.08-.18-.15-.4-.24-.65s-.16-.52-.24-.8c-.07.29-.15.56-.23.81s-.16.47-.23.65l-1,2.88Z"/><path class="cls-3" d="M295.38,166.55h-2.46V156h2.46Z"/><path class="cls-3" d="M306.33,156v10.55h-1.27a.94.94,0,0,1-.47-.1,1.06,1.06,0,0,1-.38-.31l-5-6.29a5.28,5.28,0,0,1,0,.55c0,.18,0,.34,0,.49v5.66h-2.16V156h1.29l.27,0,.19,0,.17.11.18.2,5,6.33c0-.2,0-.4-.05-.59s0-.37,0-.54V156Z"/><path class="cls-3" d="M310.54,166.55h-2.46V156h2.46Z"/><path class="cls-3" d="M321.5,156v10.55h-1.28a1,1,0,0,1-.47-.1,1.06,1.06,0,0,1-.38-.31l-5-6.29c0,.19,0,.37,0,.55s0,.34,0,.49v5.66h-2.16V156h1.29l.27,0,.19,0,.17.11.18.2,5,6.33a4,4,0,0,1-.05-.59c0-.19,0-.37,0-.54V156Z"/><path class="cls-3" d="M328.31,161.08h3.75v4.45a5.29,5.29,0,0,1-1.73.86,7,7,0,0,1-4.28-.14,5.48,5.48,0,0,1-1.83-1.13,5.17,5.17,0,0,1-1.17-1.7,5.64,5.64,0,0,1-.41-2.15,5.86,5.86,0,0,1,.39-2.17,4.87,4.87,0,0,1,2.88-2.81,6.2,6.2,0,0,1,2.3-.4,7,7,0,0,1,1.24.11,6.29,6.29,0,0,1,1.06.29,5.4,5.4,0,0,1,.9.45,4.64,4.64,0,0,1,.72.57l-.71,1.08a.7.7,0,0,1-.43.31.85.85,0,0,1-.57-.13,5,5,0,0,0-.54-.3,2.66,2.66,0,0,0-.53-.21,4.61,4.61,0,0,0-.56-.12c-.2,0-.42,0-.67,0a3,3,0,0,0-1.23.24,2.67,2.67,0,0,0-.94.68,3.15,3.15,0,0,0-.6,1.06,4.34,4.34,0,0,0-.21,1.38,4.53,4.53,0,0,0,.23,1.49,3.16,3.16,0,0,0,.66,1.1,2.84,2.84,0,0,0,1,.69,3.68,3.68,0,0,0,1.31.23,3.32,3.32,0,0,0,.8-.09,3.58,3.58,0,0,0,.7-.23v-1.6H328.8a.52.52,0,0,1-.36-.12.44.44,0,0,1-.13-.31Z"/><polygon class="cls-4" points="110.06 44.61 49.74 44.61 19.58 96.85 49.74 149.09 110.06 149.09 140.21 96.85 110.06 44.61"/><path class="cls-5" d="M80.68,74.27a30.4,30.4,0,0,1,9.71-4.59,50.55,50.55,0,0,0-7.87,5.64,7.27,7.27,0,0,0-2,2.94,3.73,3.73,0,0,0,.2,2.61,34.76,34.76,0,0,0,2.54,3.9,4.13,4.13,0,0,1,.32,3.77,10,10,0,0,1-3.93,4.16c-.21.12-.38.35-.64.38a5.19,5.19,0,0,0,1.85-3.85,4.6,4.6,0,0,0-1.39-2.87c-1.5-1.75-2.77-4-2.53-6.37s1.92-4.32,3.75-5.72Z"/><path class="cls-6" d="M100.14,93a5.52,5.52,0,0,1,3.68-1.6,8.15,8.15,0,0,1,6.53,1.81,5.91,5.91,0,0,1,2,5.2,9.25,9.25,0,0,1-3.47,5.56,27.55,27.55,0,0,1-10.59,4.95,3.79,3.79,0,0,1,.74-.64,26.11,26.11,0,0,0,7.77-5.94,7.09,7.09,0,0,0,1.82-5.7,5.55,5.55,0,0,0-5.18-4.21,11.53,11.53,0,0,0-3.28.57Z"/><path class="cls-6" d="M106.07,94.85a5.42,5.42,0,0,0-4.37-1.21,6,6,0,0,0-1.48.37,5.42,5.42,0,0,1,4.34,1.22,4,4,0,0,1,1.33,3.48,6.17,6.17,0,0,1-2.33,3.73,16.76,16.76,0,0,1-5.45,2.83l-.13.11a18.45,18.45,0,0,0,7.1-3.32,6.22,6.22,0,0,0,2.33-3.72A4,4,0,0,0,106.07,94.85Z"/><path class="cls-6" d="M103.93,96.25a3.78,3.78,0,0,0-3.05-.85,4.21,4.21,0,0,0-1,.26,3.82,3.82,0,0,1,3,.85,2.77,2.77,0,0,1,.92,2.43,4.32,4.32,0,0,1-1.62,2.61,11.71,11.71,0,0,1-3.81,2s-.06,0-.08.08a13,13,0,0,0,4.95-2.32,4.3,4.3,0,0,0,1.62-2.6A2.73,2.73,0,0,0,103.93,96.25Z"/><path class="cls-6" d="M56.45,95.36a31.48,31.48,0,0,1,12.69-2.88,50.5,50.5,0,0,0-7.52,2.57,3.47,3.47,0,0,0-1.53,1.19c-.17.46.31.76.66.91a15.87,15.87,0,0,0,4.7.8,129.38,129.38,0,0,0,16.71-.35c5.47-.4,10.9-1.2,16.31-2.12A31.74,31.74,0,0,0,95,97.36a5.29,5.29,0,0,1-1.89.67,100,100,0,0,1-20.25,2.24c-2.63,0-5.24,0-7.85-.12a44.07,44.07,0,0,1-8.71-1.09A5.75,5.75,0,0,1,53.91,98a.76.76,0,0,1-.06-1.09,9,9,0,0,1,2.6-1.55Z"/><path class="cls-6" d="M61.67,104.6a13.36,13.36,0,0,1,3.81-1.91c-.43.53-1,1-1.07,1.76a1.2,1.2,0,0,0,.73,1,7.08,7.08,0,0,0,2.33.59,74.87,74.87,0,0,0,12.62.27,95,95,0,0,0,11.47-1.61,12.81,12.81,0,0,0,3.61,2.2,69.31,69.31,0,0,1-14,2.64,59.12,59.12,0,0,1-13.49-.31,18.78,18.78,0,0,1-5.19-1.47,2.81,2.81,0,0,1-1.6-1.55,1.75,1.75,0,0,1,.81-1.62Z"/><path class="cls-6" d="M64.28,114.06a9.72,9.72,0,0,1,3.45-1.6c-.39.37-1.08.84-.77,1.47.59.75,1.68.83,2.55,1a56.29,56.29,0,0,0,11.08.37,73.25,73.25,0,0,0,8.23-1.24,39.94,39.94,0,0,0,4.89,2.35,36,36,0,0,1-8.06,2.49,42.76,42.76,0,0,1-14.14.33,19.54,19.54,0,0,1-6.06-1.81,3.64,3.64,0,0,1-1.8-1.68,1.56,1.56,0,0,1,.63-1.7Z"/><path class="cls-6" d="M52.65,120.33A21.43,21.43,0,0,1,58.81,119a4.49,4.49,0,0,1,2.46.43,18.6,18.6,0,0,0-7.29,2,2.46,2.46,0,0,0-1.25,1.21c0,.67.77.88,1.28,1.09a39.7,39.7,0,0,0,9.84,1.8A170.41,170.41,0,0,0,93.47,125,69,69,0,0,0,104.53,123a6.38,6.38,0,0,0,3.2-1.84,1.5,1.5,0,0,0-.33-1.89c.75.41,1.8.92,1.65,1.92s-1.33,1.6-2.19,2.11A35.22,35.22,0,0,1,98,126.16a122,122,0,0,1-26.91,2.13,151.64,151.64,0,0,1-20.29-1.85A6.49,6.49,0,0,1,47.36,125c-.57-.65-.08-1.57.46-2a14.06,14.06,0,0,1,4.83-2.64Z"/><path class="cls-6" d="M106.54,127.25c2.19-.79,4.53-1.61,6.15-3.37-.27,1.9-1.89,3.22-3.49,4.08a34.21,34.21,0,0,1-10,3,125.33,125.33,0,0,1-22,1.52,84.27,84.27,0,0,1-15-1.25,11.35,11.35,0,0,1-3.47-1.2,104,104,0,0,0,13.32,1.09A144,144,0,0,0,94,130a75.79,75.79,0,0,0,12.52-2.73Z"/><path class="cls-5" d="M78.76,54.62a7.09,7.09,0,0,1,2.39,5.66,13.44,13.44,0,0,1-2.23,6.58,29.85,29.85,0,0,1-3.4,4.44,16.88,16.88,0,0,0-3.62,5.39,6.18,6.18,0,0,0,.33,5.18c1.45,2.72,4.1,4.48,5.79,7-1.59-1-3.15-2.06-4.64-3.21a18.49,18.49,0,0,1-4.17-4.16,5.69,5.69,0,0,1-1-3.95A9.51,9.51,0,0,1,70,73.73c2.25-3.1,5.24-5.6,7.42-8.74a11.15,11.15,0,0,0,2.21-5.83,10.86,10.86,0,0,0-.86-4.54Z"/><path class="cls-5" d="M93.63,67a18.06,18.06,0,0,1,7.54-2.12,37.37,37.37,0,0,0-6.76,3.53,8.09,8.09,0,0,0-2.23,2.31,5.5,5.5,0,0,0-.75,2.5,36.77,36.77,0,0,0,.25,4.25,6.05,6.05,0,0,1-1.07,3.63,9.29,9.29,0,0,1-3.83,3c-.17.07-.36.25-.52.22a6.57,6.57,0,0,0,2.44-3.21,5.75,5.75,0,0,0,.1-3,11.87,11.87,0,0,1,.58-6.58A9.68,9.68,0,0,1,93.63,67Z"/><g class="cls-7"><polyline class="cls-8" points="19.81 96.97 49.97 149.21 109.78 149.21"/><polyline class="cls-9" points="19.79 97.02 49.95 149.25 109.75 149.25"/><polyline class="cls-10" points="19.76 97.07 49.92 149.3 109.73 149.3"/><polyline class="cls-11" points="19.74 97.11 49.9 149.35 109.7 149.35"/><polyline class="cls-12" points="19.71 97.16 49.87 149.4 109.68 149.4"/><polyline class="cls-13" points="19.69 97.21 49.85 149.44 109.65 149.44"/><polyline class="cls-14" points="19.66 97.25 49.82 149.49 109.63 149.49"/><polyline class="cls-15" points="19.64 97.3 49.8 149.53 109.6 149.53"/><polyline class="cls-16" points="19.61 97.34 49.77 149.58 109.57 149.58"/><polyline class="cls-17" points="19.59 97.39 49.75 149.63 109.55 149.63"/><polyline class="cls-18" points="19.56 97.44 49.72 149.67 109.52 149.67"/><polyline class="cls-19" points="19.54 97.48 49.7 149.72 109.5 149.72"/><polyline class="cls-20" points="19.51 97.53 49.67 149.77 109.47 149.77"/><polyline class="cls-21" points="19.49 97.58 49.65 149.81 109.44 149.81"/><polyline class="cls-22" points="19.46 97.62 49.62 149.86 109.42 149.86"/><polyline class="cls-23" points="19.44 97.67 49.59 149.91 109.39 149.91"/><polyline class="cls-24" points="19.41 97.72 49.57 149.95 109.37 149.95"/><polyline class="cls-25" points="19.39 97.76 49.54 150 109.34 150"/><polyline class="cls-26" points="19.36 97.81 49.52 150.05 109.31 150.05"/><polyline class="cls-27" points="19.34 97.86 49.49 150.09 109.29 150.09"/><polyline class="cls-28" points="19.31 97.9 49.47 150.14 109.26 150.14"/><polyline class="cls-29" points="19.28 97.95 49.44 150.19 109.24 150.19"/><polyline class="cls-30" points="19.26 98 49.42 150.23 109.21 150.23"/><polyline class="cls-31" points="19.23 98.04 49.39 150.28 109.19 150.28"/><polyline class="cls-32" points="19.21 98.09 49.37 150.32 109.16 150.32"/><polyline class="cls-33" points="19.18 98.14 49.34 150.37 109.13 150.37"/><polyline class="cls-34" points="19.16 98.18 49.32 150.42 109.11 150.42"/><polyline class="cls-35" points="19.13 98.23 49.29 150.47 109.08 150.47"/><polyline class="cls-36" points="19.11 98.28 49.27 150.51 109.06 150.51"/><polyline class="cls-37" points="19.08 98.32 49.24 150.56 109.03 150.56"/><polyline class="cls-38" points="19.06 98.37 49.22 150.6 109 150.6"/><polyline class="cls-39" points="19.03 98.42 49.19 150.65 108.98 150.65"/><polyline class="cls-40" points="19.01 98.46 49.16 150.7 108.95 150.7"/><polyline class="cls-41" points="18.98 98.51 49.14 150.74 108.93 150.74"/><polyline class="cls-42" points="18.96 98.55 49.11 150.79 108.9 150.79"/><polyline class="cls-43" points="18.93 98.6 49.09 150.84 108.87 150.84"/><polyline class="cls-44" points="18.91 98.65 49.06 150.88 108.85 150.88"/><polyline class="cls-45" points="18.88 98.69 49.04 150.93 108.82 150.93"/><polyline class="cls-46" points="18.86 98.74 49.01 150.98 108.8 150.98"/><polyline class="cls-47" points="18.83 98.79 48.99 151.02 108.77 151.02"/><polyline class="cls-48" points="18.8 98.83 48.96 151.07 108.75 151.07"/><polyline class="cls-49" points="18.78 98.88 48.94 151.12 108.72 151.12"/><polyline class="cls-50" points="18.75 98.93 48.91 151.16 108.69 151.16"/><polyline class="cls-51" points="18.73 98.97 48.89 151.21 108.67 151.21"/><polyline class="cls-52" points="18.7 99.02 48.86 151.25 108.64 151.25"/><polyline class="cls-53" points="18.68 99.07 48.84 151.3 108.61 151.3"/><polyline class="cls-54" points="18.65 99.11 48.81 151.35 108.59 151.35"/><polyline class="cls-55" points="18.63 99.16 48.79 151.4 108.56 151.4"/><polyline class="cls-56" points="18.6 99.21 48.76 151.44 108.54 151.44"/><polyline class="cls-57" points="18.58 99.25 48.74 151.49 108.51 151.49"/><polyline class="cls-58" points="18.55 99.3 48.71 151.53 108.49 151.53"/><polyline class="cls-59" points="18.53 99.34 48.69 151.58 108.46 151.58"/><polyline class="cls-60" points="18.5 99.39 48.66 151.63 108.43 151.63"/><polyline class="cls-61" points="18.48 99.44 48.63 151.67 108.41 151.67"/><polyline class="cls-62" points="18.45 99.48 48.61 151.72 108.38 151.72"/><polyline class="cls-63" points="18.43 99.53 48.58 151.77 108.36 151.77"/><polyline class="cls-64" points="18.4 99.58 48.56 151.81 108.33 151.81"/><polyline class="cls-65" points="18.38 99.62 48.53 151.86 108.3 151.86"/><polyline class="cls-66" points="18.35 99.67 48.51 151.91 108.28 151.91"/><polyline class="cls-67" points="18.32 99.72 48.48 151.95 108.25 151.95"/><polyline class="cls-68" points="18.3 99.76 48.46 152 108.23 152"/><polyline class="cls-69" points="18.27 99.81 48.43 152.05 108.2 152.05"/><polyline class="cls-70" points="18.25 99.86 48.41 152.09 108.17 152.09"/><polyline class="cls-71" points="18.22 99.9 48.38 152.14 108.15 152.14"/><polyline class="cls-72" points="18.2 99.95 48.36 152.19 108.12 152.19"/><polyline class="cls-73" points="18.17 100 48.33 152.23 108.1 152.23"/><polyline class="cls-74" points="18.15 100.04 48.31 152.28 108.07 152.28"/><polyline class="cls-75" points="18.12 100.09 48.28 152.32 108.05 152.32"/><polyline class="cls-76" points="18.1 100.14 48.26 152.37 108.02 152.37"/><polyline class="cls-77" points="18.07 100.18 48.23 152.42 107.99 152.42"/><polyline class="cls-78" points="18.05 100.23 48.2 152.47 107.97 152.47"/><polyline class="cls-79" points="18.02 100.28 48.18 152.51 107.94 152.51"/><polyline class="cls-80" points="18 100.32 48.16 152.56 107.92 152.56"/><polyline class="cls-81" points="17.97 100.37 48.13 152.6 107.89 152.6"/><polyline class="cls-82" points="17.95 100.42 48.1 152.65 107.86 152.65"/><polyline class="cls-83" points="17.92 100.46 48.08 152.7 107.84 152.7"/><polyline class="cls-84" points="17.9 100.51 48.05 152.74 107.81 152.74"/><polyline class="cls-85" points="17.87 100.55 48.03 152.79 107.79 152.79"/><polyline class="cls-86" points="17.84 100.6 48 152.84 107.76 152.84"/><polyline class="cls-87" points="17.82 100.65 47.98 152.88 107.73 152.88"/><polyline class="cls-88" points="17.8 100.69 47.95 152.93 107.71 152.93"/><polyline class="cls-89" points="17.77 100.74 47.93 152.98 107.68 152.98"/><polyline class="cls-90" points="17.74 100.79 47.9 153.02 107.66 153.02"/><polyline class="cls-91" points="17.72 100.83 47.88 153.07 107.63 153.07"/><polyline class="cls-92" points="17.69 100.88 47.85 153.12 107.61 153.12"/><polyline class="cls-93" points="17.67 100.93 47.83 153.16 107.58 153.16"/><polyline class="cls-94" points="17.64 100.97 47.8 153.21 107.55 153.21"/><polyline class="cls-95" points="17.62 101.02 47.78 153.25 107.53 153.25"/><polyline class="cls-96" points="17.59 101.07 47.75 153.3 107.5 153.3"/><polyline class="cls-97" points="17.57 101.11 47.73 153.35 107.47 153.35"/><polyline class="cls-98" points="17.54 101.16 47.7 153.4 107.45 153.4"/><polyline class="cls-99" points="17.52 101.21 47.67 153.44 107.42 153.44"/><polyline class="cls-100" points="17.49 101.25 47.65 153.49 107.4 153.49"/><polyline class="cls-101" points="17.47 101.3 47.63 153.53 107.37 153.53"/><polyline class="cls-102" points="17.44 101.34 47.6 153.58 107.34 153.58"/><polyline class="cls-103" points="17.42 101.39 47.57 153.63 107.32 153.63"/><polyline class="cls-104" points="17.39 101.44 47.55 153.67 107.29 153.67"/><polyline class="cls-105" points="17.36 101.48 47.52 153.72 107.27 153.72"/><polyline class="cls-106" points="17.34 101.53 47.5 153.77 107.24 153.77"/><polyline class="cls-107" points="17.32 101.58 47.47 153.81 107.22 153.81"/><polyline class="cls-108" points="17.29 101.62 47.45 153.86 107.19 153.86"/><polyline class="cls-109" points="17.26 101.67 47.42 153.91 107.16 153.91"/><polyline class="cls-110" points="17.24 101.72 47.4 153.95 107.14 153.95"/><polyline class="cls-111" points="17.21 101.76 47.37 154 107.11 154"/><polyline class="cls-112" points="17.19 101.81 47.35 154.05 107.09 154.05"/><polyline class="cls-113" points="17.16 101.86 47.32 154.09 107.06 154.09"/><polyline class="cls-114" points="17.14 101.9 47.3 154.14 107.03 154.14"/><polyline class="cls-115" points="17.11 101.95 47.27 154.19 107.01 154.19"/><polyline class="cls-116" points="17.09 102 47.25 154.23 106.98 154.23"/><polyline class="cls-117" points="17.06 102.04 47.22 154.28 106.96 154.28"/><polyline class="cls-118" points="17.04 102.09 47.2 154.32 106.93 154.32"/><polyline class="cls-119" points="17.01 102.14 47.17 154.37 106.91 154.37"/><polyline class="cls-120" points="16.99 102.18 47.15 154.42 106.88 154.42"/><polyline class="cls-121" points="16.96 102.23 47.12 154.47 106.85 154.47"/><polyline class="cls-122" points="16.94 102.28 47.09 154.51 106.83 154.51"/><polyline class="cls-123" points="16.91 102.32 47.07 154.56 106.8 154.56"/><polyline class="cls-124" points="16.89 102.37 47.04 154.6 106.78 154.6"/><polyline class="cls-125" points="16.86 102.42 47.02 154.65 106.75 154.65"/><polyline class="cls-126" points="16.84 102.46 46.99 154.7 106.72 154.7"/><polyline class="cls-127" points="16.81 102.51 46.97 154.74 106.7 154.74"/><polyline class="cls-128" points="16.79 102.55 46.94 154.79 106.67 154.79"/><polyline class="cls-129" points="16.76 102.6 46.92 154.84 106.65 154.84"/><polyline class="cls-130" points="16.73 102.65 46.89 154.88 106.62 154.88"/><polyline class="cls-131" points="16.71 102.69 46.87 154.93 106.59 154.93"/><polyline class="cls-132" points="16.68 102.74 46.84 154.98 106.57 154.98"/><polyline class="cls-133" points="16.66 102.79 46.82 155.02 106.54 155.02"/><polyline class="cls-134" points="16.63 102.83 46.79 155.07 106.52 155.07"/><polyline class="cls-135" points="16.61 102.88 46.77 155.12 106.49 155.12"/><polyline class="cls-136" points="16.58 102.93 46.74 155.16 106.46 155.16"/><polyline class="cls-137" points="16.56 102.97 46.72 155.21 106.44 155.21"/><polyline class="cls-138" points="16.53 103.02 46.69 155.25 106.41 155.25"/><polyline class="cls-139" points="16.51 103.07 46.66 155.3 106.39 155.3"/><polyline class="cls-140" points="16.48 103.11 46.64 155.35 106.36 155.35"/><polyline class="cls-141" points="16.46 103.16 46.62 155.4 106.33 155.4"/><polyline class="cls-142" points="16.43 103.21 46.59 155.44 106.31 155.44"/><polyline class="cls-143" points="16.41 103.25 46.56 155.49 106.28 155.49"/><polyline class="cls-144" points="16.38 103.3 46.54 155.53 106.26 155.53"/><polyline class="cls-145" points="16.36 103.34 46.51 155.58 106.23 155.58"/><polyline class="cls-146" points="16.33 103.39 46.49 155.63 106.2 155.63"/><polyline class="cls-147" points="16.3 103.44 46.46 155.67 106.18 155.67"/><polyline class="cls-148" points="16.28 103.48 46.44 155.72 106.15 155.72"/><polyline class="cls-149" points="16.25 103.53 46.41 155.77 106.13 155.77"/><polyline class="cls-150" points="16.23 103.58 46.39 155.81 106.1 155.81"/><polyline class="cls-151" points="16.2 103.62 46.36 155.86 106.08 155.86"/><polyline class="cls-152" points="16.18 103.67 46.34 155.91 106.05 155.91"/><polyline class="cls-153" points="16.15 103.72 46.31 155.95 106.02 155.95"/><polyline class="cls-154" points="16.13 103.76 46.29 156 106 156"/><polyline class="cls-155" points="16.1 103.81 46.26 156.05 105.97 156.05"/><polyline class="cls-156" points="16.08 103.86 46.24 156.09 105.95 156.09"/><polyline class="cls-157" points="16.05 103.9 46.21 156.14 105.92 156.14"/><polyline class="cls-158" points="16.03 103.95 46.19 156.19 105.89 156.19"/><polyline class="cls-159" points="16 104 46.16 156.23 105.87 156.23"/><polyline class="cls-160" points="15.98 104.04 46.13 156.28 105.84 156.28"/><polyline class="cls-161" points="15.95 104.09 46.11 156.32 105.82 156.32"/><polyline class="cls-162" points="15.93 104.14 46.08 156.37 105.79 156.37"/><polyline class="cls-163" points="15.9 104.18 46.06 156.42 105.77 156.42"/><polyline class="cls-164" points="15.88 104.23 46.03 156.47 105.74 156.47"/><polyline class="cls-165" points="15.85 104.28 46.01 156.51 105.71 156.51"/><polyline class="cls-166" points="15.82 104.32 45.98 156.56 105.69 156.56"/><polyline class="cls-167" points="15.8 104.37 45.96 156.6 105.66 156.6"/><polyline class="cls-168" points="15.78 104.42 45.93 156.65 105.64 156.65"/><polyline class="cls-169" points="15.75 104.46 45.91 156.7 105.61 156.7"/><polyline class="cls-170" points="15.72 104.51 45.88 156.74 105.58 156.74"/><polyline class="cls-171" points="15.7 104.55 45.86 156.79 105.56 156.79"/><polyline class="cls-172" points="15.67 104.6 45.83 156.84 105.53 156.84"/><polyline class="cls-173" points="15.65 104.65 45.81 156.88 105.51 156.88"/><polyline class="cls-174" points="15.62 104.69 45.78 156.93 105.48 156.93"/><polyline class="cls-175" points="15.6 104.74 45.76 156.98 105.45 156.98"/><polyline class="cls-176" points="15.57 104.79 45.73 157.02 105.43 157.02"/><polyline class="cls-177" points="15.55 104.83 45.71 157.07 105.4 157.07"/><polyline class="cls-178" points="15.52 104.88 45.68 157.12 105.38 157.12"/><polyline class="cls-179" points="15.5 104.93 45.66 157.16 105.35 157.16"/><polyline class="cls-180" points="15.47 104.97 45.63 157.21 105.32 157.21"/><polyline class="cls-181" points="15.45 105.02 45.6 157.25 105.3 157.25"/><polyline class="cls-182" points="15.42 105.07 45.58 157.3 105.27 157.3"/><polyline class="cls-183" points="15.4 105.11 45.55 157.35 105.25 157.35"/><polyline class="cls-184" points="15.37 105.16 45.53 157.4 105.22 157.4"/><polyline class="cls-185" points="15.35 105.21 45.5 157.44 105.19 157.44"/><polyline class="cls-186" points="15.32 105.25 45.48 157.49 105.17 157.49"/><polyline class="cls-187" points="15.29 105.3 45.45 157.53 105.14 157.53"/><polyline class="cls-188" points="15.27 105.34 45.43 157.58 105.12 157.58"/><polyline class="cls-189" points="15.24 105.39 45.4 157.63 105.09 157.63"/><polyline class="cls-190" points="15.22 105.44 45.38 157.67 105.06 157.67"/><polyline class="cls-191" points="15.19 105.48 45.35 157.72 105.04 157.72"/><polyline class="cls-192" points="15.17 105.53 45.33 157.77 105.01 157.77"/><polyline class="cls-193" points="15.14 105.58 45.3 157.81 104.99 157.81"/><polyline class="cls-194" points="15.12 105.62 45.28 157.86 104.96 157.86"/><polyline class="cls-195" points="15.09 105.67 45.25 157.91 104.94 157.91"/><polyline class="cls-196" points="15.07 105.72 45.23 157.95 104.91 157.95"/><polyline class="cls-197" points="15.04 105.76 45.2 158 104.88 158"/><polyline class="cls-198" points="15.02 105.81 45.17 158.05 104.86 158.05"/><polyline class="cls-199" points="14.99 105.86 45.15 158.09 104.83 158.09"/><polyline class="cls-200" points="14.97 105.9 45.13 158.14 104.81 158.14"/><polyline class="cls-201" points="14.94 105.95 45.1 158.19 104.78 158.19"/><polyline class="cls-202" points="14.92 106 45.07 158.23 104.75 158.23"/><polyline class="cls-203" points="14.89 106.04 45.05 158.28 104.73 158.28"/><polyline class="cls-204" points="14.87 106.09 45.02 158.32 104.7 158.32"/><polyline class="cls-205" points="14.84 106.14 45 158.37 104.68 158.37"/><polyline class="cls-206" points="14.81 106.18 44.97 158.42 104.65 158.42"/><polyline class="cls-207" points="14.79 106.23 44.95 158.47 104.63 158.47"/><polyline class="cls-208" points="14.77 106.28 44.92 158.51 104.6 158.51"/><polyline class="cls-209" points="14.74 106.32 44.9 158.56 104.57 158.56"/><polyline class="cls-210" points="14.71 106.37 44.87 158.6 104.55 158.6"/><polyline class="cls-211" points="14.69 106.42 44.85 158.65 104.52 158.65"/><polyline class="cls-212" points="14.66 106.46 44.82 158.7 104.5 158.7"/><polyline class="cls-213" points="14.64 106.51 44.8 158.74 104.47 158.74"/><polyline class="cls-214" points="14.61 106.55 44.77 158.79 104.44 158.79"/><polyline class="cls-215" points="14.59 106.6 44.75 158.84 104.42 158.84"/><polyline class="cls-216" points="14.56 106.65 44.72 158.88 104.39 158.88"/><polyline class="cls-217" points="14.54 106.69 44.7 158.93 104.36 158.93"/><polyline class="cls-218" points="14.51 106.74 44.67 158.98 104.34 158.98"/><polyline class="cls-219" points="14.49 106.79 44.65 159.02 104.31 159.02"/><polyline class="cls-220" points="14.46 106.83 44.62 159.07 104.29 159.07"/><polyline class="cls-221" points="14.44 106.88 44.59 159.12 104.26 159.12"/><polyline class="cls-222" points="14.41 106.93 44.57 159.16 104.24 159.16"/><polyline class="cls-223" points="14.39 106.97 44.54 159.21 104.21 159.21"/><polyline class="cls-224" points="14.36 107.02 44.52 159.25 104.18 159.25"/><polyline class="cls-225" points="14.34 107.07 44.49 159.3 104.16 159.3"/><polyline class="cls-226" points="14.31 107.11 44.47 159.35 104.13 159.35"/><polyline class="cls-227" points="14.29 107.16 44.44 159.4 104.11 159.4"/><polyline class="cls-228" points="14.26 107.21 44.42 159.44 104.08 159.44"/><polyline class="cls-229" points="14.23 107.25 44.39 159.49 104.05 159.49"/><polyline class="cls-230" points="14.21 107.3 44.37 159.53 104.03 159.53"/><polyline class="cls-231" points="14.18 107.34 44.34 159.58 104 159.58"/><polyline class="cls-232" points="14.16 107.39 44.32 159.63 103.98 159.63"/><polyline class="cls-233" points="14.13 107.44 44.29 159.67 103.95 159.67"/><polyline class="cls-234" points="14.11 107.48 44.27 159.72 103.92 159.72"/><polyline class="cls-235" points="14.08 107.53 44.24 159.77 103.9 159.77"/><polyline class="cls-236" points="14.06 107.58 44.22 159.81 103.87 159.81"/><polyline class="cls-237" points="14.03 107.62 44.19 159.86 103.85 159.86"/><polyline class="cls-238" points="14.01 107.67 44.17 159.91 103.82 159.91"/><polyline class="cls-239" points="13.98 107.72 44.14 159.95 103.8 159.95"/><polyline class="cls-240" points="13.96 107.76 44.12 160 103.77 160"/><polyline class="cls-241" points="13.93 107.81 44.09 160.05 103.74 160.05"/><polyline class="cls-242" points="13.91 107.86 44.06 160.09 103.72 160.09"/><polyline class="cls-243" points="13.88 107.9 44.04 160.14 103.69 160.14"/><polyline class="cls-244" points="13.86 107.95 44.01 160.19 103.67 160.19"/><polyline class="cls-245" points="13.83 108 43.99 160.23 103.64 160.23"/><polyline class="cls-246" points="13.8 108.04 43.96 160.28 103.61 160.28"/><polyline class="cls-247" points="13.78 108.09 43.94 160.32 103.59 160.32"/><polyline class="cls-248" points="13.76 108.14 43.91 160.37 103.56 160.37"/><polyline class="cls-249" points="13.73 108.18 43.89 160.42 103.54 160.42"/><polyline class="cls-250" points="13.7 108.23 43.86 160.47 103.51 160.47"/><polyline class="cls-251" points="13.68 108.28 43.84 160.51 103.48 160.51"/><polyline class="cls-252" points="13.65 108.32 43.81 160.56 103.46 160.56"/><polyline class="cls-253" points="13.63 108.37 43.79 160.6 103.43 160.6"/><polyline class="cls-254" points="13.6 108.42 43.76 160.65 103.41 160.65"/><polyline class="cls-255" points="13.58 108.46 43.74 160.7 103.38 160.7"/><polyline class="cls-256" points="13.55 108.51 43.71 160.74 103.36 160.74"/><polyline class="cls-257" points="13.53 108.55 43.69 160.79 103.33 160.79"/><polyline class="cls-258" points="13.5 108.6 43.66 160.84 103.3 160.84"/><polyline class="cls-259" points="13.48 108.65 43.63 160.88 103.28 160.88"/><polyline class="cls-260" points="13.45 108.69 43.61 160.93 103.25 160.93"/><polyline class="cls-261" points="13.43 108.74 43.59 160.98 103.22 160.98"/><polyline class="cls-262" points="13.4 108.79 43.56 161.02 103.2 161.02"/><polyline class="cls-263" points="13.38 108.83 43.53 161.07 103.17 161.07"/><polyline class="cls-264" points="13.35 108.88 43.51 161.12 103.15 161.12"/><polyline class="cls-265" points="13.32 108.93 43.48 161.16 103.12 161.16"/><polyline class="cls-266" points="13.3 108.97 43.46 161.21 103.1 161.21"/><polyline class="cls-267" points="13.28 109.02 43.43 161.25 103.07 161.25"/><polyline class="cls-268" points="13.25 109.07 43.41 161.3 103.04 161.3"/><polyline class="cls-269" points="13.22 109.11 43.38 161.35 103.02 161.35"/><polyline class="cls-270" points="13.2 109.16 43.36 161.4 102.99 161.4"/><polyline class="cls-271" points="13.17 109.21 43.33 161.44 102.97 161.44"/><polyline class="cls-272" points="13.15 109.25 43.31 161.49 102.94 161.49"/><polyline class="cls-273" points="13.12 109.3 43.28 161.53 102.91 161.53"/><polyline class="cls-274" points="13.1 109.34 43.26 161.58 102.89 161.58"/><polyline class="cls-275" points="13.07 109.39 43.23 161.63 102.86 161.63"/><polyline class="cls-276" points="13.05 109.44 43.21 161.67 102.84 161.67"/><polyline class="cls-277" points="13.02 109.48 43.18 161.72 102.81 161.72"/><polyline class="cls-278" points="13 109.53 43.16 161.77 102.78 161.77"/><polyline class="cls-279" points="12.97 109.58 43.13 161.81 102.76 161.81"/><polyline class="cls-280" points="12.95 109.62 43.1 161.86 102.73 161.86"/><polyline class="cls-281" points="12.92 109.67 43.08 161.91 102.71 161.91"/><polyline class="cls-282" points="12.9 109.72 43.05 161.95 102.68 161.95"/><polyline class="cls-283" points="12.87 109.76 43.03 162 102.66 162"/><polyline class="cls-284" points="12.85 109.81 43 162.05 102.63 162.05"/><polyline class="cls-285" points="12.82 109.86 42.98 162.09 102.6 162.09"/><polyline class="cls-286" points="12.79 109.9 42.95 162.14 102.58 162.14"/><polyline class="cls-287" points="12.77 109.95 42.93 162.19 102.55 162.19"/><polyline class="cls-288" points="12.74 110 42.9 162.23 102.53 162.23"/><polyline class="cls-289" points="12.72 110.04 42.88 162.28 102.5 162.28"/><polyline class="cls-290" points="12.69 110.09 42.85 162.32 102.47 162.32"/><polyline class="cls-291" points="12.67 110.14 42.83 162.37 102.45 162.37"/><polyline class="cls-292" points="12.64 110.18 42.8 162.42 102.42 162.42"/><polyline class="cls-293" points="12.62 110.23 42.78 162.47 102.4 162.47"/><polyline class="cls-294" points="12.59 110.28 42.75 162.51 102.37 162.51"/><polyline class="cls-295" points="12.57 110.32 42.73 162.56 102.34 162.56"/><polyline class="cls-296" points="12.54 110.37 42.7 162.6 102.32 162.6"/><polyline class="cls-297" points="12.52 110.42 42.68 162.65 102.29 162.65"/><polyline class="cls-298" points="12.49 110.46 42.65 162.7 102.27 162.7"/><polyline class="cls-299" points="12.47 110.51 42.63 162.74 102.24 162.74"/><polyline class="cls-300" points="12.44 110.55 42.6 162.79 102.22 162.79"/><polyline class="cls-301" points="12.42 110.6 42.58 162.84 102.19 162.84"/><polyline class="cls-302" points="12.39 110.65 42.55 162.88 102.16 162.88"/><polyline class="cls-303" points="12.37 110.69 42.52 162.93 102.14 162.93"/><polyline class="cls-304" points="12.34 110.74 42.5 162.98 102.11 162.98"/><polyline class="cls-305" points="12.31 110.79 42.47 163.02 102.08 163.02"/><polyline class="cls-306" points="12.29 110.83 42.45 163.07 102.06 163.07"/><polyline class="cls-307" points="12.27 110.88 42.42 163.12 102.03 163.12"/><polyline class="cls-308" points="12.24 110.93 42.4 163.16 102.01 163.16"/><polyline class="cls-309" points="12.21 110.97 42.37 163.21 101.98 163.21"/></g></g></g></svg>