<svg id="Layer_1" data-name="Layer 1" xmlns="http://www.w3.org/2000/svg" xmlns:xlink="http://www.w3.org/1999/xlink" viewBox="0 0 355 189.11"><defs><style>.cls-1{fill:url(#linear-gradient);}.cls-2{fill:#004168;}</style><linearGradient id="linear-gradient" x1="33.81" y1="-49.56" x2="321.2" y2="237.83" gradientUnits="userSpaceOnUse"><stop offset="0" stop-color="#66d1c6"/><stop offset="1" stop-color="#5fc3b9"/></linearGradient></defs><title>Mastering Perl Scripting_Large</title><rect class="cls-1" x="-9.8" y="-5.95" width="374.61" height="200.16"/><path class="cls-2" d="M130.88,95.5c.81,0,1.18-.5,1.18-1.29A30.33,30.33,0,0,0,130.65,84c-.36-1-.37-2.19-.82-3.24s-.29-2.59-1-3.71a1.1,1.1,0,0,1,0-.46A23.71,23.71,0,0,0,127.43,70a16.19,16.19,0,0,0-4-6.58c-1.43-1.49-3.23-2.58-4.73-4A15,15,0,0,0,116.61,58a9.18,9.18,0,0,1-1.41-.92c-.54-.58-.48-.42-1.23-.88-.58-.34-.31-.55-.77-1.2a4.38,4.38,0,0,0-.56-.71c-2-1.89-3.62-4.19-5.58-6.14-1-1-1.6-2.31-2.83-3.11s-1.36-1.93-3.5-2.31c-.13,0-.93-.12-1.29-.21A7,7,0,0,0,96,42.22c-1.71,0-3.68-.33-5.29.55-.86.48-1.47.74-2.59,1.34a9.49,9.49,0,0,0-1.5.81c-1,.82-1.71,1-3.31,2.15a4.64,4.64,0,0,0-.6.51l-4.79,5a3,3,0,0,0-.54.8,1.47,1.47,0,0,1-1.41,1,6.06,6.06,0,0,0-3.24.9c-.86.45-2,.55-2.65,1.32-1.32,1.49-3.38,2-4.4,3.93-.47.89-1.4,1.49-1.94,2.41a11.6,11.6,0,0,0-.69,1.23A5.75,5.75,0,0,1,58.16,68c-.43,0-.77.33-1.22.4-1.39.23-2.3-.73-3.4-1.27-.86-.42-1.47-1.27-2.54-1.39-.65-.07-1-1.91-.57-2.45a1.76,1.76,0,0,0,.1-1.88,1.46,1.46,0,0,1,0-1.52,1.45,1.45,0,0,0,.15-.78A3.27,3.27,0,0,1,51,57.48c.36-.6-.28-1.22-.42-1.84a7,7,0,0,1-.22-1.21,2.71,2.71,0,0,0-.3-1.37c-1-1.77-1.44-3.8-2.46-5.57a5.75,5.75,0,0,0-.76-1.06c-.94-1-.35-2-.18-3a2.74,2.74,0,0,0,0-1.45,1,1,0,0,0-1.56-.5c-.09.07-.13.22-.23.27-.59.26-.85,1-1.42,1.17s-.71-.85-1.22-1.14a3.41,3.41,0,0,0-2.17-.6,8.45,8.45,0,0,0-3.84,1.24,1.7,1.7,0,0,1-.71.33,23.78,23.78,0,0,1-4.82.41,6.46,6.46,0,0,0-3.09.72,2.09,2.09,0,0,1-1.51.08,1.73,1.73,0,0,0-2,.47,5.73,5.73,0,0,0-1.52,5,.64.64,0,0,0,.22.37,1.86,1.86,0,0,0,1.16.62,7.12,7.12,0,0,1,4.46,1.88,20.53,20.53,0,0,0,4.44,2.78.89.89,0,0,1,.6,1.08,15.29,15.29,0,0,0,0,4.22,16.25,16.25,0,0,0,.71,3.75,18.88,18.88,0,0,0,1.2,2.58c.16.31.38.64.82.57a.28.28,0,0,1,.34.23c0,1.1,1.08,1.7,1.25,2.75A3.72,3.72,0,0,0,39,72a19.61,19.61,0,0,1,1.91,3.28c1.21,2,2.19,4.29,4.15,5.7a10.3,10.3,0,0,1,1.73,1.49.72.72,0,0,0,.63.24,1.68,1.68,0,0,1,1.58.56c.37.45,1,.25,1.55.41a4.39,4.39,0,0,0,2.16.49c.86-.17,1.28.63,2,.85a10.09,10.09,0,0,0,4.08.3c1.83-.18,3.57.5,5.38.36a1.21,1.21,0,0,1,1,.55c.82,1,1.88,1.63,2.77,2.5,0,0,0,.06.06.06,1.82.36,1.56,1.8,1.52,3.14a28.58,28.58,0,0,0,.66,5.85,27.36,27.36,0,0,1,.14,7.28,8.74,8.74,0,0,1-.82,4.09c-.45.77-.14,2-.14,3.09,0,2.36,0,4.73,0,7.1A3.44,3.44,0,0,1,69,121c-.58,1.17-.42,2.57-1,3.74a1,1,0,0,0,0,.81c.78,1.12.15,2.18-.23,3.14-.22.54,0,1.09-.38,1.63a3.63,3.63,0,0,1-2.58,1.26,4.81,4.81,0,0,0-2.63,1.72c-.54.65-.32,1.31.44,1.72a6.11,6.11,0,0,0,3.61.56,14.57,14.57,0,0,0,3.28-.59c1-.33.6-1.38.6-2.14a6.54,6.54,0,0,1-.08-1.08c.09-.55.41-.91,1-.73A1.11,1.11,0,0,0,72.5,130a20.32,20.32,0,0,0,0-2.59,25.37,25.37,0,0,1,.45-5.51A13.63,13.63,0,0,1,74,117c.63-1.16,1.45-2.1,1.52-3.58a5.79,5.79,0,0,1,.8-1.78,1.32,1.32,0,0,0-.12-1.3,4.93,4.93,0,0,1-.29-5.21c.71-1.34.82-2.91,1.49-4.28.27-.56.38-.34.53-.08a8.11,8.11,0,0,1,1.31,3.5,13.64,13.64,0,0,0,1.83,6.18c1.44,2.3,2.7,4.73,2.36,7.67-.13,1.11.48,2.06.63,3.12.38,2.59,1.06,5.13.8,7.8-.07.71-.22,1.16-1,1.25-.46.05-.75.44-1,.77a12.27,12.27,0,0,0-1,1.1c-.3.41-1.08.76-.75,1.28a2.12,2.12,0,0,0,1.75,1.09,12.93,12.93,0,0,0,3-.45c.63-.14,1.26-.31,1.89-.42a1.76,1.76,0,0,0,1.66-2c0-.52,0-1.05,0-1.56a4.48,4.48,0,0,1,.85-3.47c.35-.41.2-.64-.1-.91a5.27,5.27,0,0,1-1.63-4.52,15.54,15.54,0,0,0-.78-4.39c-.37-1.47-1.07-2.9-.83-4.55a25.65,25.65,0,0,0,0-3.51A8.7,8.7,0,0,0,86,104.8c-.34-.69-.11-1.5-.45-2.26a25.63,25.63,0,0,1-1.06-3.42,3.42,3.42,0,0,1,0-1.65c.48-2.53.49-5.14,1-7.67.11-.55.23-.65.78-.6,1.39.13,2.82.37,4.15-.38a1.12,1.12,0,0,1,.68-.08,10.32,10.32,0,0,0,5.58-.91,5,5,0,0,1,1.79-.44A3.7,3.7,0,0,0,101,86.28a41.21,41.21,0,0,1,4.18-3.19c.71-.54.78-.17.75.47-.1,2.37.77,4.51,1.31,6.74s1.56,4.32,2.22,6.52a28.52,28.52,0,0,1,1.28,3.78c.18,1.19.72,2.24.86,3.44a22.46,22.46,0,0,0,1,2.49,7,7,0,0,1-.13,4.69,44.79,44.79,0,0,0-1.7,5.45,22.38,22.38,0,0,1-1.37,3,67.77,67.77,0,0,1-2.72,6.54c-.27.48-.59,1-.88,1.4a11.7,11.7,0,0,0-1.38,2.25c-.28.69-1.09.63-1.59.74A4.13,4.13,0,0,0,100,133a.71.71,0,0,0,.32,1.12,3.76,3.76,0,0,0,1.7.43c2,.1,4.09-.25,6.13-.34a.79.79,0,0,0,.83-.7c0-.74.56-1.3.52-2.1a1.26,1.26,0,0,1,1.08-1.14,1.5,1.5,0,0,0,1.35-1.77,8.36,8.36,0,0,1,.93-4.22,6.84,6.84,0,0,0,.42-1.8,20.7,20.7,0,0,1,1.11-3.61c.79-2,1.55-4,2.49-5.87a9.7,9.7,0,0,1,1.74-2.85,5.57,5.57,0,0,0,1-2.41,2.21,2.21,0,0,1,.44-.94.87.87,0,0,0,0-1.35,3.53,3.53,0,0,1-.79-1.65c-.12-.65-.65-1.12-.83-1.82-.31-1.19-.56-2.41-1-3.56-.29-.85,0-1.81-.59-2.58a.54.54,0,0,1,0-.51c.16-.2.3,0,.41.15,1,1,2,2,3,3a5.33,5.33,0,0,1,1.62,3.37c.06,1.4.91,2.57,1.35,3.86.6,1.76,1.51,3.42,1.93,5.21s1.22,3.83.17,5.79a.48.48,0,0,0-.06.26c.21,1.87-.62,3.67-.36,5.52a7.15,7.15,0,0,1-.83,4c-.31.71-.29,1.49-.57,2.21a1.2,1.2,0,0,1-.62.8,7.47,7.47,0,0,0-4,3.4c-.23.41-.69.42-.92.88-.46.94-.17,1.95.83,2a23.77,23.77,0,0,0,6.73-.51,3.51,3.51,0,0,0,2.12-3.4,1.12,1.12,0,0,1,.76-1.23,1.63,1.63,0,0,0,1-1.7c-.06-1.63,0-3.26,0-4.89,0-1.14,0-2.28,0-3.42a17.2,17.2,0,0,1,1-6.4.61.61,0,0,0,0-.27c-.22-1.41.34-2.75.44-4.13a13.49,13.49,0,0,1,.57-2.84c.46-1.56-.72-2.69-1.47-3.83a4.92,4.92,0,0,1-1-2.41,9.72,9.72,0,0,0-.6-3,1.89,1.89,0,0,1-.06-.72c0-2.8,0-5.6,0-8.4,0-.35-.28-1,.42-.94a.93.93,0,0,1,.73,1.18,25,25,0,0,0-.29,5.32C129.27,94.53,130.39,95.51,130.88,95.5ZM106.24,63.62v1.05h-8V63.62ZM101,69.1H100V68H101Zm1.62,3.37v1h-3.3v-1ZM97.25,53l.63-.84,4.21,3.09-4.28,3-.56-.91,3.09-2.17Zm1.26,15V69.1h-11V68Zm-.35,4.43v1h-1v-1Zm-4.49,0v1h-1v-1Zm-4.92-7.8V63.62h1.06v1.05Zm2.25,0V63.62h1v1.05Zm2.25,0V63.62h1v1.05Zm2.24,0V63.62h1.06v1.05Zm.29-14.93.94.47L91.51,60.56l-.94-.47Zm-6.32,2.37.63.84L87,55.13l3.09,2.24-.63.84-4.22-3.08ZM81.8,63.62h5.69v1.05H81.8Zm0,4.42h4.29V69.1H81.8ZM86,77.94H81.8v-1H86ZM81.8,73.52v-1h9.27v1Zm13.62,4.42H87.28v-1h8.14Zm.5-4.42H94.86v-1h1.06Zm10.39,4.42H96.9v-1h9.41Zm0-4.42h-2.25v-1h2.25Zm0-4.42h-3.86V68h3.86Z"/><rect class="cls-2" x="33.53" y="133.92" width="102.97" height="2.76" rx="1.38"/><path class="cls-2" d="M186.14,119v21.39h-4.38v-12.3c0-.29,0-.59,0-.93s0-.67.08-1l-5.69,11a1.77,1.77,0,0,1-.71.77,1.94,1.94,0,0,1-1,.27h-.67a1.89,1.89,0,0,1-1-.27,1.85,1.85,0,0,1-.72-.77l-5.68-11c0,.35.06.7.08,1s0,.64,0,.93v12.3h-4.37V119h3.79l.56,0a1.23,1.23,0,0,1,.44.08,1.08,1.08,0,0,1,.34.23,2,2,0,0,1,.3.43L173,130.65c.19.37.38.76.56,1.16s.36.81.52,1.24c.17-.44.34-.86.52-1.27s.38-.8.58-1.17l5.5-10.81a1.48,1.48,0,0,1,.3-.43,1,1,0,0,1,.34-.23,1.19,1.19,0,0,1,.44-.08l.56,0Z"/><path class="cls-2" d="M209.46,140.43h-3.84a1.67,1.67,0,0,1-1-.3,1.92,1.92,0,0,1-.61-.77l-1.26-3.73h-8.13l-1.26,3.73a1.9,1.9,0,0,1-.58.74,1.64,1.64,0,0,1-1,.33h-3.87L196.11,119h5.07Zm-7.88-8.18-2-5.86c-.15-.37-.3-.8-.47-1.31s-.33-1-.5-1.64c-.15.6-.3,1.15-.47,1.66s-.32,1-.47,1.32l-2,5.83Z"/><path class="cls-2" d="M223,123.39a1.85,1.85,0,0,1-.46.52,1,1,0,0,1-.63.18,1.54,1.54,0,0,1-.72-.21l-.88-.48a6.62,6.62,0,0,0-1.13-.48,4.53,4.53,0,0,0-1.43-.21,3.07,3.07,0,0,0-2.08.6,2,2,0,0,0-.68,1.6,1.45,1.45,0,0,0,.41,1.07,3.43,3.43,0,0,0,1.08.74,12,12,0,0,0,1.52.56c.57.17,1.16.37,1.76.58a14.79,14.79,0,0,1,1.75.74,5.89,5.89,0,0,1,1.53,1.08,5.29,5.29,0,0,1,1.08,1.61,5.77,5.77,0,0,1,.41,2.28,7.31,7.31,0,0,1-.52,2.78,6.46,6.46,0,0,1-1.49,2.25,6.82,6.82,0,0,1-2.4,1.51,9,9,0,0,1-3.26.56,10.22,10.22,0,0,1-2-.21,12.11,12.11,0,0,1-2-.58A11.38,11.38,0,0,1,211,139a7.92,7.92,0,0,1-1.49-1.14l1.47-2.32a1.43,1.43,0,0,1,.46-.42,1.27,1.27,0,0,1,.63-.17,1.66,1.66,0,0,1,.89.28l1,.62a8.29,8.29,0,0,0,1.3.61,4.79,4.79,0,0,0,1.73.28,3.34,3.34,0,0,0,2.1-.59,2.28,2.28,0,0,0,.75-1.89,1.8,1.8,0,0,0-.41-1.22,3.41,3.41,0,0,0-1.08-.78,11.13,11.13,0,0,0-1.52-.54c-.57-.16-1.15-.33-1.75-.52a12.45,12.45,0,0,1-1.74-.71,5.33,5.33,0,0,1-1.52-1.1,5,5,0,0,1-1.08-1.7,6.65,6.65,0,0,1-.41-2.52,6.06,6.06,0,0,1,.48-2.35,6.16,6.16,0,0,1,1.42-2,7.23,7.23,0,0,1,2.31-1.43,8.45,8.45,0,0,1,3.13-.53,12,12,0,0,1,1.91.15,10,10,0,0,1,1.77.45,9.78,9.78,0,0,1,1.57.72,7.42,7.42,0,0,1,1.29,1Z"/><path class="cls-2" d="M242.79,123h-6v17.46h-5V123h-6V119h17Z"/><path class="cls-2" d="M250.29,122.86v5H257v3.67h-6.73v5.09h8.78v3.82H245.3V119h13.77v3.82Z"/><path class="cls-2" d="M279.62,140.43h-4.49a1.9,1.9,0,0,1-1.79-.94l-3.55-6.21a1.74,1.74,0,0,0-.56-.58,1.78,1.78,0,0,0-.88-.18h-1.26v7.91h-5V119h7a14.2,14.2,0,0,1,4,.48,7.42,7.42,0,0,1,2.67,1.33,5,5,0,0,1,1.51,2,6.69,6.69,0,0,1,.47,2.52,7,7,0,0,1-.28,2,5.9,5.9,0,0,1-.83,1.71,6.11,6.11,0,0,1-1.34,1.4,7.08,7.08,0,0,1-1.84,1,4.63,4.63,0,0,1,.91.63,4.15,4.15,0,0,1,.76.89ZM269.08,129.1a5.17,5.17,0,0,0,1.73-.26,3.25,3.25,0,0,0,1.17-.71,2.83,2.83,0,0,0,.66-1.07,4.23,4.23,0,0,0,.2-1.31,2.73,2.73,0,0,0-.92-2.2,4.24,4.24,0,0,0-2.84-.8h-2v6.35Z"/><path class="cls-2" d="M286.42,140.43h-5V119h5Z"/><path class="cls-2" d="M309.24,119v21.39h-2.59a2.28,2.28,0,0,1-1-.18,2.45,2.45,0,0,1-.77-.64l-10.09-12.76c0,.38.07.75.08,1.11s0,.69,0,1v11.47h-4.38V119h2.61a4.22,4.22,0,0,1,.55,0,1.48,1.48,0,0,1,.39.11,1.2,1.2,0,0,1,.34.23,4.9,4.9,0,0,1,.37.39L305,132.65c-.05-.41-.08-.81-.1-1.2s0-.75,0-1.09V119Z"/><path class="cls-2" d="M323.65,129.35h7.61v9a11.11,11.11,0,0,1-3.51,1.75,13.78,13.78,0,0,1-3.88.55,13.45,13.45,0,0,1-4.81-.83,11.18,11.18,0,0,1-3.7-2.29,10.09,10.09,0,0,1-2.38-3.47,11.17,11.17,0,0,1-.84-4.35,12,12,0,0,1,.79-4.4,10,10,0,0,1,2.27-3.46,10.41,10.41,0,0,1,3.57-2.26,12.87,12.87,0,0,1,4.68-.8A13.4,13.4,0,0,1,326,119a11.36,11.36,0,0,1,2.16.6,9,9,0,0,1,1.81.91,9.55,9.55,0,0,1,1.47,1.14L330,123.87a1.37,1.37,0,0,1-.87.63,1.54,1.54,0,0,1-1.15-.26c-.39-.24-.76-.44-1.11-.61a7.3,7.3,0,0,0-1.06-.42,7.1,7.1,0,0,0-1.15-.24,13.47,13.47,0,0,0-1.35-.07,6.11,6.11,0,0,0-2.51.49,5.38,5.38,0,0,0-1.9,1.39,6.1,6.1,0,0,0-1.21,2.15,8.53,8.53,0,0,0-.43,2.8,9.08,9.08,0,0,0,.47,3A6.19,6.19,0,0,0,319,135a5.65,5.65,0,0,0,2.06,1.39,7,7,0,0,0,2.64.48,6.84,6.84,0,0,0,1.63-.18,9,9,0,0,0,1.41-.47V133h-2.11a1,1,0,0,1-.73-.25.83.83,0,0,1-.27-.63Z"/><path class="cls-2" d="M167.21,150.83a9.26,9.26,0,0,1,2.91.4,5.71,5.71,0,0,1,2,1.11,4.35,4.35,0,0,1,1.16,1.66,5.64,5.64,0,0,1,.38,2.07,6.07,6.07,0,0,1-.39,2.21A4.45,4.45,0,0,1,172.1,160a5.72,5.72,0,0,1-2,1.12,9.45,9.45,0,0,1-2.88.4h-1.94v5.37h-3.73V150.83Zm0,7.88a2.37,2.37,0,0,0,2.73-2.64,2.87,2.87,0,0,0-.16-1,2,2,0,0,0-.51-.78,2.32,2.32,0,0,0-.84-.5,3.73,3.73,0,0,0-1.22-.18h-1.94v5.1Z"/><path class="cls-2" d="M179.31,153.69v3.75h5.05v2.75h-5.05V164h6.59v2.87H175.56V150.83H185.9v2.86Z"/><path class="cls-2" d="M201.33,166.89H198a1.43,1.43,0,0,1-1.34-.71L194,161.52a1.37,1.37,0,0,0-.42-.44,1.3,1.3,0,0,0-.66-.14h-1v5.95H188.2V150.83h5.22a10.71,10.71,0,0,1,3,.35,5.73,5.73,0,0,1,2,1,3.83,3.83,0,0,1,1.13,1.51,5.1,5.1,0,0,1,.35,1.9,5,5,0,0,1-.21,1.47,4.53,4.53,0,0,1-.62,1.29,4.77,4.77,0,0,1-1,1.05,5.39,5.39,0,0,1-1.38.76,3.44,3.44,0,0,1,.68.47,3.15,3.15,0,0,1,.58.67Zm-7.91-8.51a3.72,3.72,0,0,0,1.29-.2,2.21,2.21,0,0,0,.88-.53,2.16,2.16,0,0,0,.5-.8,3.16,3.16,0,0,0,.15-1,2.07,2.07,0,0,0-.69-1.65,3.19,3.19,0,0,0-2.13-.6h-1.5v4.77Z"/><path class="cls-2" d="M212.37,163.91v3h-9.68V150.83h3.73v13.08Z"/><path class="cls-2" d="M227.57,154.09a1.36,1.36,0,0,1-.35.39.77.77,0,0,1-.47.14,1.18,1.18,0,0,1-.54-.16l-.66-.36a6.21,6.21,0,0,0-.85-.36,3.23,3.23,0,0,0-1.08-.16,2.31,2.31,0,0,0-1.56.45,1.52,1.52,0,0,0-.51,1.2,1.09,1.09,0,0,0,.31.81,2.51,2.51,0,0,0,.81.55,8,8,0,0,0,1.15.42c.43.13.86.28,1.31.43a12.74,12.74,0,0,1,1.32.56,4.46,4.46,0,0,1,1.15.82,4,4,0,0,1,.81,1.2,4.45,4.45,0,0,1,.3,1.72,5.49,5.49,0,0,1-.38,2.08,4.85,4.85,0,0,1-1.12,1.69,5.13,5.13,0,0,1-1.81,1.14,6.64,6.64,0,0,1-2.44.41,8.09,8.09,0,0,1-1.53-.15,9.43,9.43,0,0,1-2.87-1.1,6.54,6.54,0,0,1-1.11-.86l1.1-1.75a1.17,1.17,0,0,1,.35-.31,1,1,0,0,1,.47-.13,1.22,1.22,0,0,1,.66.21l.76.47a7.49,7.49,0,0,0,1,.46,3.65,3.65,0,0,0,1.3.21,2.48,2.48,0,0,0,1.58-.45,1.71,1.71,0,0,0,.56-1.41,1.33,1.33,0,0,0-.31-.92,2.37,2.37,0,0,0-.81-.58,6.84,6.84,0,0,0-1.14-.41l-1.31-.39a10,10,0,0,1-1.31-.53,4.07,4.07,0,0,1-1.14-.83,3.69,3.69,0,0,1-.81-1.28,5,5,0,0,1-.31-1.89,4.52,4.52,0,0,1,1.43-3.29,5.3,5.3,0,0,1,1.73-1.08,6.36,6.36,0,0,1,2.35-.4,9.76,9.76,0,0,1,1.44.11,7.74,7.74,0,0,1,1.32.35,7.07,7.07,0,0,1,1.18.54,5.05,5.05,0,0,1,1,.71Z"/><path class="cls-2" d="M241.73,162.73a.86.86,0,0,1,.27.05.66.66,0,0,1,.25.17l1.48,1.56a6.22,6.22,0,0,1-2.43,1.91,8.55,8.55,0,0,1-3.46.64,8.34,8.34,0,0,1-3.28-.62,7.32,7.32,0,0,1-2.46-1.72,7.6,7.6,0,0,1-1.54-2.6,9.59,9.59,0,0,1-.54-3.27,9,9,0,0,1,.58-3.3,7.83,7.83,0,0,1,1.64-2.6,7.3,7.3,0,0,1,2.54-1.69,9,9,0,0,1,4.95-.45,8.46,8.46,0,0,1,1.5.44,7,7,0,0,1,2.31,1.54l-1.25,1.68a2,2,0,0,1-.29.29.78.78,0,0,1-.46.12.82.82,0,0,1-.38-.09l-.37-.21-.44-.28a3.24,3.24,0,0,0-.56-.27,4.32,4.32,0,0,0-.76-.22,5.09,5.09,0,0,0-1-.09,4.05,4.05,0,0,0-1.69.35,3.6,3.6,0,0,0-1.33,1,4.68,4.68,0,0,0-.86,1.61,7.27,7.27,0,0,0-.3,2.18,6.46,6.46,0,0,0,.34,2.19,4.88,4.88,0,0,0,.91,1.62,4,4,0,0,0,1.35,1,4.2,4.2,0,0,0,1.65.34A8.7,8.7,0,0,0,239,164a3.71,3.71,0,0,0,.78-.17,2.86,2.86,0,0,0,.69-.31,3.82,3.82,0,0,0,.65-.49,1.67,1.67,0,0,1,.28-.18A.74.74,0,0,1,241.73,162.73Z"/><path class="cls-2" d="M258.5,166.89h-3.37a1.44,1.44,0,0,1-1.35-.71l-2.67-4.66a1.26,1.26,0,0,0-.41-.44,1.36,1.36,0,0,0-.67-.14h-.94v5.95h-3.73V150.83h5.22a10.73,10.73,0,0,1,3,.35,5.68,5.68,0,0,1,2,1,3.74,3.74,0,0,1,1.13,1.51,4.91,4.91,0,0,1,.35,1.9,5,5,0,0,1-.21,1.47,4.25,4.25,0,0,1-.61,1.29,4.77,4.77,0,0,1-1,1.05,5.39,5.39,0,0,1-1.38.76,3.28,3.28,0,0,1,1.25,1.14Zm-7.92-8.51a3.82,3.82,0,0,0,1.3-.2,2.21,2.21,0,0,0,.88-.53,2.14,2.14,0,0,0,.49-.8,2.9,2.9,0,0,0,.16-1,2.07,2.07,0,0,0-.69-1.65,3.2,3.2,0,0,0-2.14-.6h-1.49v4.77Z"/><path class="cls-2" d="M263.6,166.89h-3.74V150.83h3.74Z"/><path class="cls-2" d="M272.38,150.83a9.26,9.26,0,0,1,2.91.4,5.62,5.62,0,0,1,2,1.11,4.35,4.35,0,0,1,1.16,1.66,5.64,5.64,0,0,1,.38,2.07,6.07,6.07,0,0,1-.39,2.21,4.45,4.45,0,0,1-1.18,1.72,5.72,5.72,0,0,1-2,1.12,9.45,9.45,0,0,1-2.88.4h-1.94v5.37h-3.73V150.83Zm0,7.88a2.37,2.37,0,0,0,2.73-2.64,2.87,2.87,0,0,0-.16-1,2,2,0,0,0-.51-.78,2.32,2.32,0,0,0-.84-.5,3.73,3.73,0,0,0-1.22-.18h-1.94v5.1Z"/><path class="cls-2" d="M292.27,153.78h-4.52v13.11H284V153.78h-4.52v-2.95h12.76Z"/><path class="cls-2" d="M297.91,166.89h-3.75V150.83h3.75Z"/><path class="cls-2" d="M315,150.83v16.06H313.1a1.5,1.5,0,0,1-1.3-.62l-7.58-9.58c0,.29,0,.56.06.83s0,.52,0,.76v8.61H301V150.83h2a2.3,2.3,0,0,1,.4,0,.88.88,0,0,1,.3.08,1.06,1.06,0,0,1,.26.17,2.13,2.13,0,0,1,.27.3l7.64,9.64c0-.31-.06-.6-.08-.89s0-.57,0-.83v-8.49Z"/><path class="cls-2" d="M325.86,158.56h5.71v6.78a8.21,8.21,0,0,1-2.63,1.31,10.69,10.69,0,0,1-6.52-.21,8.47,8.47,0,0,1-2.79-1.72,7.58,7.58,0,0,1-1.78-2.6,8.36,8.36,0,0,1-.63-3.27,9,9,0,0,1,.59-3.3,7.42,7.42,0,0,1,4.39-4.29,9.5,9.5,0,0,1,3.51-.61,10.21,10.21,0,0,1,1.88.16,9.44,9.44,0,0,1,1.63.46,7.2,7.2,0,0,1,1.36.68,6.87,6.87,0,0,1,1.1.86l-1.08,1.64a1.05,1.05,0,0,1-.65.48,1.22,1.22,0,0,1-.87-.2c-.29-.18-.57-.33-.83-.46a4.89,4.89,0,0,0-.8-.31,5.69,5.69,0,0,0-.86-.18,7.73,7.73,0,0,0-1-.06,4.75,4.75,0,0,0-1.89.37,4.15,4.15,0,0,0-1.43,1,4.76,4.76,0,0,0-.91,1.61,7.2,7.2,0,0,0,0,4.37,4.68,4.68,0,0,0,1,1.68,4.37,4.37,0,0,0,1.55,1,5.3,5.3,0,0,0,2,.36,5,5,0,0,0,1.21-.14,5.82,5.82,0,0,0,1.07-.35v-2.43h-1.59a.8.8,0,0,1-.55-.19.64.64,0,0,1-.2-.48Z"/></svg>