<svg id="Layer_1" data-name="Layer 1" xmlns="http://www.w3.org/2000/svg" viewBox="0 0 355 189.11"><defs><style>.cls-1{fill:#92c671;opacity:0.85;}.cls-2{fill:#5ea044;}.cls-3{fill:#73b548;}.cls-4{fill:#fff;}</style></defs><title>spring frameworks-L copy 3</title><rect class="cls-1" width="355" height="189.11"/><path class="cls-2" d="M16.32,171.14c0-3.91,1.61-6.61,5.83-7,3.13-.27,5.49,1.25,6.29,4.15.94,3.39.25,6.46-3.82,7.57C21,175.74,17.4,175.68,16.32,171.14Z"/><path class="cls-2" d="M40.28,169.62c6.89-1.75,13.81-3.38,20.66-5.27q33.75-9.33,50.19-40.29c-.31-1.39-.91-.46-1.42-.18-17.68,23-42.3,32.46-69.92,36.17-.51.06-1,0-1.54.09-4.39.45-8.82,3.24-13-.83A23.21,23.21,0,0,1,18,142.37c-.49-22.72,17.69-35.76,36.62-37.07,8.88-.61,17.83.56,26.63-1,17.58-3.09,31.92-11.52,42.6-27a183.34,183.34,0,0,1,7,36.3c.79,9.79.47,19.44-2.45,28.94-5.76,18.71-19.13,29.33-38.45,30.71-12.55.89-25-.25-37.38-1.71-3.06-.36-6.14-.51-9.21-.76C42.18,170.73,40.53,172,40.28,169.62Z"/><path class="cls-3" d="M109.71,123.88c.59-1.08.8-2.51,3-2.87l-1.6,3Z"/><path class="cls-4" d="M205.23,25a1,1,0,0,1-.31.38.83.83,0,0,1-.43.11,1.07,1.07,0,0,1-.55-.19q-.3-.19-.72-.42a5.64,5.64,0,0,0-1-.43,4.26,4.26,0,0,0-1.31-.19,3.9,3.9,0,0,0-1.2.17,2.53,2.53,0,0,0-.86.46,2,2,0,0,0-.52.7,2.44,2.44,0,0,0-.17.9,1.6,1.6,0,0,0,.35,1,3,3,0,0,0,.93.71,8.51,8.51,0,0,0,1.31.52l1.5.5c.51.18,1,.38,1.5.61a5.22,5.22,0,0,1,1.31.89,4,4,0,0,1,.93,1.3,4.61,4.61,0,0,1,.35,1.88,6.2,6.2,0,0,1-.41,2.25,5.23,5.23,0,0,1-1.21,1.82,5.61,5.61,0,0,1-1.93,1.23,7.07,7.07,0,0,1-2.61.45,8.35,8.35,0,0,1-1.66-.17A9,9,0,0,1,197,39.1a8.58,8.58,0,0,1-1.41-.74,6.47,6.47,0,0,1-1.17-1l1-1.58a1.11,1.11,0,0,1,.32-.29.79.79,0,0,1,.42-.12,1.24,1.24,0,0,1,.67.25c.23.17.51.36.84.56a6.73,6.73,0,0,0,1.14.56,4.31,4.31,0,0,0,1.57.25,3.2,3.2,0,0,0,2.18-.67,2.37,2.37,0,0,0,.77-1.92,1.82,1.82,0,0,0-.34-1.14,3,3,0,0,0-.93-.74,6.88,6.88,0,0,0-1.31-.51l-1.5-.45a12.46,12.46,0,0,1-1.49-.59,5,5,0,0,1-1.31-.89,4,4,0,0,1-.93-1.38,5.37,5.37,0,0,1-.35-2,4.77,4.77,0,0,1,.39-1.89,4.66,4.66,0,0,1,1.12-1.63,5.47,5.47,0,0,1,1.83-1.14,6.51,6.51,0,0,1,2.46-.43,8.16,8.16,0,0,1,2.89.49A6.58,6.58,0,0,1,206,23.48Z"/><path class="cls-4" d="M212.29,33.3v6.24H209V21.81h5.78a10,10,0,0,1,3.07.42A6,6,0,0,1,220,23.4a4.51,4.51,0,0,1,1.25,1.79,6.21,6.21,0,0,1,.4,2.28,6.27,6.27,0,0,1-.43,2.36,4.82,4.82,0,0,1-1.28,1.84,5.9,5.9,0,0,1-2.15,1.2,9.42,9.42,0,0,1-3,.43Zm0-2.57h2.48a5,5,0,0,0,1.58-.23,2.89,2.89,0,0,0,1.11-.65,2.47,2.47,0,0,0,.66-1,3.86,3.86,0,0,0,.23-1.35,3.49,3.49,0,0,0-.23-1.29,2.43,2.43,0,0,0-.66-1,2.84,2.84,0,0,0-1.11-.62,5.33,5.33,0,0,0-1.58-.22h-2.48Z"/><path class="cls-4" d="M227.61,32.61v6.93h-3.3V21.81h5.41a11.25,11.25,0,0,1,3.11.38,5.93,5.93,0,0,1,2.12,1,4,4,0,0,1,1.21,1.61,5.29,5.29,0,0,1,.39,2.06,5.6,5.6,0,0,1-.26,1.7,4.92,4.92,0,0,1-2,2.58,6.53,6.53,0,0,1-1.66.79,3.23,3.23,0,0,1,1.08,1l4.43,6.55h-3a1.49,1.49,0,0,1-.73-.17,1.59,1.59,0,0,1-.51-.49l-3.73-5.68a1.31,1.31,0,0,0-.46-.45,1.56,1.56,0,0,0-.74-.14Zm0-2.36h2.06A5.34,5.34,0,0,0,231.3,30a3.16,3.16,0,0,0,1.14-.65,2.58,2.58,0,0,0,.66-1,3.34,3.34,0,0,0,.23-1.24,2.52,2.52,0,0,0-.89-2.07,4.29,4.29,0,0,0-2.72-.73h-2.11Z"/><path class="cls-4" d="M244,39.54h-3.31V21.81H244Z"/><path class="cls-4" d="M250.06,21.83a1,1,0,0,1,.26.08.8.8,0,0,1,.23.16l.24.27L260.1,34.2a8.39,8.39,0,0,1-.07-.84c0-.28,0-.53,0-.77V21.81h2.91V39.54h-1.71a1.57,1.57,0,0,1-.65-.12,1.43,1.43,0,0,1-.5-.44l-9.27-11.81q0,.39.06.78c0,.26,0,.49,0,.71V39.54H248V21.81h1.73Z"/><path class="cls-4" d="M274.64,37.11a8,8,0,0,0,1.94-.2,7.51,7.51,0,0,0,1.57-.56V33.13h-2.21a.71.71,0,0,1-.51-.18.58.58,0,0,1-.18-.43V30.65h5.9v7.17a9.33,9.33,0,0,1-1.41.86,8.43,8.43,0,0,1-1.55.59,11.93,11.93,0,0,1-1.78.35,16.07,16.07,0,0,1-2,.12,9.27,9.27,0,0,1-3.57-.68,8.3,8.3,0,0,1-4.67-4.74,9.62,9.62,0,0,1-.67-3.64,9.9,9.9,0,0,1,.65-3.67,8,8,0,0,1,4.74-4.73,10.54,10.54,0,0,1,3.83-.66,10,10,0,0,1,3.75.64,8.71,8.71,0,0,1,2.69,1.67l-.95,1.5a.86.86,0,0,1-.75.45,1.09,1.09,0,0,1-.6-.19l-.8-.47a5.81,5.81,0,0,0-.91-.4,6.31,6.31,0,0,0-1.12-.28,7.58,7.58,0,0,0-1.42-.11,6,6,0,0,0-2.38.44,4.89,4.89,0,0,0-1.8,1.26,5.68,5.68,0,0,0-1.16,2,7.76,7.76,0,0,0-.4,2.58,8,8,0,0,0,.43,2.73,5.61,5.61,0,0,0,1.2,2,5.12,5.12,0,0,0,1.84,1.26A6.08,6.08,0,0,0,274.64,37.11Z"/><path class="cls-4" d="M205.47,45.91v.93h-8.12v6.48h7v.93h-7v7.08h-1.12V45.91Z"/><path class="cls-4" d="M210.13,54.36v7H209V45.91H213a6.47,6.47,0,0,1,4,1,3.62,3.62,0,0,1,1.32,3,4,4,0,0,1-.31,1.61,3.73,3.73,0,0,1-.87,1.28,4.67,4.67,0,0,1-1.38.91,6.31,6.31,0,0,1-1.82.46,1.89,1.89,0,0,1,.47.43l5.3,6.67h-1a.73.73,0,0,1-.3-.06,1,1,0,0,1-.24-.22L213.2,54.8a1,1,0,0,0-.39-.34,1.63,1.63,0,0,0-.66-.1Zm0-.83h2.68a6.51,6.51,0,0,0,1.84-.24,4,4,0,0,0,1.37-.71,3.08,3.08,0,0,0,.86-1.1,3.54,3.54,0,0,0,.29-1.45,2.84,2.84,0,0,0-1.08-2.44A5.23,5.23,0,0,0,213,46.8h-2.82Z"/><path class="cls-4" d="M234.05,61.33h-.86a.34.34,0,0,1-.25-.08.49.49,0,0,1-.16-.21L231,56.56h-7.57L221.58,61a.51.51,0,0,1-.15.21.45.45,0,0,1-.26.08h-.85l6.31-15.42h1.11Zm-10.32-5.6h6.91l-3.15-7.79q-.08-.18-.15-.42c-.06-.15-.11-.32-.16-.49-.05.17-.1.34-.15.49s-.1.3-.15.43Z"/><path class="cls-4" d="M244.18,57.5l.14-.35a1.91,1.91,0,0,1,.16-.32l6.05-10.71a.4.4,0,0,1,.18-.17.75.75,0,0,1,.24,0h.77V61.33h-1V48.19q0-.28,0-.6L244.7,58.37a.46.46,0,0,1-.43.28h-.18a.48.48,0,0,1-.43-.28l-6.23-10.79c0,.21,0,.42,0,.61V61.33h-1V45.91h.76a.87.87,0,0,1,.25,0,.4.4,0,0,1,.18.17l6.22,10.72A4.84,4.84,0,0,1,244.18,57.5Z"/><path class="cls-4" d="M265.54,45.91v.93h-8.12v6.23h6.76V54h-6.76v6.43h8.12v.92H256.3V45.91Z"/><path class="cls-4" d="M267.07,45.91H268a.37.37,0,0,1,.4.3l3.89,12.67a3.23,3.23,0,0,1,.12.47c0,.17.07.34.1.52,0-.18.07-.35.11-.52s.08-.32.13-.47l4.36-12.67a.51.51,0,0,1,.15-.21.41.41,0,0,1,.26-.09h.31a.37.37,0,0,1,.25.09.41.41,0,0,1,.15.21l4.36,12.67c.05.15.1.3.14.46s.08.33.11.51c0-.17.07-.34.1-.51s.07-.31.11-.46l3.89-12.67a.38.38,0,0,1,.15-.21.39.39,0,0,1,.26-.09h.85l-4.85,15.42h-1L277.8,48c-.06-.17-.11-.36-.16-.55a4.41,4.41,0,0,1-.15.55l-4.56,13.38h-1Z"/><path class="cls-4" d="M304.44,53.62a9.49,9.49,0,0,1-.53,3.24,7.12,7.12,0,0,1-1.51,2.48,6.74,6.74,0,0,1-2.32,1.6,7.82,7.82,0,0,1-3,.56,7.74,7.74,0,0,1-3-.56,6.65,6.65,0,0,1-2.32-1.6,7.12,7.12,0,0,1-1.51-2.48,10,10,0,0,1,0-6.47,7.26,7.26,0,0,1,1.51-2.49,6.76,6.76,0,0,1,2.32-1.59,7.56,7.56,0,0,1,3-.57,7.82,7.82,0,0,1,3,.56,6.74,6.74,0,0,1,2.32,1.6,7.26,7.26,0,0,1,1.51,2.49A9.47,9.47,0,0,1,304.44,53.62Zm-1.16,0a9,9,0,0,0-.44-2.9,6.31,6.31,0,0,0-1.26-2.18,5.55,5.55,0,0,0-2-1.37,6.68,6.68,0,0,0-2.54-.47,6.6,6.6,0,0,0-2.51.47,5.64,5.64,0,0,0-2,1.37,6.18,6.18,0,0,0-1.27,2.18,9.37,9.37,0,0,0,0,5.8,6.18,6.18,0,0,0,1.27,2.18,5.49,5.49,0,0,0,2,1.36,6.6,6.6,0,0,0,2.51.47,6.68,6.68,0,0,0,2.54-.47,5.4,5.4,0,0,0,2-1.36,6.31,6.31,0,0,0,1.26-2.18A9,9,0,0,0,303.28,53.62Z"/><path class="cls-4" d="M309.5,54.36v7h-1.11V45.91h3.94a6.42,6.42,0,0,1,4,1,3.62,3.62,0,0,1,1.32,3,4.2,4.2,0,0,1-.3,1.61,3.9,3.9,0,0,1-.88,1.28,4.67,4.67,0,0,1-1.38.91,6.23,6.23,0,0,1-1.82.46,1.73,1.73,0,0,1,.47.43L319,61.33h-1a.67.67,0,0,1-.3-.06.84.84,0,0,1-.25-.22l-4.93-6.25a1.12,1.12,0,0,0-.4-.34,1.57,1.57,0,0,0-.66-.1Zm0-.83h2.68a6.46,6.46,0,0,0,1.84-.24,4,4,0,0,0,1.37-.71,3,3,0,0,0,.86-1.1,3.39,3.39,0,0,0,.29-1.45,2.84,2.84,0,0,0-1.08-2.44,5.2,5.2,0,0,0-3.13-.79H309.5Z"/><path class="cls-4" d="M323.25,53h.92l.36,0a1.27,1.27,0,0,0,.28-.06,1,1,0,0,0,.23-.13,1.28,1.28,0,0,0,.23-.19l6.22-6.4a1.15,1.15,0,0,1,.32-.24.81.81,0,0,1,.37-.08h.9l-6.73,6.92a3.45,3.45,0,0,1-.36.34,1.58,1.58,0,0,1-.36.2,1.2,1.2,0,0,1,.41.2,2.34,2.34,0,0,1,.36.35l7.11,7.41h-.91a.7.7,0,0,1-.4-.08A1.46,1.46,0,0,1,332,61l-6.53-6.67-.21-.21A1.28,1.28,0,0,0,325,54a1.07,1.07,0,0,0-.3-.09,2.54,2.54,0,0,0-.43,0h-1v7.43h-1.11V45.89h1.11Z"/></svg>